<svg width="96" height="100" viewBox="0 0 96 100" fill="none" xmlns="http://www.w3.org/2000/svg">
<path d="M47.4122 84.6274C44.0924 84.6293 40.7895 84.1556 37.604 83.2208C37.5139 83.197 37.4296 83.155 37.3564 83.0974C37.2831 83.0399 37.2223 82.9679 37.1779 82.8861C37.1334 82.8042 37.1061 82.7141 37.0976 82.6213C37.0892 82.5285 37.0998 82.435 37.1287 82.3464C37.1529 82.2561 37.1948 82.1715 37.2521 82.0975C37.3093 82.0235 37.3807 81.9617 37.4622 81.9157C37.5436 81.8697 37.6334 81.8404 37.7262 81.8295C37.8191 81.8186 37.9133 81.8263 38.0031 81.8522C41.0527 82.7481 44.2148 83.2026 47.3932 83.2018C47.5904 83.2013 47.7805 83.2755 47.9251 83.4096C48.0697 83.5436 48.1581 83.7275 48.1726 83.9241C48.1804 84.0121 48.1701 84.1007 48.1423 84.1846C48.1146 84.2684 48.0699 84.3456 48.0111 84.4116C47.9524 84.4775 47.8807 84.5306 47.8006 84.5677C47.7204 84.6049 47.6336 84.6252 47.5453 84.6274V83.9241L47.4122 84.6274ZM57.1255 83.2208C56.9716 83.2193 56.8223 83.1687 56.6992 83.0764C56.5761 82.9841 56.4857 82.8549 56.4412 82.7076C56.4122 82.619 56.4016 82.5255 56.41 82.4327C56.4185 82.3399 56.4458 82.2498 56.4903 82.168C56.5348 82.0861 56.5955 82.0142 56.6688 81.9566C56.7421 81.8991 56.8263 81.8571 56.9164 81.8332C59.9616 80.9184 62.861 79.5743 65.5271 77.8415C65.6865 77.7402 65.8792 77.7054 66.064 77.7445C66.2487 77.7836 66.4108 77.8934 66.5156 78.0506C66.6168 78.21 66.6517 78.4027 66.6126 78.5874C66.5735 78.7722 66.4636 78.9343 66.3065 79.039C63.5294 80.8423 60.508 82.2378 57.3346 83.1828L57.1255 83.2208ZM29.0312 79.2291C28.896 79.2295 28.7637 79.1898 28.6511 79.115C25.8627 77.3167 23.3415 75.1347 21.1618 72.6332C21.0306 72.4984 20.9572 72.3176 20.9572 72.1295C20.9572 71.9413 21.0306 71.7606 21.1618 71.6258C21.2273 71.5585 21.3056 71.5051 21.3921 71.4686C21.4787 71.4321 21.5716 71.4133 21.6655 71.4133C21.7594 71.4133 21.8523 71.4321 21.9389 71.4686C22.0254 71.5051 22.1037 71.5585 22.1692 71.6258C24.2595 74.0186 26.6711 76.1104 29.3354 77.8415C29.4161 77.8882 29.4864 77.951 29.542 78.0258C29.5976 78.1007 29.6372 78.1862 29.6586 78.277C29.68 78.3677 29.6825 78.4619 29.6662 78.5537C29.6498 78.6456 29.6149 78.7331 29.5634 78.8109C29.5156 78.9188 29.4421 79.0133 29.3493 79.0862C29.2566 79.1591 29.1473 79.2082 29.0312 79.2291ZM73.2635 72.7663C73.0897 72.7683 72.9209 72.7075 72.7883 72.5952C72.6571 72.4603 72.5837 72.2796 72.5837 72.0915C72.5837 71.9033 72.6571 71.7226 72.7883 71.5877C74.8681 69.1866 76.5903 66.4977 77.9015 63.6043C77.9906 63.4484 78.1344 63.3313 78.3051 63.2758C78.4758 63.2202 78.661 63.2302 78.8247 63.3037C78.9884 63.3773 79.1189 63.5092 79.1907 63.6736C79.2625 63.8381 79.2705 64.0235 79.2131 64.1935C77.8368 67.2081 76.0383 70.0115 73.8718 72.5192C73.7971 72.6157 73.6973 72.6897 73.5833 72.7333C73.4693 72.7769 73.3455 72.7883 73.2255 72.7663H73.2635ZM16.4477 64.7257C16.311 64.7264 16.1771 64.6872 16.0623 64.6129C15.9475 64.5387 15.8569 64.4325 15.8014 64.3076C14.4139 61.2918 13.4726 58.0902 13.0072 54.8034C12.9939 54.7109 12.9991 54.6167 13.0225 54.5263C13.046 54.4358 13.0872 54.351 13.1439 54.2766C13.2005 54.2023 13.2714 54.14 13.3523 54.0934C13.4333 54.0468 13.5228 54.0167 13.6155 54.0051C13.7069 53.9889 13.8006 53.9915 13.891 54.0127C13.9814 54.0339 14.0665 54.0732 14.1412 54.1283C14.2158 54.1835 14.2785 54.2532 14.3254 54.3333C14.3723 54.4134 14.4024 54.5022 14.4138 54.5943C14.8641 57.7426 15.7668 60.8092 17.094 63.6993C17.1355 63.7839 17.1595 63.876 17.1647 63.9701C17.1698 64.0641 17.1561 64.1583 17.1242 64.2469C17.0922 64.3356 17.0428 64.4169 16.9789 64.4861C16.9149 64.5553 16.8377 64.611 16.7519 64.6497C16.6443 64.6984 16.5278 64.7243 16.4097 64.7257H16.4477ZM81.19 55.2216C81.0011 55.1934 80.8312 55.0916 80.7172 54.9384C80.6032 54.7853 80.5545 54.5932 80.5817 54.4043C81.0395 51.2528 81.0395 48.0516 80.5817 44.9001C80.5683 44.8076 80.5735 44.7134 80.597 44.623C80.6205 44.5325 80.6617 44.4477 80.7183 44.3733C80.775 44.299 80.8459 44.2367 80.9268 44.1901C81.0078 44.1435 81.0973 44.1134 81.19 44.1018C81.3739 44.0745 81.5612 44.1212 81.7108 44.2316C81.8604 44.342 81.9602 44.5072 81.9883 44.691C82.4686 47.9747 82.4686 51.3107 81.9883 54.5943C81.9869 54.698 81.9632 54.8002 81.9188 54.8938C81.8744 54.9875 81.8103 55.0705 81.7309 55.1372C81.6516 55.204 81.5588 55.2528 81.4589 55.2805C81.359 55.3082 81.2543 55.314 81.1519 55.2977L81.19 55.2216ZM13.6915 45.7175C13.5064 45.6892 13.3395 45.5901 13.2261 45.4412C13.1126 45.2923 13.0614 45.1051 13.0833 44.9191C13.5539 41.6334 14.495 38.4326 15.8775 35.415C15.9146 35.3298 15.9682 35.2529 16.0352 35.1886C16.1022 35.1243 16.1813 35.0739 16.2679 35.0403C16.3545 35.0067 16.4469 34.9906 16.5397 34.993C16.6326 34.9953 16.7241 35.0159 16.8089 35.0538C16.9789 35.1364 17.1109 35.2807 17.1781 35.4573C17.2452 35.634 17.2423 35.8296 17.17 36.0042C15.8399 38.8918 14.9432 41.9598 14.5089 45.1092C14.4976 45.2082 14.466 45.3038 14.416 45.3899C14.366 45.4761 14.2987 45.551 14.2184 45.6099C14.138 45.6688 14.0464 45.7105 13.9492 45.7323C13.852 45.754 13.7513 45.7555 13.6535 45.7365L13.6915 45.7175ZM78.3197 36.3084C78.184 36.3045 78.052 36.2635 77.938 36.1897C77.8241 36.116 77.7325 36.0124 77.6734 35.8902C76.3461 32.9983 74.6043 30.3153 72.5032 27.9257C72.372 27.7909 72.2986 27.6101 72.2986 27.422C72.2986 27.2338 72.372 27.0531 72.5032 26.9183C72.5687 26.851 72.647 26.7976 72.7335 26.7611C72.8201 26.7246 72.913 26.7058 73.0069 26.7058C73.1008 26.7058 73.1937 26.7246 73.2803 26.7611C73.3668 26.7976 73.4451 26.851 73.5106 26.9183C75.6925 29.4081 77.5042 32.1993 78.89 35.2059C78.9685 35.3776 78.9766 35.5732 78.9127 35.7508C78.8487 35.9285 78.7177 36.074 78.5478 36.1563C78.5225 36.2166 78.4906 36.274 78.4528 36.3274L78.3197 36.3084ZM21.618 28.2869C21.4507 28.2844 21.2894 28.2239 21.1618 28.1158C21.0945 28.0503 21.0411 27.9719 21.0046 27.8854C20.9681 27.7989 20.9493 27.706 20.9493 27.6121C20.9493 27.5182 20.9681 27.4252 21.0046 27.3387C21.0411 27.2522 21.0945 27.1739 21.1618 27.1084C23.3298 24.597 25.8453 22.408 28.632 20.6075C28.7914 20.5063 28.9841 20.4714 29.1689 20.5105C29.3536 20.5496 29.5157 20.6595 29.6205 20.8166C29.6723 20.8959 29.7075 20.9849 29.7241 21.0782C29.7407 21.1714 29.7383 21.2671 29.717 21.3594C29.6957 21.4517 29.6559 21.5388 29.6002 21.6154C29.5444 21.6919 29.4737 21.7564 29.3924 21.805C26.7254 23.5325 24.3187 25.6319 22.2453 28.0397C22.1698 28.1302 22.0728 28.2002 21.9632 28.2434C21.8536 28.2866 21.7349 28.3015 21.618 28.2869ZM65.7552 21.786C65.6161 21.7906 65.4782 21.7578 65.3561 21.691C62.6875 19.9643 59.7799 18.6386 56.7263 17.7563C56.5458 17.6993 56.395 17.5738 56.3061 17.4067C56.2172 17.2396 56.1975 17.0444 56.2511 16.8629C56.2749 16.7728 56.3169 16.6886 56.3745 16.6153C56.432 16.542 56.504 16.4813 56.5858 16.4368C56.6677 16.3923 56.7578 16.365 56.8506 16.3565C56.9434 16.3481 57.0369 16.3587 57.1255 16.3877C60.31 17.3088 63.3447 18.6852 66.1354 20.4745C66.2925 20.5792 66.4024 20.7413 66.4415 20.926C66.4806 21.1108 66.4458 21.3035 66.3445 21.4629C66.281 21.5617 66.1939 21.643 66.091 21.6994C65.988 21.7558 65.8726 21.7856 65.7552 21.786ZM37.737 17.8133C37.5619 17.8209 37.3903 17.7628 37.2558 17.6505C37.1213 17.5382 37.0335 17.3797 37.0097 17.2061C36.9859 17.0325 37.0278 16.8562 37.1272 16.7119C37.2266 16.5675 37.3763 16.4654 37.5469 16.4257C40.7227 15.4742 44.0209 14.9939 47.3362 15.0001C47.5053 15.0278 47.659 15.1147 47.7699 15.2452C47.8808 15.3758 47.9417 15.5415 47.9417 15.7129C47.9417 15.8842 47.8808 16.05 47.7699 16.1805C47.659 16.3111 47.5053 16.398 47.3362 16.4257C44.1562 16.422 40.9928 16.8831 37.9461 17.7943L37.737 17.8133Z" fill="#3B4E56"/>
<path d="M47.4051 78.2164C63.0786 78.2164 75.7845 65.5105 75.7845 49.837C75.7845 34.1635 63.0786 21.4576 47.4051 21.4576C31.7316 21.4576 19.0258 34.1635 19.0258 49.837C19.0258 65.5105 31.7316 78.2164 47.4051 78.2164Z" fill="#66B5FF"/>
<path d="M42.4671 62.1647C42.2115 62.1563 41.9602 62.0964 41.7283 61.9886C41.4964 61.8808 41.2887 61.7273 41.1175 61.5374L32.5638 52.0332C32.2603 51.6553 32.1126 51.1758 32.151 50.6927C32.1893 50.2095 32.4108 49.7592 32.7701 49.434C33.1293 49.1087 33.5993 48.9329 34.0839 48.9426C34.5684 48.9523 35.031 49.1467 35.377 49.4861L42.6191 57.5076L60.9241 39.8679C61.1008 39.6898 61.3111 39.5483 61.5427 39.4518C61.7743 39.3553 62.0228 39.3057 62.2737 39.3057C62.5246 39.3057 62.7731 39.3553 63.0047 39.4518C63.2364 39.5483 63.4466 39.6898 63.6233 39.8679C63.9773 40.2241 64.176 40.7058 64.176 41.208C64.176 41.7102 63.9773 42.1919 63.6233 42.5481L43.7787 61.7085C43.4146 62.0205 42.9462 62.1834 42.4671 62.1647Z" fill="white"/>
</svg>
