<svg width="96" height="100" viewBox="0 0 96 100" fill="none" xmlns="http://www.w3.org/2000/svg">
<path d="M25.0002 41.8407C24.9824 37.7639 26.0609 33.7572 28.1227 30.2402C30.1845 26.7231 33.1539 23.825 36.72 21.8492C40.2861 19.8734 44.3177 18.8925 48.3929 19.0093C52.4681 19.1261 56.437 20.3363 59.8841 22.5131C63.3311 24.6899 66.1297 27.7534 67.9867 31.3828C69.8437 35.0122 70.6909 39.074 70.4396 43.1431C70.1883 47.2122 68.8478 51.139 66.5583 54.5123C64.2689 57.8856 61.1147 60.5815 57.426 62.3176V68.0512H37.4911C37.4911 68.0512 37.3707 64.823 37.3345 61.9563C33.6344 60.0534 30.5276 57.1715 28.3526 53.6244C26.1777 50.0774 25.0181 46.0014 25.0002 41.8407Z" fill="#66B5FF"/>
<path d="M44.7062 68.003C44.7062 68.003 44.7062 67.9066 44.7062 67.7259C44.7062 67.5453 44.646 67.2562 44.6098 66.9069C44.5255 66.1841 44.393 65.1242 44.1883 63.751C43.9835 62.3779 43.7185 60.7276 43.2849 58.8125C42.8162 56.6397 42.126 54.5207 41.2251 52.4887C40.7016 51.2926 40.0685 50.1474 39.334 49.0679C38.9404 48.4801 38.4063 47.9999 37.7802 47.6706C37.4399 47.5142 37.0679 47.4394 36.6936 47.4519C36.3193 47.4645 35.9531 47.5641 35.6241 47.7429C35.275 47.9388 35.0159 48.2628 34.9014 48.6463C34.8375 48.8435 34.8131 49.0514 34.8297 49.2581C34.8462 49.4648 34.9033 49.6662 34.9977 49.8508C35.3738 50.5513 35.996 51.0877 36.7443 51.3565C38.3035 51.8757 40.0046 51.7588 41.4781 51.0312C42.234 50.6399 42.9031 50.1 43.4454 49.4439C43.9877 48.7878 44.392 48.029 44.6339 47.2129C44.9291 46.3688 44.9793 45.4584 44.7785 44.587C44.6644 44.1395 44.4025 43.7436 44.0352 43.4638C43.6678 43.1839 43.2166 43.0364 42.7549 43.0452C42.5027 43.0629 42.2593 43.1454 42.0483 43.2847C41.8373 43.4239 41.6658 43.6153 41.5503 43.8402C41.3238 44.2734 41.2598 44.7732 41.3697 45.2495C41.6507 46.1515 42.2118 46.9405 42.9717 47.502C43.6968 48.1175 44.5437 48.573 45.457 48.8387C46.3703 49.1044 47.3294 49.1743 48.2716 49.0438C49.2134 48.8902 50.1045 48.5124 50.8697 47.9422C51.6349 47.372 52.2517 46.6261 52.6681 45.7675C52.8819 45.3428 53.0052 44.8783 53.03 44.4035C53.0549 43.9286 52.9809 43.4538 52.8127 43.0091C52.7275 42.7824 52.5956 42.5762 52.4254 42.4039C52.2552 42.2316 52.0506 42.0972 51.8249 42.0093C51.5946 41.93 51.3502 41.8998 51.1075 41.9205C50.8648 41.9413 50.6291 42.0126 50.4156 42.1298C50.0041 42.3584 49.6721 42.7072 49.4641 43.1296C49.2613 43.5396 49.1426 43.9859 49.1148 44.4425C49.0486 45.3246 49.1676 46.2108 49.4641 47.0443C50.0048 48.6768 51.1518 50.0393 52.6681 50.8506C54.108 51.6154 55.7722 51.8458 57.3658 51.501C58.1488 51.3742 58.8683 50.9932 59.4134 50.4169C59.681 50.1208 59.8399 49.7424 59.864 49.344C59.8881 48.9456 59.7759 48.5509 59.5459 48.2247C59.2823 47.9326 58.9148 47.7554 58.5221 47.7308C58.1488 47.6992 57.774 47.77 57.438 47.9356C56.8149 48.2923 56.3245 48.8419 56.0408 49.5015C55.4746 50.706 55.0169 51.9105 54.5472 53.1151C52.7283 57.7043 51.4395 61.4745 50.5722 64.1003C50.1386 65.4012 49.8254 66.4251 49.6086 67.1237C49.5123 67.4609 49.4279 67.7139 49.3798 67.9066C49.3476 67.9967 49.3234 68.0894 49.3075 68.1837L49.4038 67.9187C49.4641 67.7259 49.5484 67.473 49.6688 67.1357C49.8977 66.4371 50.247 65.4253 50.6806 64.1244C51.572 61.5226 52.897 57.7645 54.7278 53.1994C55.1976 51.9949 55.6674 50.7903 56.2335 49.5858C56.497 48.9714 56.9537 48.4596 57.5344 48.1283C57.6751 48.0137 57.8371 47.9278 58.0111 47.8757C58.185 47.8237 58.3675 47.8064 58.5482 47.8248C58.7288 47.8433 58.9041 47.8971 59.0639 47.9833C59.2237 48.0695 59.365 48.1863 59.4797 48.3271C59.5944 48.4679 59.6802 48.6299 59.7323 48.8038C59.7843 48.9778 59.8016 49.1603 59.7832 49.3409C59.7647 49.5215 59.7109 49.6968 59.6247 49.8566C59.5385 50.0164 59.4217 50.1577 59.2809 50.2724C58.7717 50.8096 58.0977 51.1614 57.3658 51.2721C55.8281 51.6027 54.2231 51.3764 52.8367 50.6337C51.7357 50.0348 50.8308 49.131 50.2305 48.0307C49.6302 46.9305 49.3599 45.6804 49.452 44.4304C49.4586 44.0076 49.5726 43.5934 49.7833 43.2268C49.994 42.8601 50.2945 42.5531 50.6565 42.3346C50.8337 42.2307 51.0317 42.1675 51.2363 42.1495C51.4409 42.1316 51.6469 42.1593 51.8395 42.2308C52.032 42.3023 52.2062 42.4157 52.3496 42.5628C52.4929 42.7099 52.6017 42.887 52.6681 43.0814C52.8208 43.49 52.8868 43.9258 52.8619 44.3613C52.837 44.7968 52.7218 45.2223 52.5235 45.6109C52.1189 46.4399 51.5179 47.1575 50.7726 47.7013C50.0273 48.245 49.1605 48.5983 48.2475 48.7306C47.3446 48.8517 46.4264 48.7836 45.5513 48.5306C44.6762 48.2776 43.8633 47.8453 43.1644 47.2611C42.4555 46.7321 41.9292 45.9953 41.6587 45.1532C41.5733 44.7455 41.6285 44.3209 41.8153 43.9486C41.9043 43.7687 42.0369 43.6138 42.201 43.4981C42.3651 43.3824 42.5555 43.3095 42.7549 43.2861C43.1659 43.2628 43.5706 43.3962 43.8871 43.6595C44.2076 43.9176 44.4358 44.2726 44.5376 44.6713C44.717 45.4712 44.6711 46.3051 44.4051 47.0804C44.1718 47.8423 43.7897 48.5503 43.2809 49.1634C42.7721 49.7766 42.1466 50.2827 41.4408 50.6524C40.735 51.0221 39.9628 51.2481 39.1691 51.3173C38.3753 51.3864 37.5757 51.2974 36.8166 51.0553C36.1206 50.8128 35.5405 50.3187 35.1905 49.6701C35.0335 49.3667 34.9997 49.0145 35.0962 48.6868C35.1927 48.3591 35.412 48.0814 35.7084 47.9115C36.0037 47.743 36.3354 47.6484 36.6752 47.6358C37.015 47.6232 37.3528 47.693 37.6597 47.8393C38.2531 48.1504 38.7585 48.6061 39.1292 49.1642C39.8628 50.2358 40.4959 51.3729 41.0204 52.561C41.9221 54.5836 42.6241 56.6895 43.1162 58.8486C43.5619 60.7517 43.8389 62.4622 44.0678 63.7751C44.2967 65.088 44.4171 66.1841 44.5255 66.9069C44.5255 67.2562 44.6219 67.5332 44.646 67.7259C44.6701 67.9187 44.7062 68.003 44.7062 68.003Z" fill="#263238"/>
<path d="M39.0329 71.7852H56.1371C56.479 71.7852 56.8068 71.6494 57.0485 71.4077C57.2902 71.166 57.426 70.8382 57.426 70.4963C57.4228 70.1566 57.2857 69.8319 57.0443 69.5928C56.8029 69.3537 56.4769 69.2195 56.1371 69.2195H39.0329C38.6932 69.2195 38.3672 69.3537 38.1258 69.5928C37.8845 69.8319 37.7473 70.1566 37.7441 70.4963C37.7441 70.8382 37.8799 71.166 38.1216 71.4077C38.3633 71.6494 38.6911 71.7852 39.0329 71.7852Z" fill="#263238"/>
<path d="M39.3957 60.0154H56.5801C56.7598 59.971 56.9412 60.0229 57.1126 60.1678C57.2841 60.3127 57.4417 60.5475 57.5754 60.857C57.7091 61.1665 57.816 61.5439 57.8891 61.965C57.9622 62.386 58 62.8414 58 63.302C58 63.7625 57.9622 64.2179 57.8891 64.6389C57.816 65.06 57.7091 65.4374 57.5754 65.7469C57.4417 66.0564 57.2841 66.2912 57.1126 66.4361C56.9412 66.581 56.7598 66.6329 56.5801 66.5884H54.7043L52.1993 78.747C52.0596 79.4286 51.8491 79.9991 51.5909 80.3964C51.3326 80.7937 51.0366 81.0024 50.735 80.9997H44.5994C44.2942 81.0087 43.9942 80.7996 43.7332 80.396C43.4723 79.9924 43.2609 79.4104 43.123 78.7161L40.7027 66.5884H39.4199C39.2402 66.6329 39.0588 66.581 38.8874 66.4361C38.7159 66.2912 38.5583 66.0564 38.4246 65.7469C38.2909 65.4374 38.184 65.06 38.1109 64.6389C38.0378 64.2179 38 63.7625 38 63.302C38 62.8414 38.0378 62.386 38.1109 61.965C38.184 61.5439 38.2909 61.1665 38.4246 60.857C38.5583 60.5475 38.7159 60.3127 38.8874 60.1678C39.0588 60.0229 39.2402 59.971 39.4199 60.0154H39.3957Z" fill="#263238"/>
<path opacity="0.3" d="M67.9294 39.3353C67.816 37.0602 67.2681 34.8278 66.3154 32.7586L62.3164 27.3021C60.9731 26.0534 59.4353 25.0322 57.7633 24.2787C56.6537 23.7613 55.4717 23.4161 54.2581 23.2549C53.4029 23.1706 52.909 23.2549 52.8729 23.4356C52.7645 23.8451 54.499 24.4594 56.8117 26.0133C59.8444 27.9325 62.2609 30.6837 63.773 33.9386C65.2852 37.1935 65.829 40.8147 65.3397 44.3702C65.0265 47.1406 64.3761 48.851 64.7615 49.0438C64.9181 49.1281 65.3036 48.8149 65.7854 48.0922C66.4479 47.0656 66.9514 45.9448 67.279 44.7677C67.7845 43.0032 68.0041 41.1692 67.9294 39.3353Z" fill="white"/>
<path opacity="0.3" d="M49.5604 22.1467C48.8995 21.7914 48.1608 21.6055 47.4104 21.6055C46.66 21.6055 45.9213 21.7914 45.2603 22.1467C44.7423 22.4599 44.4894 22.8694 44.5496 23.2428L47.4285 24.4474C48.8618 24.4474 50.1386 24.0378 50.2832 23.2428C50.3434 22.8694 50.0784 22.4599 49.5604 22.1467Z" fill="white"/>
<path d="M43.044 80.6023C43.4541 80.5126 43.8567 80.3918 44.2485 80.2409C45.1935 79.9803 46.1714 79.8586 47.1514 79.8796C48.1322 79.9103 49.1028 80.089 50.0302 80.4096C50.7409 80.6625 51.1504 80.8793 51.2348 80.8432C50.9147 80.5729 50.547 80.3646 50.1507 80.2289C49.2173 79.8427 48.2213 79.6305 47.2117 79.6025C46.2041 79.5704 45.1994 79.7256 44.2485 80.0603C43.8181 80.1682 43.4102 80.3517 43.044 80.6023Z" fill="#455A64"/>
<path d="M40.2736 75.5674C40.2736 75.6517 43.3571 75.7119 47.1755 75.7119C50.9938 75.7119 54.0895 75.7119 54.0895 75.5674C54.0895 75.4228 50.9938 75.4349 47.1755 75.4349C43.3571 75.4349 40.2736 75.459 40.2736 75.5674Z" fill="#455A64"/>
<path d="M41.3456 77.5669C41.8984 77.6669 42.4582 77.7233 43.0199 77.7355C44.0678 77.7355 45.5132 77.856 47.1032 77.8801C48.6932 77.9042 50.1386 77.8801 51.1866 77.8801C51.7513 77.895 52.316 77.8547 52.8729 77.7596C52.3135 77.6917 51.7497 77.6676 51.1866 77.6874H47.1032H43.0319C42.4752 77.5915 41.9103 77.5512 41.3456 77.5669Z" fill="#455A64"/>
</svg>
