<svg width="118" height="128" viewBox="0 0 118 128" fill="none" xmlns="http://www.w3.org/2000/svg">
<path d="M59.6167 29.0328C59.6167 29.0328 65.9881 8.16024 77.7717 6.35616C89.5553 4.55208 109.537 7.24679 109.994 13.2071C110.451 19.1674 101.385 28.1878 101.385 28.1878L59.6167 29.0328Z" fill="#66B5FF" stroke="#263238" stroke-width="3.70547" stroke-linecap="round" stroke-linejoin="round"/>
<path d="M105.015 8.68539C95.1499 9.34765 86.7461 27.2514 86.1067 28.4617L101.498 28.142C101.498 28.142 110.633 19.0075 110.108 13.1613C109.857 11.3572 107.893 9.78154 105.015 8.68539Z" fill="#263238" stroke="#263238" stroke-width="3.70547" stroke-linecap="round" stroke-linejoin="round"/>
<path d="M47.9246 3.61582C47.9246 3.61582 23.8778 -1.81927 18.4199 7.24681C12.962 16.3129 36.1182 28.5761 36.1182 28.5761H69.1625L47.9246 3.61582Z" fill="#66B5FF" stroke="#263238" stroke-width="3.70547" stroke-linecap="round" stroke-linejoin="round"/>
<path d="M72.7933 29.0325C72.7933 29.0325 60.0733 -0.449305 47.9243 3.61559C35.7753 7.68047 59.3426 28.5758 61.9916 28.5758L72.7933 29.0325Z" fill="#263238" stroke="#263238" stroke-width="3.70547" stroke-linecap="round" stroke-linejoin="round"/>
<path d="M115.908 28.5759H2V126.133H115.908V28.5759Z" fill="white" stroke="#263238" stroke-width="3.70547" stroke-linecap="round" stroke-linejoin="round"/>
<path d="M115.886 28.5759H81.4026V126.133H115.886V28.5759Z" fill="white" stroke="#263238" stroke-width="3.70547" stroke-linecap="round" stroke-linejoin="round"/>
<path d="M55.5517 28.5759H32.8523V126.133H55.5517V28.5759Z" fill="#66B5FF" stroke="#263238" stroke-width="3.70547" stroke-linecap="round" stroke-linejoin="round"/>
<path d="M90.4917 29.4895V77.1492L100.471 62.6252L109.103 74.4088V29.0327L90.4917 29.4895Z" fill="#66B5FF" stroke="#263238" stroke-width="3.70547" stroke-linecap="round" stroke-linejoin="round"/>
</svg>
