<svg width="301" height="500" viewBox="0 0 301 500" fill="none" xmlns="http://www.w3.org/2000/svg">
<path d="M22.834 201.824L19.755 204.06L24.373 210.059L28.022 208.981L24.296 201.208L22.834 201.824Z" fill="black"/>
<path d="M105.349 257.694L80.579 242.419C71.916 232.952 69.528 229.414 63.241 220.103L62.329 218.752C61.398 217.373 60.378 215.917 59.318 214.403C52.494 204.661 44.003 192.536 46.403 182.919C47.807 177.297 44.691 171.207 41.902 168.972C39.649 167.167 37.799 167.775 37.107 168.121C35.408 168.973 34.595 170.89 34.692 173.819C34.766 176.054 34.767 177.78 34.693 178.986C34.114 178.345 33.332 177.386 32.305 175.958C25.09 165.93 22.001 163.367 19.081 164.966C17.65 165.751 16.541 167.039 17.779 172.323C13.071 168.264 10.735 168.138 8.92098 169.486C5.80098 171.808 7.95598 178.099 10.797 183.678C7.69698 183.249 4.80898 183.643 3.28198 185.621C2.61398 186.487 1.35698 188.88 4.09698 192.402C7.79298 197.152 19.593 201.219 23.681 202.517C26.133 209.064 37.599 239.491 43.938 253.016C64.853 297.645 115.731 310.57 117.887 311.097L122.392 312.201L105.349 257.694Z" fill="black"/>
<path d="M282.708 300.534C280.16 297.74 271.038 287.631 261.669 279.824C252.3 272.017 235.946 261.086 219.509 255.745C214.989 254.348 214.003 254.43 211.537 255.17C208.66 255.581 204.223 250.486 204.223 250.486C204.223 250.486 169.296 244.87 130.834 248.377C130.491 248.408 119 248.8 104.871 253.62C99.179 254.387 93.917 256.579 94.044 257.314C94.917 262.382 112.222 285.001 114.051 300.492C119.16 315.68 116.952 337.597 115.861 345.774L115.862 345.775C115.862 345.775 114.614 355.867 113.707 364.08C112.8 372.293 111.915 379.042 117.52 381.84C117.52 381.84 115.274 407.919 114.507 415.918C113.74 423.917 110.37 464.241 110.206 468.679C110.206 468.679 109.055 468.679 107.905 468.679C106.754 468.679 105.193 469.008 105.029 472.049C105.029 472.049 94.592 472.049 91.058 472.049C87.524 472.049 83.908 473.693 83.908 478.295C83.908 482.897 83.908 489.143 83.908 489.143C83.908 489.143 82.1 488.979 82.1 491.197C82.1 493.416 82.511 494.813 84.237 494.813C85.963 494.813 133.547 494.813 135.19 494.813C136.834 494.813 136.998 494.073 137.039 493.334C137.08 492.594 136.875 491.773 137.737 491.773C138.6 491.773 138.928 491.773 138.928 491.773C138.928 491.773 138.641 494.814 141.229 494.814C143.818 494.814 145.954 494.814 147.968 494.814C149.981 494.814 149.981 493.787 149.981 492.883C149.981 491.979 150.433 489.103 148.173 489.103C148.173 489.103 148.748 482.528 148.379 478.378C148.009 474.228 147.475 470.16 146.448 469.461C146.448 469.461 154.913 438.026 157.296 428.822C159.679 419.617 166.911 394.798 166.911 394.798H176.115L185.484 468.598C185.484 468.598 183.183 469.42 183.183 471.968C183.183 474.516 183.183 476.899 183.183 476.899C183.183 476.899 181.457 483.967 183.101 488.815C182.033 489.39 181.868 490.048 181.868 492.267C181.868 494.486 183.43 494.774 184.375 494.774C185.32 494.774 189.758 494.774 190.744 494.774C191.73 494.774 191.689 493.747 191.895 492.966C192.101 492.185 192.142 491.774 192.142 491.774H193.991C193.991 491.774 193.662 494.815 195.634 494.815C197.606 494.815 244.574 494.815 246.382 494.815C248.19 494.815 249.012 493.254 249.012 492.021C249.012 490.788 249.135 489.35 247.163 489.104C247.163 486.022 247.163 481.831 247.163 479.16C247.163 476.489 244.985 472.092 240.506 472.092C236.027 472.092 225.754 472.092 225.754 472.092C225.754 472.092 225.795 469.216 223.823 469.216C221.851 469.216 221.193 469.216 221.193 469.216L221.015 378.117L229.014 377.898L227.37 374.665L230.479 372.939C230.479 372.939 231.424 373.843 232.821 373.35C234.218 372.857 235.369 370.802 235.492 370.72C235.615 370.638 237.67 369.816 239.026 369.159C240.382 368.501 249.545 362.79 255.586 356.749C261.626 350.709 278.433 331.765 283.692 317.219C286.57 309.738 285.256 303.328 282.708 300.534ZM219.702 350.939C219.702 350.939 213.675 338.666 217.401 307.656C217.401 307.656 225.619 314.888 238.111 322.887L219.702 350.939Z" fill="black"/>
<path d="M237.299 368.737L238.049 370.527L232.277 375.606L229.68 372.258L237.299 368.737Z" fill="black"/>
<path d="M232.848 316.688L259.92 281.375C259.92 281.375 249.017 270.847 231.433 262.758C213.849 254.669 216.195 256.755 213.886 257.217C211.577 257.679 207.883 256.409 205.343 254.331C202.803 252.253 198.297 251.907 198.297 251.907L191.618 286.655L172.673 277.502L165.462 295.019H160.09L153.51 276.958L135.039 286.771L132.268 271.187L109.313 255.894C109.313 255.894 106.1 256.675 100.769 258.655C104.406 268.211 116.296 299.533 117.144 302.833V302.835C119.132 309.416 121.083 321.516 118.457 340.775C118.172 342.485 117.897 344.279 117.636 346.107C117.519 346.801 117.414 347.476 117.285 348.186C117.309 348.174 117.329 348.164 117.353 348.153C116.226 356.515 115.454 365.103 115.571 368.739C115.725 373.525 114.06 376.983 118.51 379.102C121.457 380.506 129.868 381.531 135.213 382.064C133.843 382.394 132.153 382.591 130.067 382.608C130.074 384.896 128.533 385.473 128.533 385.473H138.801C138.801 385.473 164.428 391.13 183.038 388.359C201.648 385.588 219.262 381.976 219.262 381.976V379.1C219.262 379.1 209.343 382.126 202.173 383.428C195.004 384.73 193.707 383.911 192.066 381.975C191.72 383.624 187.448 384.433 183.062 382.47C178.675 380.508 180.124 374.62 185.749 369.425C191.374 364.23 196.267 360.074 196.267 360.074C196.267 360.074 194.574 359.151 194.128 359.728C193.682 360.305 186.641 367.578 182.716 363.538C178.791 359.498 180.836 354.386 184.835 350.939C188.834 347.492 194.566 343.336 198.569 344.952C202.572 346.568 211.807 350.724 214.231 351.532C216.655 352.34 218.04 352.34 218.04 352.34C218.04 352.34 210.767 332.898 216.424 305.332C222.082 308.703 232.848 316.688 232.848 316.688Z" fill="#0F4C81"/>
<path d="M165.462 295.018V384.657H160.74L160.09 295.018H165.462Z" fill="black"/>
<path d="M133.896 381.697C133.896 381.697 173.135 387.618 195.101 382.247C199.646 383.781 202.175 383.429 202.175 383.429C202.175 383.429 202.932 385.066 202.175 385.211C201.419 385.357 165.396 391.592 129.304 383.395C127.689 383.201 129.859 381.837 133.896 381.697Z" fill="black"/>
<path d="M258.875 280.481C258.875 280.481 231.59 284.426 232.083 315.984C238.329 320.093 241.123 321.572 241.123 322.887C241.123 324.202 224.029 349.021 224.029 349.021C224.029 349.021 221.399 355.267 215.646 353.952C209.893 352.637 199.538 348.199 197.401 347.542C195.264 346.885 192.634 348.199 187.046 352.144C181.458 356.089 182.444 360.855 185.567 362.006C188.69 363.157 192.635 356.746 194.607 356.911C196.579 357.075 201.182 358.39 199.702 360.034C198.223 361.678 187.539 369.238 185.074 373.183C182.609 377.128 182.609 379.265 184.91 380.415C187.211 381.566 189.841 381.73 190.992 379.1C192.143 376.47 195.265 370.717 201.676 368.909C208.086 367.101 207.758 368.745 206.936 369.895C206.114 371.046 198.06 372.689 195.431 375.319C192.801 377.949 192.637 381.261 195.924 381.906C199.211 382.551 211.867 378.442 217.127 377.127C222.387 375.812 226.825 373.675 229.126 371.374C231.427 369.073 228.797 370.552 231.263 370.881C233.728 371.21 243.426 363.978 253.288 355.759C263.15 347.541 281.887 321.078 282.545 312.531C283.202 303.984 281.066 302.012 274.162 294.78C267.258 287.549 258.875 280.481 258.875 280.481Z" fill="#9EA7B6"/>
<path d="M258.875 280.481C258.875 280.481 231.59 284.426 232.083 315.984C238.329 320.093 241.123 321.572 241.123 322.887C241.123 324.202 224.029 349.021 224.029 349.021C224.029 349.021 221.399 355.267 215.646 353.952C209.893 352.637 199.538 348.199 197.401 347.542C195.264 346.885 192.634 348.199 187.046 352.144C181.458 356.089 182.444 360.855 185.567 362.006C188.69 363.157 192.635 356.746 194.607 356.911C196.579 357.075 201.182 358.39 199.702 360.034C198.223 361.678 187.539 369.238 185.074 373.183C182.609 377.128 182.609 379.265 184.91 380.415C187.211 381.566 189.841 381.73 190.992 379.1C192.143 376.47 195.265 370.717 201.676 368.909C208.086 367.101 207.758 368.745 206.936 369.895C206.114 371.046 198.06 372.689 195.431 375.319C192.801 377.949 192.637 381.261 195.924 381.906C199.211 382.551 211.867 378.442 217.127 377.127C222.387 375.812 226.825 373.675 229.126 371.374C231.427 369.073 228.797 370.552 231.263 370.881C233.728 371.21 243.426 363.978 253.288 355.759C263.15 347.541 281.887 321.078 282.545 312.531C283.202 303.984 281.066 302.012 274.162 294.78C267.258 287.549 258.875 280.481 258.875 280.481Z" fill="#9EA7B6"/>
<path d="M258.875 280.481C258.875 280.481 225.235 276.557 232.083 315.984C238.329 320.093 241.123 321.572 241.123 322.887C241.123 324.202 224.029 349.021 224.029 349.021C224.029 349.021 223.123 351.148 221.23 352.658L233.185 370.386C237.126 368.645 245.144 362.545 253.286 355.76C263.148 347.542 281.885 321.079 282.543 312.532C283.2 303.985 281.064 302.013 274.16 294.781C267.258 287.549 258.875 280.481 258.875 280.481Z" fill="#0F4C81"/>
<path d="M162.776 301.031L161.078 293.466L154.668 274.564L135.766 284.015L128.534 240.705H131.657L157.298 272.428L163.215 288.864L169.296 271.77L199.046 238.075L190.171 283.933L172.09 275.222L162.776 301.031Z" fill="white"/>
<path d="M132.972 246.622L156.805 274.564L161.9 291.822L163.79 290.836L171.762 272.263L197.953 239.314C197.953 239.314 149.408 234.13 132.972 246.622Z" fill="#9EA7B6"/>
<path d="M185.584 254.875L183.039 254.369L169.633 271.685L162.784 289.002L158.551 273.379L153.01 266.606L150.608 267.3L156.805 274.564L161.9 291.822L163.79 290.836L171.762 272.263L185.584 254.875Z" fill="black"/>
<path d="M119.22 383.922C119.22 383.922 124.48 385.127 126.562 384.799C128.644 384.47 130.068 382.607 130.068 382.607C130.068 382.607 144.094 386.004 169.187 386.661C194.28 387.318 219.263 379.1 219.263 379.1V386.698C219.263 386.698 214.003 389.126 204.47 387.482C204.47 387.482 208.579 392.577 219.263 389.454V467.2H187.541L178.83 396.687C178.83 396.687 183.925 396.358 187.213 400.632C187.213 400.632 184.748 393.071 171.927 392.907C159.106 392.743 154.997 398.495 154.997 398.495C154.997 398.495 161.407 396.194 164.366 396.029L143.82 468.514H111.111L118.836 388.961C118.836 388.961 134.122 394.056 137.902 387.317C133.957 388.961 127.054 388.632 119 386.002L119.22 383.922Z" fill="#2E3235"/>
<path d="M107.276 471.364C107.276 471.364 107.933 469.939 112.536 470.159C117.139 470.379 143.985 470.465 144.971 470.75C145.957 471.035 146.396 472.898 146.505 475.309C146.615 477.72 146.505 478.158 146.505 478.158C146.505 478.158 147.272 479.692 147.272 481.007C147.272 482.322 146.724 487.691 146.724 487.691C146.724 487.691 147.053 490.321 143.875 490.321C140.697 490.321 87.553 490.321 86.238 490.321C84.923 490.321 85.033 487.582 85.033 484.733C85.033 481.884 85.029 480.898 85.031 478.487C85.033 476.076 88.211 473.008 92.046 473.118C95.881 473.228 108.154 473.666 113.961 473.666C119.768 473.666 126.672 475.419 129.521 481.665C129.521 481.665 130.069 475.529 122.837 473.556C115.604 471.583 107.276 471.364 107.276 471.364Z" fill="#1A1A1A"/>
<path d="M224.358 471.145C224.358 471.145 224.933 470.136 220.002 470.136C215.071 470.136 190.745 470.136 187.622 470.136C184.499 470.136 184.663 471.063 184.663 472.789C184.663 474.515 184.906 475.254 184.661 476.076C184.416 476.898 183.676 480.35 183.923 484.376C184.17 488.403 184.909 490.951 186.142 490.951C187.375 490.951 241.286 490.951 243.834 490.951C246.382 490.951 246.217 489.061 246.217 487.828C246.217 486.595 246.217 482.322 246.217 479.692C246.217 477.062 244.409 473.61 241.122 473.282C237.835 472.953 228.302 473.118 222.056 473.611C215.81 474.104 206.524 473.611 202.332 481.747C202.989 477.967 205.126 474.022 213.509 472.789C221.892 471.556 224.193 472.131 224.193 472.131L224.358 471.145Z" fill="#1A1A1A"/>
<path d="M298.06 161.251L298.415 161.54L294.119 152.938L293.667 151.986C287.419 138.807 278.506 133.524 273.086 131.446C278.475 126.287 279.17 120.452 278.658 116.161C278.114 111.473 276.048 108.053 275.96 107.91L273.719 103.999L273.626 104.211L273.62 104.199L271.87 108.247C271.861 108.266 271.015 110.19 269.525 112.083L271.324 113.499L269.444 112.186C269.334 112.323 269.219 112.459 269.103 112.594L268.646 113.101C267.09 114.733 265.514 115.562 263.903 115.562C263.892 115.562 263.88 115.562 263.869 115.562C263.702 115.558 263.533 115.544 263.363 115.522L262.894 115.442C262.747 115.407 262.598 115.365 262.449 115.317L262.237 115.245C262.056 115.179 261.872 115.106 261.689 115.021L260.714 117.093L261.55 114.952C261.058 114.71 260.564 114.405 260.051 114.025C259.769 113.813 259.481 113.58 259.187 113.319C258.235 112.476 257.258 111.394 256.28 110.104L255.986 109.714C254.459 107.639 252.906 105.016 251.358 101.909L251.375 101.9C251.311 101.755 251.241 101.609 251.169 101.464L251.017 101.142C239.751 77.9391 223.703 66.6541 215.739 62.2091C215.817 61.9391 215.862 61.7571 215.873 61.7101L215.99 61.2171L215.889 60.7211C215.842 60.4881 210.883 37.3971 189.384 37.1551C185.298 37.1071 181.213 37.8761 177.231 39.4321C172.036 35.6531 169.025 31.1921 168.271 26.1581C166.871 16.7901 173.673 8.24308 173.739 8.16008L176.778 4.42508C176.778 4.42508 155.055 3.22008 147.304 25.7441C138.573 12.8861 126.68 8.04708 119.764 6.24908C119.515 6.18508 119.275 6.12408 119.06 6.07408L118.361 5.91208C116.266 5.44608 114.95 5.32708 114.894 5.32208L108.957 4.80208L113.019 9.16308C119.529 16.1511 124.247 23.0521 127.075 29.7121L126.812 29.8371C130.653 38.8681 130.099 45.3771 129.311 48.6971C124.589 45.8961 119.368 44.3171 113.758 43.9971C98.418 43.1471 92.946 58.3711 92.194 66.5461L92.15 67.0221L92.301 67.4761C92.546 68.2141 93.064 69.5461 93.91 70.6591C89.836 74.2071 85.905 78.5331 82.198 83.5551L78.362 88.7501L78.768 88.6451C67.811 105.459 62.038 124.107 59.953 131.851C59.854 132.22 59.745 132.591 59.621 132.984L59.276 133.983C58.35 136.665 57.133 138.859 55.661 140.5C55.483 140.698 55.301 140.882 55.114 141.065L54.999 141.184C49.448 146.477 41.999 143.475 41.694 143.348L36.01 140.993L36.048 141.07L36.02 141.058L38.719 146.517C42.986 155.144 48.153 157.456 52.039 157.736C45.788 166.995 46.45 178.198 46.482 178.69L47.041 187.109L50.103 180.985L50.829 179.607C52.329 176.763 54.854 174.408 57.285 172.629C49.707 190.711 56.219 207.533 56.538 208.329L61.473 220.761L60.981 207.398C60.89 204.931 61.654 202.19 62.747 199.585C62.962 216.658 75.837 229.894 76.515 230.579L86.596 240.757L81.25 230.065L80.232 227.93C80.157 227.773 80.04 227.477 79.917 226.977C79.774 226.386 79.657 225.685 79.562 224.909C84.506 234.951 91.496 243.107 91.922 243.6L95.818 248.045L95.82 247.958L95.872 248.018L95.928 245.335C101.657 253.926 109.127 258.719 110.587 259.604C115.85 265.483 120.698 269.388 124.993 271.212C126.883 272.022 128.664 272.427 130.323 272.427C131.956 272.427 133.471 272.035 134.858 271.25C137.249 269.898 139.068 267.453 140.297 263.949C141.422 265.417 142.824 266.733 144.557 267.604C147.592 269.141 151.11 269.038 154.722 267.313C156.98 266.246 159.386 264.496 161.872 262.113C162.416 261.592 162.952 261.075 163.483 260.561L164.158 260.443C193.549 255.56 208.369 246.238 215.827 238.368C215.312 239.734 214.933 240.59 214.92 240.617L212.836 245.287L212.867 245.277L212.831 245.36L216.92 244L217.74 243.741C228.667 240.287 235.876 234.616 240.635 228.653L239.863 230.737L245.193 227.542L245.394 227.431C263.608 217.429 266.5 203.68 266.033 194.599C267.818 198.642 268.814 202.077 268.834 202.142L270.179 206.965L272.971 202.784C280.808 191.04 278.391 179.65 276.073 173.614C283.087 176.015 285.142 181.148 285.235 181.391L288.973 191.527L289.008 190.989L289.016 191.006L289.056 190.403L289.69 191.907V180.891L289.699 180.756C289.981 176.526 289.478 172.426 288.205 168.576C287.721 167.101 287.138 165.708 286.479 164.391L286.249 163.243L286.208 163.86C282.729 157.217 277.355 152.617 273.238 149.827C273.656 149.805 274.072 149.791 274.486 149.787C284.047 149.692 290.021 154.7 290.072 154.744L297.83 161.459L297.605 160.952L298.122 161.383L298.06 161.251Z" fill="black"/>
<path d="M130.742 52.208C130.742 52.208 140.156 34.914 114.695 7.60599C114.695 7.60599 137.047 9.49199 148.742 32.763C148.742 32.763 148.892 12.839 171.925 6.71899C171.925 6.71899 154.914 27.583 177.266 42.275C177.266 42.275 198.081 31.474 210.373 62.126C210.373 62.126 234.013 71.414 248.904 102.117C263.798 132.849 274.008 109.107 274.008 109.107C274.008 109.107 282.521 123.009 268.087 132.423C268.087 132.423 282.681 134.159 291.598 152.969C291.598 152.969 281.814 144.491 266.448 148.585C266.448 148.585 288.898 158.072 287.399 180.578C287.399 180.578 284.213 171.849 271.946 170.291C271.946 170.291 281.733 185.503 271.055 201.462C271.055 201.462 267.192 187.937 260.59 182.086C260.59 182.086 274.527 208.773 244.292 225.375C244.292 225.375 248.805 213.307 247.561 204.585C247.561 204.585 247.39 231.893 217.039 241.51C217.039 241.51 221.248 232.117 221.004 224.908C221.004 224.908 217.783 249.167 163.76 258.134C163.76 258.134 179.468 243.32 182.221 235.611L112.019 257.715C112.019 257.715 99.2099 250.355 93.806 236.233L93.694 242.053C93.694 242.053 78.775 224.808 77.137 209.893C77.137 209.893 76.187 224.763 78.167 228.923C78.167 228.923 58.515 209.121 67.388 187.314C67.388 187.314 58.348 198.638 58.68 207.441C58.68 207.441 50.3139 186.448 63.0149 166.653C63.0149 166.653 52.843 170.834 48.805 178.519C48.805 178.519 47.712 162.039 59.284 153.366C59.284 153.366 48.7559 161.571 40.799 145.465C40.799 145.465 56.846 152.273 62.162 132.454C67.503 112.631 79.334 84.925 98.014 70.306C98.016 70.301 109.117 40.37 130.742 52.208Z" fill="#ADB5C0"/>
<path d="M268.046 132.477C282.479 123.056 273.97 109.158 273.97 109.158C273.97 109.158 264.232 131.807 249.872 104.149C255.52 117.087 247.109 131.059 228.093 121.796C208.095 112.078 189.408 124.297 174.877 141.273C160.364 158.245 120.694 114.16 82.0329 134.902C66.2029 143.408 61.819 140.732 61.442 134.735C55.57 151.756 40.7729 145.507 40.7729 145.507C48.7299 161.596 59.2649 153.391 59.2649 153.391C47.6749 162.088 48.768 178.544 48.768 178.544C52.82 170.86 63.0019 166.671 63.0019 166.671C50.2909 186.473 58.667 207.487 58.667 207.487C58.321 198.664 67.3539 187.339 67.3539 187.339C58.5029 209.146 78.1439 228.972 78.1439 228.972C76.1629 224.805 77.121 209.911 77.121 209.911C78.738 224.854 93.6569 242.106 93.6569 242.106L93.7829 236.28C99.1829 250.381 111.971 257.765 111.971 257.765L182.194 235.662C179.445 243.339 163.737 258.188 163.737 258.188C217.756 249.214 220.977 224.928 220.977 224.928C221.228 232.193 217.013 241.558 217.013 241.558C247.371 231.942 247.542 204.64 247.542 204.64C248.782 213.334 244.272 225.424 244.272 225.424C274.504 208.822 260.549 182.135 260.549 182.135C267.168 187.954 271.035 201.514 271.035 201.514C281.713 185.53 271.926 170.335 271.926 170.335C284.19 171.876 287.386 180.604 287.386 180.604C288.878 158.126 266.425 148.611 266.425 148.611C281.787 144.517 291.575 153.016 291.575 153.016C282.657 134.21 268.046 132.477 268.046 132.477Z" fill="#9EA7B6"/>
<path d="M248.956 102.144C234.034 71.412 210.421 62.125 210.421 62.125C204.277 46.78 195.988 41.827 189.236 40.716C182.617 39.598 177.489 42.18 177.29 42.274C154.987 27.558 171.963 6.71802 171.963 6.71802C171.949 6.71802 171.924 6.73902 171.924 6.73902V6.71802C149.66 12.642 148.765 31.445 148.741 32.685C138.866 13.11 121.45 8.72302 116.245 7.82902C115.267 7.66102 114.694 7.60602 114.694 7.60602C139.969 34.739 130.877 51.967 130.741 52.191C128.051 50.727 125.522 49.906 123.168 49.589C106.513 47.332 98.015 70.303 98.015 70.303C98.043 70.275 98.043 70.258 98.078 70.202C98.068 70.258 98.043 70.303 98.043 70.303C92.961 74.296 88.378 79.277 84.288 84.799C84.375 84.771 84.417 84.771 84.417 84.771C84.417 84.771 88.811 79.175 99.304 72.262L93.037 81.33C93.037 81.33 100.991 75.06 110.404 74.714C117.282 80.432 122.078 95.675 122.078 95.675L122.228 144.612C122.228 144.612 181.008 184.464 163.833 142.188C152.952 115.452 163.76 91.885 173.159 78.182L192.255 77.141L198.476 76.767C198.476 76.767 199.377 70.574 196.219 66.637C196.219 66.637 213.936 74.238 224.17 85.691L219.339 75.506C219.339 75.506 235.309 78.828 247.936 100.68C248.429 101.55 248.879 102.238 249.27 102.814C249.176 102.591 249.054 102.367 248.956 102.144Z" fill="#D9DCE1"/>
<path d="M268.087 132.477C282.534 123.056 274.008 109.158 274.008 109.158C274.008 109.158 266.278 127.094 254.454 111.488C254.579 112.106 254.73 112.725 254.852 113.319C257.5 126.012 269.82 122.561 269.82 122.561C269.82 122.561 262.834 132.132 251.503 125.485C251.503 125.485 255.691 148.462 269.101 157.502C269.101 157.502 264.169 160.178 255.174 153.391C259.879 157.775 268.333 167.667 270.491 183.749C270.491 183.749 260.875 166.522 248.174 161.317C248.174 161.317 261.493 174.531 255.537 199.803C255.537 199.803 253.549 183.449 244.726 177.703C244.726 177.703 248.646 201.462 230.667 219.602C230.667 219.602 237.58 204.463 232.787 192.322C232.787 192.322 227.32 211.897 205.786 227.242C205.786 227.242 222.601 202.602 221.152 185.354C221.152 185.354 202.765 223.568 177.986 226.666C153.206 229.789 88.058 175.525 88.058 175.525C88.058 175.525 83.014 194.551 84.687 213.606C84.687 213.606 78.469 195.1 80.747 177.677C80.747 177.677 75.12 187.416 74.281 197.105C74.281 197.105 71.752 174.9 82.119 161.672C82.119 161.672 73.488 166.402 66.264 177.502C66.264 177.502 71.629 156.394 80.079 147.888C80.079 147.888 67.895 155.304 61.441 160.603C61.441 160.603 61.755 151.808 69.3 144.074C69.3 144.074 51.21 158.001 40.829 145.51C48.768 161.599 59.286 153.394 59.286 153.394C47.742 162.091 48.807 178.547 48.807 178.547C52.845 170.89 63.031 166.674 63.031 166.674C50.334 186.476 58.696 207.49 58.696 207.49C58.371 198.667 67.39 187.342 67.39 187.342C58.532 209.177 78.183 228.996 78.183 228.996C76.213 224.808 77.152 209.942 77.152 209.942C78.79 224.857 93.709 242.109 93.709 242.109L93.831 236.283C99.221 250.384 112.019 257.768 112.019 257.768L182.221 235.665C179.493 243.371 163.785 258.191 163.785 258.191C217.805 249.217 221.025 224.931 221.025 224.931C221.248 232.196 217.05 241.561 217.05 241.561C247.391 231.973 247.579 204.643 247.579 204.643C248.826 213.337 244.292 225.427 244.292 225.427C274.527 208.825 260.601 182.138 260.601 182.138C267.203 187.957 271.066 201.517 271.066 201.517C281.734 185.533 271.974 170.338 271.974 170.338C284.241 171.906 287.413 180.607 287.413 180.607C288.908 158.129 266.458 148.614 266.458 148.614C281.813 144.52 291.597 153.019 291.597 153.019C282.681 134.21 268.087 132.477 268.087 132.477Z" fill="#747A86"/>
<path d="M248.68 102.266C233.786 71.5421 210.163 62.2461 210.163 62.2461C204.001 46.9091 195.726 41.9481 188.971 40.8381C182.372 39.7201 177.213 42.3021 177.032 42.3961C154.729 27.7041 171.712 6.86206 171.712 6.86206H171.642C148.001 37.9391 175.83 37.2201 167.43 43.1161C159.012 49.0191 149.238 64.8741 155.061 64.9751C160.887 65.1251 147.851 70.0331 145.658 87.7251C143.838 102.591 137.743 127.021 138.438 99.4411C139.13 71.9091 115.663 61.6011 106.84 69.3141C98.0059 77.0201 98.2059 67.3301 104.266 62.5241C110.312 57.7141 116.478 53.2081 134.544 62.8981C151.111 71.7871 138.683 47.4521 128.92 28.9461C135.117 43.5151 130.579 52.1361 130.485 52.3111C127.781 50.8471 125.252 50.0091 122.898 49.7121C106.247 47.4801 97.7479 70.4041 97.7479 70.4041C97.7479 70.4041 97.7929 70.3801 97.8209 70.3521C97.8069 70.4041 97.7929 70.4251 97.7929 70.4251C92.6939 74.4181 88.1179 79.3991 84.0409 84.9211C84.1209 84.9001 84.1669 84.9001 84.1669 84.9001C84.1669 84.9001 88.5509 79.2971 99.0469 72.3851L92.7669 81.4491C92.7669 81.4491 100.72 75.1821 110.134 74.8091C117.026 80.5621 121.822 95.8231 121.822 95.8231L121.965 144.742C121.965 144.742 180.745 184.587 163.56 142.29C152.707 115.575 163.49 92.0081 172.904 78.2811L192.011 77.2641L198.204 76.8971C198.204 76.8971 199.122 70.6971 195.972 66.7321C195.972 66.7321 213.668 74.3401 223.916 85.8421L219.071 75.6281C219.071 75.6281 235.052 78.9501 247.665 100.83C248.165 101.676 248.608 102.367 249.031 102.936C248.904 102.713 248.806 102.489 248.68 102.266Z" fill="#CDD0D7"/>
<path d="M204.571 104.97C203.163 127.664 189.181 145.311 173.34 144.35C157.489 143.351 145.773 124.147 147.156 101.428C148.571 78.7271 162.543 61.1081 178.38 62.0761C194.238 63.0431 205.947 82.2411 204.571 104.97Z" fill="url(#paint0_radial_151_298)"/>
<path d="M203.928 105.141C202.741 121.621 193.026 145.657 172.791 143.875C153.377 142.188 147.009 116.986 147.778 101.278C148.598 84.7491 158.98 60.7631 178.922 62.4951C198.353 64.2031 204.721 89.4051 203.928 105.141C203.928 105.56 205.168 105.141 205.182 104.767C205.985 88.4901 199.073 62.4951 178.754 61.7301C162.25 61.0871 151.84 76.9181 148.127 91.1661C143.492 108.956 147.582 135.621 166.797 143.351C181.775 149.398 195.168 136.096 200.784 123.577C203.432 117.656 204.721 111.212 205.182 104.767C205.217 104.348 203.956 104.767 203.928 105.141Z" fill="#1A0000"/>
<path d="M178.38 62.0752C174.876 61.8522 171.481 62.5432 168.268 64.0062C170.5 63.2622 172.802 62.9162 175.156 63.0632C189.208 63.9332 199.568 80.9332 198.353 101.053C197.116 121.152 184.723 136.759 170.699 135.889C156.661 135.023 146.29 118.054 147.516 97.9302C147.541 97.5842 147.593 97.2382 147.617 96.8932C147.418 98.3772 147.257 99.9142 147.156 101.427C145.773 124.146 157.489 143.35 173.326 144.349C189.181 145.31 203.163 127.663 204.547 104.969C205.947 82.2412 194.238 63.0432 178.38 62.0752Z" fill="#DADADA"/>
<path d="M186.135 96.1951C183.487 111.191 173.375 121.918 163.574 120.185C153.786 118.421 148.002 104.868 150.674 89.9011C153.329 74.9091 163.438 64.1821 173.228 65.9181C183.015 67.6541 188.803 81.2061 186.135 96.1951Z" fill="#1A1A1A"/>
<path d="M180.609 99.5171C179.149 110.296 172.233 118.253 165.187 117.31C158.138 116.342 153.625 106.827 155.089 96.0451C156.549 85.2441 163.451 77.2631 170.5 78.2581C177.563 79.1981 182.072 88.7411 180.609 99.5171Z" fill="url(#paint1_radial_151_298)"/>
<path d="M185.198 84.155C186.008 90.747 183.448 96.472 179.483 96.961C175.504 97.464 171.631 92.529 170.824 85.937C170.003 79.349 172.567 73.596 176.545 73.1C180.507 72.607 184.402 77.56 185.198 84.155Z" fill="white"/>
<path d="M136.551 108.162C135.377 127.244 123.616 142.065 110.311 141.244C96.978 140.43 87.142 124.296 88.302 105.193C89.479 86.1113 101.24 71.3183 114.545 72.1393C127.864 72.9533 137.7 89.0873 136.551 108.162Z" fill="url(#paint2_radial_151_298)"/>
<path d="M136.02 108.312C134.965 122.263 126.812 142.435 109.686 140.877C93.444 139.385 88.218 118.176 88.822 105.063C89.479 91.0912 98.316 70.9922 115.156 72.5292C131.399 73.9932 136.624 95.1792 136.02 108.312C135.982 108.683 137.047 108.337 137.061 108.019C137.766 93.0512 130.777 70.4722 112.02 71.8882C96.259 73.1002 88.774 92.0082 87.786 105.365C86.668 120.333 94.353 142.904 112.824 141.497C128.602 140.278 136.056 121.377 137.062 108.02C137.096 107.666 136.055 107.991 136.02 108.312Z" fill="#1A0000"/>
<path d="M114.545 72.1392C111.597 71.9362 108.736 72.5302 106.047 73.7462C107.919 73.1282 109.851 72.8312 111.845 72.9772C123.641 73.6692 132.349 87.9692 131.325 104.869C130.281 121.768 119.872 134.902 108.079 134.158C96.283 133.439 87.561 119.149 88.606 102.239C88.627 101.97 88.662 101.677 88.676 101.401C88.519 102.641 88.379 103.902 88.302 105.195C87.142 124.298 96.979 140.432 110.298 141.246C123.617 142.067 135.378 127.246 136.552 108.164C137.7 89.0872 127.864 72.9532 114.545 72.1392Z" fill="#DADADA"/>
<path d="M121.063 100.809C118.835 113.394 110.336 122.441 102.106 120.957C93.876 119.511 89.011 108.089 91.253 95.5311C93.485 82.9141 101.97 73.8742 110.21 75.3552C118.44 76.7952 123.295 88.1921 121.063 100.809Z" fill="#1A1A1A"/>
<path d="M116.41 103.583C115.184 112.648 109.368 119.343 103.458 118.55C97.5241 117.73 93.7301 109.727 94.9671 100.652C96.1971 91.6122 101.981 84.9202 107.919 85.7132C113.854 86.5062 117.644 94.5362 116.41 103.583Z" fill="url(#paint3_radial_151_298)"/>
<path d="M120.27 90.6732C120.962 96.2242 118.806 101.054 115.464 101.445C112.131 101.875 108.859 97.7072 108.181 92.1822C107.5 86.6352 109.666 81.8012 112.988 81.4032C116.33 80.9832 119.603 85.1432 120.27 90.6732Z" fill="white"/>
<path d="M157.17 59.4001C157.17 59.4001 169.483 39.2241 189.358 39.4481C209.257 39.6721 213.645 61.1821 213.645 61.1821C213.645 61.1821 211.626 69.7051 207.993 61.9541C204.35 54.1681 192.676 41.3141 177.838 47.8531C162.979 54.4191 153.946 66.8611 157.17 59.4001Z" fill="#010000"/>
<path d="M138.423 60.3152C138.423 60.3152 130.592 47.2542 113.63 46.2872C96.444 45.3232 94.474 66.7602 94.474 66.7602C94.474 66.7602 96.979 74.3152 99.455 67.2072C101.935 60.0702 111.125 51.5162 120.046 52.9552C131.759 54.8382 141.868 66.8612 138.423 60.3152Z" fill="#010000"/>
<path d="M78.12 137.699C78.12 137.699 78.469 137.185 79.263 136.413C79.633 136.018 80.15 135.571 80.747 135.078C81.379 134.656 82.06 134.079 82.927 133.66C83.346 133.415 83.769 133.167 84.254 132.944C84.736 132.745 85.232 132.521 85.752 132.326C86.262 132.075 86.842 132.001 87.397 131.806C87.98 131.656 88.564 131.478 89.199 131.478C89.817 131.384 90.446 131.338 91.092 131.282C91.721 131.261 92.378 131.31 93.048 131.359L94.026 131.432L95.004 131.683L96.977 132.176C98.165 132.745 99.454 133.168 100.519 133.912C101.054 134.286 101.598 134.656 102.105 135.023L102.849 135.571L103.52 136.217C104.372 137.083 105.218 137.904 105.899 138.743C106.556 139.637 107.125 140.479 107.656 141.272C108.215 142.037 108.575 142.83 108.896 143.528C109.231 144.199 109.49 144.814 109.703 145.31C110.133 146.327 110.342 146.896 110.342 146.896C110.342 146.896 109.888 146.449 109.116 145.684C108.749 145.31 108.302 144.842 107.803 144.273C107.31 143.724 106.765 143.11 106.095 142.512C105.428 141.915 104.733 141.244 104.027 140.524C103.273 139.861 102.382 139.284 101.561 138.568C100.782 137.828 99.716 137.482 98.808 136.811C98.375 136.486 97.844 136.318 97.327 136.095L95.835 135.449L94.239 135.002L93.456 134.778L92.649 134.705C92.122 134.631 91.584 134.555 91.053 134.481C90.522 134.481 89.987 134.509 89.467 134.509C88.95 134.453 88.44 134.582 87.934 134.603C87.424 134.676 86.917 134.676 86.446 134.806C85.478 135.002 84.549 135.201 83.704 135.469C82.852 135.693 82.108 136.017 81.402 136.217C80.745 136.542 80.113 136.737 79.655 136.961C78.665 137.409 78.12 137.699 78.12 137.699Z" fill="#010000"/>
<path d="M182.987 144.144C182.987 144.144 184.353 141.196 187.325 137.431C188.069 136.442 188.911 135.451 189.836 134.434C190.769 133.439 191.772 132.349 192.914 131.36C195.122 129.278 197.735 127.319 200.56 125.66C201.957 124.818 203.459 124.13 204.944 123.505C206.453 122.862 207.993 122.443 209.502 122.069C211.014 121.696 212.527 121.528 213.963 121.472C215.378 121.398 216.74 121.5 217.956 121.674C218.56 121.796 219.144 121.845 219.688 121.992C220.237 122.142 220.729 122.292 221.229 122.442C222.169 122.711 222.962 123.085 223.608 123.354C224.869 124.025 225.526 124.42 225.526 124.42C225.526 124.42 224.743 124.298 223.395 124.025C222.71 123.924 221.896 123.823 220.953 123.749C220.024 123.682 218.973 123.627 217.834 123.682C216.706 123.7 215.486 123.85 214.215 124.045C212.947 124.275 211.634 124.614 210.296 125.016C209.628 125.212 208.969 125.484 208.291 125.732C207.62 126.011 206.953 126.284 206.283 126.574C204.92 127.196 203.583 127.866 202.294 128.659C200.967 129.379 199.692 130.22 198.451 131.059C197.239 131.953 195.999 132.774 194.874 133.689C192.583 135.45 190.522 137.206 188.789 138.771C185.292 141.887 182.987 144.144 182.987 144.144Z" fill="#010000"/>
<path d="M173.92 140.277C169.361 135.694 143.468 116.444 110.78 136.738C78.12 157.032 87.387 207.681 93.933 227.333C100.448 246.985 136.38 293.547 139.129 254.121C139.129 254.121 143.394 275.757 159.846 259.996C178.554 242.077 196.271 220.693 204.312 193.112C215.165 155.869 196.386 134.303 186.309 139.435C178.813 143.229 181.503 147.94 173.92 140.277Z" fill="#212129"/>
<path d="M153.747 265.246C150.74 266.682 148.001 266.783 145.594 265.564C142.349 263.933 140.442 260.237 139.436 257.54C137.966 268.222 133.135 272.211 125.897 269.109C113.814 263.978 97.523 240.267 93.307 227.528C85.046 202.672 79.363 155.495 110.433 136.189C112.69 134.778 114.991 133.538 117.269 132.448C145.052 119.269 167.925 133.314 174.387 139.86C177.995 143.479 179.008 143.974 179.721 143.65C180.091 143.451 180.507 143.053 181.056 142.511C182.072 141.522 183.473 140.132 186.009 138.864L186.187 138.77C189.457 137.205 193.498 138.173 197.263 141.372C206.359 149.123 212.255 168.181 204.944 193.285C196.1 223.636 175.236 246.162 160.293 260.459C157.988 262.672 155.794 264.279 153.747 265.246ZM138.818 249.213L139.775 253.998C139.785 254.092 141.396 262 146.192 264.407C149.685 266.188 154.194 264.501 159.399 259.548C174.22 245.321 194.934 222.973 203.694 192.915C210.851 168.384 205.196 149.843 196.404 142.361C193.065 139.507 189.53 138.62 186.742 139.937C184.227 141.223 182.914 142.512 181.964 143.451C181.342 144.069 180.86 144.544 180.291 144.841C178.663 145.582 177.092 144.443 173.448 140.747C167.178 134.432 144.924 120.777 117.818 133.614C115.589 134.704 113.333 135.916 111.125 137.278C97.125 145.979 89.444 161.146 88.301 182.306C87.41 198.856 90.942 216.304 94.547 227.135C98.69 239.644 114.618 262.893 126.389 267.92C133.612 270.99 137.615 266.261 138.482 254.091L138.818 249.213Z" fill="black"/>
<path d="M182.865 151.409C182.533 151.552 182.149 151.43 181.999 151.112C178.855 144.964 174.566 141.793 174.538 141.765C174.234 141.541 174.168 141.143 174.367 140.878C174.59 140.553 175.009 140.508 175.296 140.731C175.481 140.853 179.854 144.098 183.166 150.515C183.313 150.833 183.201 151.234 182.865 151.381C182.865 151.409 182.865 151.409 182.865 151.409Z" fill="black"/>
<path d="M183.658 159.656C183.361 159.806 183.015 159.729 182.841 159.432C182.642 159.142 182.719 158.713 183.016 158.517C189.283 154.43 190.645 146.896 190.645 146.794C190.722 146.448 191.061 146.204 191.417 146.277C191.763 146.347 192.011 146.672 191.934 147.045C191.885 147.342 190.474 155.222 183.736 159.634C183.71 159.635 183.696 159.656 183.658 159.656Z" fill="black"/>
<path d="M139.454 255.826C139.353 255.882 139.252 255.91 139.154 255.882C138.794 255.882 138.501 255.585 138.522 255.211C138.536 255.061 139.227 238.189 153.028 229.908C163.933 223.414 186.606 209.861 191.587 191.701C198.426 166.744 187.675 154.804 187.577 154.654C187.326 154.406 187.326 154.005 187.595 153.76C187.846 153.509 188.266 153.509 188.517 153.788C188.985 154.284 203.853 169.06 196.804 194.782C191.687 213.438 164.754 224.43 153.699 231.046C140.517 238.926 139.821 255.088 139.821 255.26C139.81 255.529 139.663 255.707 139.454 255.826Z" fill="black"/>
<path opacity="0.2" d="M186.435 139.686C178.939 143.48 181.611 148.185 174.045 140.552C169.483 135.945 143.576 116.712 110.905 137.01C107.607 139.067 104.757 141.418 102.256 144.02C117.94 129.817 157.962 127.048 173.472 157.126C189.529 188.252 140.641 205.375 135.457 237.619C130.256 269.88 108.46 258.951 94.0441 227.601C100.569 247.253 136.501 293.794 139.251 254.417C139.251 254.417 143.502 276.028 159.968 260.264C178.676 242.32 196.393 220.961 204.448 193.362C215.305 156.139 196.519 134.583 186.435 139.686Z" fill="#333333"/>
<path opacity="0.2" d="M197.585 198.463C207.907 171.948 190.969 149.096 190.969 149.096C189.037 154.804 185.185 158.489 185.185 158.489C198.018 180.498 182.555 206.168 165.844 215.61C154.614 221.978 140.663 231.399 137.914 249.537C135.301 266.635 127.169 269.385 121.979 266.311C130.677 272.605 138.288 271.861 139.476 254.567C139.476 254.567 140.419 259.248 143.046 262.643C153.775 270.797 186.693 226.464 197.585 198.463Z" fill="#680000"/>
<path d="M167.133 221.755C162.197 225.224 157.663 227.976 155.113 229.439C147.778 233.554 144.756 238.657 144.756 238.657C148.728 246.684 152.705 245.979 152.705 245.979C155.481 245.575 157.922 244.578 160.036 243.093C164.231 238.19 165.917 228.273 167.133 221.755Z" fill="url(#paint4_linear_151_298)"/>
<path d="M189.181 198.663C189.181 198.663 188.664 199.976 187.676 202.131C188.342 200.965 188.863 199.801 189.181 198.663Z" fill="url(#paint5_linear_151_298)"/>
<path d="M167.133 221.755C165.917 228.273 164.231 238.19 160.036 243.094C208.819 207.113 196.919 173.887 195.65 170.424C194.61 207.596 174.96 216.232 167.133 221.755Z" fill="#900C12"/>
<path opacity="0.5" d="M150.154 245.291C150.154 245.291 152.444 233.99 165.365 230.472L167.132 221.755C167.132 221.755 146.355 233.875 144.902 238.982C144.902 238.982 147.048 243.787 150.154 245.291Z" fill="#FEA900"/>
<path opacity="0.1" d="M89.542 168.329C92.291 156.83 100.695 145.237 110.189 141.747C123.923 136.637 135.164 151.234 138.385 166.67C139.328 171.232 139.971 176.604 139.747 181.166C139.303 189.249 137.69 198.317 135.276 205.701C131.472 217.343 124.93 237.267 113.581 240.691C109.428 241.976 103.616 239.001 101.013 234.393C91.362 217.445 84.54 189.176 89.542 168.329Z" fill="#F3F2E4"/>
<path opacity="0.1" d="M89.881 172.395C91.586 165.307 96.769 158.143 102.627 155.988C111.104 152.82 118.042 161.811 120.022 171.378C120.616 174.176 121.028 177.498 120.867 180.324C120.616 185.305 119.603 190.907 118.118 195.463C115.757 202.651 111.719 214.964 104.733 217.074C102.155 217.867 98.585 216.008 96.954 213.183C91.006 202.7 86.793 185.257 89.881 172.395Z" fill="#F3F2E4"/>
<path d="M121.276 11.9961C121.276 11.9961 140.156 28.5181 142.499 51.1741C144.853 73.8471 155.556 48.3481 145.202 33.1081C134.84 17.8191 121.276 11.9961 121.276 11.9961Z" fill="#ADB5C0"/>
<path d="M166.748 10.134C166.748 10.134 145.846 20.812 151.728 36.699C156.472 49.483 159.623 16.876 166.748 10.134Z" fill="#ADB5C0"/>
<path d="M207.223 313.813L201.547 308.557C201.212 309.445 200.315 310.087 199.369 310.167L204.185 316.558C204.92 317.371 206.185 317.435 206.998 316.7L207.08 316.625C207.894 315.891 207.958 314.625 207.223 313.813ZM204.202 315.204C204.018 315.014 203.811 314.785 203.596 314.535C203.49 314.409 203.376 314.282 203.269 314.147C203.161 314.012 203.051 313.876 202.941 313.739C202.835 313.599 202.728 313.46 202.624 313.322C202.518 313.185 202.423 313.044 202.326 312.911C202.135 312.643 201.963 312.387 201.822 312.162C201.537 311.717 201.376 311.396 201.376 311.396C201.376 311.396 201.648 311.629 202.012 312.013C202.196 312.203 202.403 312.431 202.618 312.681C202.724 312.807 202.838 312.934 202.945 313.069C203.053 313.203 203.164 313.34 203.274 313.477C203.38 313.617 203.487 313.756 203.592 313.894C203.698 314.03 203.793 314.171 203.89 314.304C204.081 314.572 204.253 314.828 204.394 315.052C204.679 315.498 204.839 315.818 204.839 315.818C204.839 315.818 204.567 315.588 204.202 315.204Z" fill="white"/>
<path d="M202.412 295.916C202.412 297.269 201.315 298.366 199.962 298.366C198.609 298.366 197.512 297.269 197.512 295.916C197.512 294.563 198.609 293.466 199.962 293.466C201.315 293.466 202.412 294.563 202.412 295.916Z" fill="white"/>
<path d="M192.259 304.702H201.05C201.025 306.447 200.891 307.569 200.649 308.066C200.406 308.564 199.84 308.887 198.951 309.035C197.971 309.2 196.453 309.282 194.395 309.282C190.674 309.282 188.263 309.196 187.16 309.023C186.6 308.933 186.18 308.774 185.901 308.548C185.621 308.322 185.415 307.974 185.284 307.505C185.078 306.715 184.975 305.056 184.975 302.529C184.975 300.834 185.035 299.601 185.154 298.831C185.273 298.062 185.489 297.529 185.802 297.232C186.139 296.911 186.827 296.689 187.864 296.565C188.901 296.442 190.601 296.38 192.963 296.38C194.307 296.38 195.487 296.403 196.503 296.449C196.476 296.275 196.458 296.098 196.458 295.916C196.458 295.396 196.574 294.904 196.778 294.46C196.682 294.456 196.589 294.451 196.489 294.447C195.044 294.385 193.742 294.354 192.581 294.354C189.05 294.354 186.681 294.547 185.476 294.934C184.27 295.321 183.507 296.136 183.186 297.379C182.848 298.688 182.68 300.511 182.68 302.848C182.68 306.215 182.989 308.388 183.606 309.367C184.157 310.24 185.05 310.775 186.285 310.972C187.701 311.194 190.117 311.305 193.533 311.305C197.163 311.305 199.496 311.136 200.533 310.799C201.299 310.544 201.866 310.198 202.237 309.762C202.607 309.326 202.879 308.676 203.052 307.811C203.208 307.029 203.295 305.334 203.311 302.724H192.261V304.702H192.259Z" fill="white"/>
<path d="M103.863 144.144C82.486 144.144 65.094 123.884 65.094 98.9802C65.094 74.0762 82.486 53.8162 103.863 53.8162C125.24 53.8162 142.632 74.0772 142.632 98.9802C142.632 123.883 125.24 144.144 103.863 144.144ZM103.863 57.5532C84.65 57.5532 69.019 76.1372 69.019 98.9802C69.019 121.822 84.65 140.406 103.863 140.406C123.076 140.406 138.707 121.822 138.707 98.9802C138.707 76.1372 123.076 57.5532 103.863 57.5532Z" fill="#010000"/>
<path d="M181.477 142.655C160.1 142.655 142.708 122.395 142.708 97.4911C142.708 72.5871 160.1 52.3271 181.477 52.3271C202.854 52.3271 220.245 72.5871 220.245 97.4911C220.245 122.395 202.854 142.655 181.477 142.655ZM181.477 56.0651C162.264 56.0651 146.633 74.6491 146.633 97.4911C146.633 120.333 162.264 138.917 181.477 138.917C200.69 138.917 216.32 120.333 216.32 97.4911C216.32 74.6491 200.69 56.0651 181.477 56.0651Z" fill="#010000"/>
<path d="M212.525 74.9712H231.534L228.522 72.6782L210.13 71.1792L212.525 74.9712Z" fill="#010000"/>
<path d="M75.29 71.1792L92.479 73.2092L89.283 76.0452H73.751L75.29 71.1792Z" fill="#010000"/>
<path opacity="0.17" d="M138.042 91.5742L98.17 139.619C99.981 139.966 101.837 140.153 103.73 140.153C106.826 140.153 109.827 139.664 112.686 138.759L137.433 109.241C138.175 105.882 138.573 102.359 138.573 98.7272C138.573 96.2872 138.384 93.8992 138.042 91.5742ZM117.493 60.6772L71.917 115.595C73.296 119.257 75.108 122.637 77.277 125.646L126.285 67.1893C123.659 64.5303 120.702 62.3242 117.493 60.6772ZM129.146 70.4322L81.064 130.15C81.642 130.74 82.23 131.314 82.839 131.859L130.766 72.6323C130.248 71.8753 129.706 71.1442 129.146 70.4322Z" fill="white"/>
<path opacity="0.17" d="M215.79 90.3382L175.918 138.383C177.729 138.73 179.585 138.917 181.478 138.917C184.574 138.917 187.575 138.428 190.434 137.523L215.181 108.005C215.923 104.646 216.321 101.123 216.321 97.4912C216.321 95.0512 216.132 92.6642 215.79 90.3382ZM195.241 59.4412L149.665 114.359C151.044 118.021 152.856 121.401 155.025 124.41L204.033 65.9532C201.407 63.2952 198.45 61.0882 195.241 59.4412ZM206.894 69.1972L158.812 128.915C159.389 129.505 159.978 130.079 160.587 130.624L208.514 71.3972C207.996 70.6402 207.454 69.9082 206.894 69.1972Z" fill="white"/>
<path d="M162.609 300.287V384.325H164.283V295.916L162.609 300.287Z" fill="white"/>
<path d="M165.187 298.833C165.187 299.759 164.436 300.509 163.511 300.509C162.585 300.509 161.835 299.759 161.835 298.833C161.835 297.907 162.586 297.157 163.511 297.157C164.437 297.157 165.187 297.908 165.187 298.833Z" fill="white"/>
<path d="M165.187 319.921C165.187 320.847 164.436 321.597 163.511 321.597C162.585 321.597 161.835 320.847 161.835 319.921C161.835 318.995 162.586 318.245 163.511 318.245C164.437 318.244 165.187 318.995 165.187 319.921Z" fill="white"/>
<path d="M165.187 341.008C165.187 341.934 164.436 342.684 163.511 342.684C162.585 342.684 161.835 341.934 161.835 341.008C161.835 340.082 162.586 339.332 163.511 339.332C164.437 339.332 165.187 340.082 165.187 341.008Z" fill="white"/>
<path d="M165.187 362.095C165.187 363.021 164.436 363.771 163.511 363.771C162.585 363.771 161.835 363.021 161.835 362.095C161.835 361.169 162.586 360.419 163.511 360.419C164.437 360.419 165.187 361.169 165.187 362.095Z" fill="white"/>
<path d="M221.276 351.683L216.687 353.672L232.513 373.528L236.251 370.077L221.276 351.683Z" fill="#0F4C81"/>
<path d="M231.552 367.371C231.552 368.3 232.305 369.053 233.234 369.053C234.163 369.053 234.916 368.3 234.916 367.371C234.916 366.442 234.163 365.689 233.234 365.689C232.305 365.69 231.552 366.443 231.552 367.371Z" fill="white"/>
<path d="M223.536 348.91L240.397 367.833L238.396 369.053L221.772 350.363L223.536 348.91Z" fill="black"/>
<path d="M103.143 259.408L78.8949 244.456C69.4869 234.193 67.2869 230.766 60.1599 220.218C55.1789 212.846 47.6959 203.297 44.6929 193.988L26.9199 203.698C30.4299 213.015 40.5759 239.678 46.3069 251.906C66.9319 295.916 118.51 308.557 118.51 308.557L103.143 259.408Z" fill="#0F4C81"/>
<path d="M43.863 182.286C45.773 174.636 37.021 165.181 37.306 173.734C37.591 182.286 37.128 187.148 30.179 177.488C16.379 158.304 18.776 169.458 23.907 182.286C5.01596 161.055 8.36396 175.211 16.21 187.945C8.79796 184.766 2.31196 185.85 6.16096 190.796C10.01 195.742 25.681 200.398 25.681 200.398C25.681 200.398 26.137 201.623 26.92 203.7L44.693 193.99C43.4 189.978 42.933 186.013 43.863 182.286Z" fill="#9EA7B6"/>
<path d="M46.67 196.357L45.414 191.515L23.348 204.076L26.179 208.304L46.67 196.357Z" fill="#0F4C81"/>
<path d="M29.964 204.08C29.046 203.936 28.186 204.563 28.042 205.481C27.898 206.399 28.526 207.259 29.443 207.403C30.36 207.547 31.221 206.919 31.365 206.002C31.509 205.085 30.882 204.224 29.964 204.08Z" fill="white"/>
<path d="M49.444 199.019L28.139 212.747L27.243 210.581L48.281 197.051L49.444 199.019Z" fill="black"/>
<defs>
<radialGradient id="paint0_radial_151_298" cx="0" cy="0" r="1" gradientUnits="userSpaceOnUse" gradientTransform="translate(189.39 104.03) rotate(-2.70393) scale(50.4128 47.2854)">
<stop stop-color="white"/>
<stop offset="0.4996" stop-color="#FDFDFD"/>
<stop offset="0.6917" stop-color="#F6F6F6"/>
<stop offset="0.8307" stop-color="#EAEBEA"/>
<stop offset="0.9435" stop-color="#D9DAD9"/>
<stop offset="0.992" stop-color="#CFD0CF"/>
</radialGradient>
<radialGradient id="paint1_radial_151_298" cx="0" cy="0" r="1" gradientUnits="userSpaceOnUse" gradientTransform="translate(180.415 95.8002) rotate(-10.5222) scale(24.8311 24.8311)">
<stop stop-color="white"/>
<stop offset="0.0019" stop-color="#FEFEFE"/>
<stop offset="0.1688" stop-color="#BCBCBC"/>
<stop offset="0.3328" stop-color="#838383"/>
<stop offset="0.4898" stop-color="#555454"/>
<stop offset="0.6383" stop-color="#302F2F"/>
<stop offset="0.7764" stop-color="#161515"/>
<stop offset="0.9001" stop-color="#070606"/>
<stop offset="0.9973" stop-color="#010000"/>
</radialGradient>
<radialGradient id="paint2_radial_151_298" cx="0" cy="0" r="1" gradientUnits="userSpaceOnUse" gradientTransform="translate(123.793 107.379) rotate(-2.70393) scale(42.3478 39.7207)">
<stop stop-color="white"/>
<stop offset="0.4996" stop-color="#FDFDFD"/>
<stop offset="0.6917" stop-color="#F6F6F6"/>
<stop offset="0.8307" stop-color="#EAEBEA"/>
<stop offset="0.9435" stop-color="#D9DAD9"/>
<stop offset="0.992" stop-color="#CFD0CF"/>
</radialGradient>
<radialGradient id="paint3_radial_151_298" cx="0" cy="0" r="1" gradientUnits="userSpaceOnUse" gradientTransform="translate(116.252 100.471) rotate(-10.5222) scale(20.871 20.871)">
<stop stop-color="white"/>
<stop offset="0.0019" stop-color="#FEFEFE"/>
<stop offset="0.1688" stop-color="#BCBCBC"/>
<stop offset="0.3328" stop-color="#838383"/>
<stop offset="0.4898" stop-color="#555454"/>
<stop offset="0.6383" stop-color="#302F2F"/>
<stop offset="0.7764" stop-color="#161515"/>
<stop offset="0.9001" stop-color="#070606"/>
<stop offset="0.9973" stop-color="#010000"/>
</radialGradient>
<linearGradient id="paint4_linear_151_298" x1="152.359" y1="249.078" x2="155.987" y2="230.01" gradientUnits="userSpaceOnUse">
<stop stop-color="#FFDF8E"/>
<stop offset="0.1531" stop-color="#FFD97F"/>
<stop offset="0.4473" stop-color="#FFCA58"/>
<stop offset="0.8492" stop-color="#FEB319"/>
<stop offset="1" stop-color="#FEA900"/>
</linearGradient>
<linearGradient id="paint5_linear_151_298" x1="138.222" y1="224.219" x2="189.714" y2="199.786" gradientUnits="userSpaceOnUse">
<stop stop-color="#931300"/>
<stop offset="0.153" stop-color="#840E00"/>
<stop offset="0.4456" stop-color="#5D0200"/>
<stop offset="0.4951" stop-color="#560000"/>
</linearGradient>
</defs>
</svg>
