<svg width="300" height="500" viewBox="0 0 300 500" fill="none" xmlns="http://www.w3.org/2000/svg">
<path d="M266.651 300.945C264.103 298.151 254.981 288.042 245.612 280.235C236.243 272.428 219.889 261.497 203.452 256.156C198.932 254.759 197.946 254.841 195.48 255.581C192.604 255.992 188.166 250.897 188.166 250.897C188.166 250.897 153.239 245.281 114.777 248.788C114.122 248.848 78.6172 252.952 45.3052 279.031C33.2522 289.55 28.1012 294.92 24.0472 299.303C19.9932 303.686 18.8972 310.151 21.5272 316.726C24.1572 323.301 34.4572 342.367 48.5922 355.954C62.7272 369.541 67.6582 368.555 70.9462 372.171C73.2472 374.582 76.4252 373.924 76.4252 373.924C76.4252 373.924 80.1512 376.444 85.4102 378.088C90.6702 379.732 95.3812 381.43 101.463 382.252C101.463 382.252 99.2172 408.331 98.4502 416.33C97.6832 424.329 94.3132 464.653 94.1492 469.091C94.1492 469.091 92.9982 469.091 91.8482 469.091C90.6972 469.091 89.1362 469.42 88.9722 472.461C88.9722 472.461 78.5352 472.461 75.0012 472.461C71.4672 472.461 67.8512 474.105 67.8512 478.707C67.8512 483.309 67.8512 489.555 67.8512 489.555C67.8512 489.555 66.0432 489.391 66.0432 491.609C66.0432 493.827 66.4542 495.225 68.1802 495.225C69.9062 495.225 117.489 495.225 119.133 495.225C120.777 495.225 120.941 494.485 120.982 493.746C121.023 493.006 120.818 492.185 121.681 492.185C122.544 492.185 122.872 492.185 122.872 492.185C122.872 492.185 122.585 495.226 125.173 495.226C127.762 495.226 129.898 495.226 131.912 495.226C133.925 495.226 133.925 494.199 133.925 493.295C133.925 492.391 134.377 489.515 132.117 489.515C132.117 489.515 132.692 482.94 132.323 478.79C131.953 474.64 131.419 470.572 130.392 469.873C130.392 469.873 138.857 438.438 141.24 429.234C143.623 420.029 150.855 395.21 150.855 395.21H160.059L169.428 469.01C169.428 469.01 167.127 469.832 167.127 472.379C167.127 474.927 167.127 477.31 167.127 477.31C167.127 477.31 165.401 484.378 167.045 489.226C165.977 489.801 165.812 490.459 165.812 492.678C165.812 494.897 167.373 495.185 168.319 495.185C169.265 495.185 173.702 495.185 174.688 495.185C175.674 495.185 175.633 494.158 175.839 493.377C176.045 492.596 176.085 492.185 176.085 492.185H177.934C177.934 492.185 177.605 495.226 179.578 495.226C181.55 495.226 228.518 495.226 230.326 495.226C232.134 495.226 232.956 493.665 232.956 492.432C232.956 491.199 233.079 489.761 231.107 489.515C231.107 486.433 231.107 482.242 231.107 479.571C231.107 476.9 228.929 472.503 224.45 472.503C219.971 472.503 209.698 472.503 209.698 472.503C209.698 472.503 209.739 469.627 207.767 469.627C205.795 469.627 205.137 469.627 205.137 469.627L204.959 378.528L212.958 378.309L211.314 375.076L214.423 373.35C214.423 373.35 215.368 374.254 216.765 373.761C218.162 373.268 219.313 371.213 219.436 371.131C219.559 371.049 221.614 370.227 222.97 369.57C224.326 368.912 233.489 363.201 239.53 357.16C245.57 351.12 262.377 332.177 267.636 317.63C270.514 310.149 269.199 303.739 266.651 300.945ZM99.3282 349.433C99.3282 349.433 95.6302 351.981 92.5072 352.474C89.3842 352.967 87.5762 353.214 85.1112 349.515C82.6452 345.817 74.0162 333.243 67.6062 323.217C82.5152 313.178 97.9312 300.699 97.9312 300.699C104.424 319.683 99.3282 349.433 99.3282 349.433ZM203.645 351.35C203.645 351.35 197.618 339.077 201.344 308.067C201.344 308.067 209.562 315.299 222.054 323.298L203.645 351.35Z" fill="black"/>
<path d="M221.242 369.149L221.993 370.938L216.221 376.017L213.623 372.67L221.242 369.149Z" fill="black"/>
<path d="M68.1873 367.783L66.1863 370.784L72.6023 376.633L75.3443 372.939L68.1873 367.783Z" fill="black"/>
<path d="M93.2571 256.304C93.2571 256.304 72.1181 261.424 48.0461 278.92L50.5261 286.95L72.6021 316.56C72.6021 316.56 83.5421 308.094 85.7361 306.988C87.9291 305.882 98.4351 296.921 98.4351 296.921C98.4351 296.921 108.066 310.961 101.23 348.595C109.171 344.67 111.039 343.977 115.761 347.671C120.484 351.365 123.601 353.674 124.64 357.945C125.679 362.216 121.292 365.679 116.905 363.371C112.518 361.062 112.634 359.908 110.556 359.792C108.478 359.677 107.785 360.485 109.863 361.87C111.941 363.255 119.098 368.912 122.215 373.183C125.332 377.454 125.548 382.922 114.011 383.016C114.018 385.304 112.477 385.881 112.477 385.881H122.745C122.745 385.881 148.372 391.538 166.982 388.767C185.592 385.996 203.206 382.384 203.206 382.384V379.509C203.206 379.509 193.287 382.535 186.117 383.837C178.948 385.139 177.651 384.32 176.01 382.384C175.664 384.033 171.392 384.842 167.006 382.879C162.619 380.917 164.069 375.029 169.693 369.834C175.317 364.639 180.211 360.483 180.211 360.483C180.211 360.483 178.518 359.56 178.072 360.137C177.627 360.714 170.585 367.987 166.66 363.947C162.735 359.907 164.78 354.795 168.779 351.348C172.778 347.901 178.51 343.745 182.513 345.361C186.516 346.977 195.751 351.133 198.175 351.941C200.599 352.749 201.984 352.749 201.984 352.749C201.984 352.749 194.711 333.307 200.368 305.741C206.025 309.113 216.791 317.098 216.791 317.098L243.863 281.785C243.863 281.785 232.96 271.257 215.376 263.168C197.792 255.079 200.138 257.165 197.829 257.627C195.52 258.089 191.826 256.819 189.286 254.741C186.746 252.663 182.24 252.317 182.24 252.317L175.561 287.065L156.616 277.912L149.405 295.429H144.033L137.453 277.368L118.982 287.181L116.211 271.597L93.2571 256.304Z" fill="#0F4C81"/>
<path d="M149.405 295.429V385.068H144.684L144.033 295.429H149.405Z" fill="black"/>
<path d="M117.84 382.108C117.84 382.108 157.079 388.029 179.045 382.658C183.59 384.192 186.119 383.84 186.119 383.84C186.119 383.84 186.876 385.477 186.119 385.622C185.363 385.768 149.34 392.003 113.248 383.806C111.633 383.613 113.803 382.248 117.84 382.108Z" fill="black"/>
<path d="M48.0461 278.92C48.0461 278.92 32.1031 293.384 26.1851 300.287C20.2681 307.19 21.9121 313.929 27.5001 323.956C33.0881 333.983 52.4831 360.281 64.1531 364.719C70.3991 367.513 73.0291 372.115 74.0151 371.622C75.0011 371.129 77.4671 371.622 80.2611 373.43C83.0551 375.238 94.0681 378.361 98.3411 379.512C102.614 380.663 106.395 382.142 108.696 381.978C110.997 381.814 112.476 380.006 110.997 377.704C109.518 375.403 105.08 372.937 100.971 371.787C96.8621 370.636 97.0261 367.514 100.478 367.678C103.93 367.842 110.997 371.458 113.956 375.239C116.915 379.019 114.942 381.32 118.394 380.827C121.846 380.334 124.64 378.033 119.873 373.102C115.106 368.171 109.354 363.24 107.053 361.925C104.752 360.61 106.231 357.98 110.34 357.98C114.449 357.98 117.408 362.747 119.709 362.253C122.01 361.76 124.455 357.98 121.096 354.857C117.737 351.734 112.806 347.625 109.519 347.954C106.232 348.283 95.8771 353.378 90.9461 354.364C86.0151 355.35 85.3581 354.693 80.2621 346.968C75.1671 339.243 65.3051 324.614 64.9761 323.135C64.6471 321.656 72.6021 316.56 72.6021 316.56C72.6021 316.56 75.4951 295.028 48.0461 278.92Z" fill="#9EA7B6"/>
<path d="M242.819 280.892C242.819 280.892 215.534 284.837 216.028 316.395C222.274 320.504 225.068 321.983 225.068 323.298C225.068 324.613 207.974 349.432 207.974 349.432C207.974 349.432 205.344 355.678 199.591 354.363C193.838 353.048 183.483 348.61 181.346 347.953C179.209 347.296 176.579 348.61 170.991 352.555C165.403 356.5 166.389 361.266 169.512 362.417C172.635 363.568 176.58 357.157 178.552 357.322C180.524 357.486 185.127 358.801 183.647 360.445C182.168 362.089 171.484 369.649 169.019 373.594C166.554 377.539 166.554 379.676 168.855 380.826C171.156 381.977 173.786 382.141 174.937 379.511C176.088 376.881 179.21 371.128 185.621 369.32C192.031 367.512 191.703 369.156 190.881 370.306C190.059 371.457 182.005 373.1 179.376 375.73C176.746 378.36 176.582 381.672 179.869 382.317C183.156 382.962 195.812 378.853 201.072 377.538C206.332 376.223 210.77 374.086 213.071 371.785C215.372 369.484 212.742 370.963 215.208 371.292C217.673 371.621 227.371 364.389 237.233 356.17C247.095 347.952 265.832 321.489 266.49 312.942C267.147 304.395 265.011 302.423 258.107 295.191C251.201 287.96 242.819 280.892 242.819 280.892Z" fill="#9EA7B6"/>
<path d="M242.819 280.892C242.819 280.892 215.534 284.837 216.028 316.395C222.274 320.504 225.068 321.983 225.068 323.298C225.068 324.613 207.974 349.432 207.974 349.432C207.974 349.432 205.344 355.678 199.591 354.363C193.838 353.048 183.483 348.61 181.346 347.953C179.209 347.296 176.579 348.61 170.991 352.555C165.403 356.5 166.389 361.266 169.512 362.417C172.635 363.568 176.58 357.157 178.552 357.322C180.524 357.486 185.127 358.801 183.647 360.445C182.168 362.089 171.484 369.649 169.019 373.594C166.554 377.539 166.554 379.676 168.855 380.826C171.156 381.977 173.786 382.141 174.937 379.511C176.088 376.881 179.21 371.128 185.621 369.32C192.031 367.512 191.703 369.156 190.881 370.306C190.059 371.457 182.005 373.1 179.376 375.73C176.746 378.36 176.582 381.672 179.869 382.317C183.156 382.962 195.812 378.853 201.072 377.538C206.332 376.223 210.77 374.086 213.071 371.785C215.372 369.484 212.742 370.963 215.208 371.292C217.673 371.621 227.371 364.389 237.233 356.17C247.095 347.952 265.832 321.489 266.49 312.942C267.147 304.395 265.011 302.423 258.107 295.191C251.201 287.96 242.819 280.892 242.819 280.892Z" fill="#9EA7B6"/>
<path d="M242.819 280.892C242.819 280.892 209.179 276.968 216.028 316.395C222.274 320.504 225.068 321.983 225.068 323.298C225.068 324.613 207.974 349.432 207.974 349.432C207.974 349.432 207.068 351.559 205.175 353.069L217.13 370.797C221.071 369.056 229.089 362.956 237.231 356.171C247.093 347.953 265.83 321.49 266.488 312.943C267.145 304.396 265.009 302.424 258.105 295.192C251.201 287.96 242.819 280.892 242.819 280.892Z" fill="#0F4C81"/>
<path d="M146.719 301.442L145.021 293.877L138.611 274.975L119.709 284.426L112.477 241.116H115.6L141.241 272.839L147.158 289.275L153.24 272.181L182.99 238.486L174.114 284.344L156.034 275.633L146.719 301.442Z" fill="white"/>
<path d="M116.915 247.033L140.748 274.975L145.843 292.233L147.733 291.247L155.705 272.674L181.896 239.725C181.896 239.725 133.352 234.541 116.915 247.033Z" fill="#9EA7B6"/>
<path d="M169.527 255.286L166.982 254.78L153.577 272.096L146.727 289.413L142.494 273.79L136.953 267.017L134.552 267.711L140.748 274.975L145.843 292.234L147.733 291.247L155.705 272.674L169.527 255.286Z" fill="black"/>
<path d="M103.163 384.333C103.163 384.333 108.423 385.538 110.505 385.21C112.587 384.881 114.011 383.018 114.011 383.018C114.011 383.018 128.037 386.415 153.13 387.072C178.223 387.729 203.206 379.511 203.206 379.511V387.109C203.206 387.109 197.946 389.537 188.413 387.893C188.413 387.893 192.522 392.988 203.206 389.865V467.61H171.484L162.773 397.097C162.773 397.097 167.868 396.768 171.156 401.042C171.156 401.042 168.691 393.481 155.87 393.317C143.05 393.153 138.94 398.905 138.94 398.905C138.94 398.905 145.35 396.604 148.309 396.439L127.763 468.924H95.0552L102.78 389.371C102.78 389.371 118.066 394.466 121.846 387.727C117.901 389.371 110.998 389.042 102.944 386.412L103.163 384.333Z" fill="#2E3235"/>
<path d="M91.2192 471.775C91.2192 471.775 91.8762 470.35 96.4792 470.57C101.082 470.79 127.928 470.876 128.914 471.161C129.9 471.446 130.339 473.309 130.448 475.72C130.558 478.131 130.448 478.569 130.448 478.569C130.448 478.569 131.215 480.103 131.215 481.418C131.215 482.733 130.667 488.102 130.667 488.102C130.667 488.102 130.996 490.732 127.818 490.732C124.64 490.732 71.4962 490.732 70.1812 490.732C68.8662 490.732 68.9762 487.993 68.9762 485.144C68.9762 482.295 68.9722 481.309 68.9742 478.898C68.9762 476.487 72.1542 473.419 75.9892 473.529C79.8242 473.639 92.0972 474.077 97.9042 474.077C103.711 474.077 110.615 475.83 113.464 482.076C113.464 482.076 114.012 475.94 106.78 473.967C99.5472 471.994 91.2192 471.775 91.2192 471.775Z" fill="#1A1A1A"/>
<path d="M208.302 471.556C208.302 471.556 208.877 470.547 203.946 470.547C199.015 470.547 174.689 470.547 171.566 470.547C168.443 470.547 168.607 471.474 168.607 473.2C168.607 474.926 168.85 475.665 168.605 476.487C168.36 477.309 167.62 480.761 167.867 484.787C168.114 488.814 168.853 491.362 170.086 491.362C171.319 491.362 225.23 491.362 227.778 491.362C230.326 491.362 230.161 489.472 230.161 488.239C230.161 487.006 230.161 482.733 230.161 480.103C230.161 477.473 228.353 474.021 225.066 473.693C221.779 473.364 212.246 473.529 206 474.022C199.754 474.515 190.468 474.022 186.276 482.158C186.933 478.378 189.07 474.433 197.453 473.2C205.836 471.967 208.137 472.542 208.137 472.542L208.302 471.556Z" fill="#1A1A1A"/>
<path d="M282.003 161.662L282.358 161.951L278.063 153.349L277.611 152.397C271.363 139.218 262.45 133.935 257.03 131.857C262.419 126.698 263.114 120.863 262.602 116.572C262.058 111.884 259.992 108.464 259.904 108.321L257.663 104.41L257.57 104.622L257.564 104.61L255.814 108.658C255.805 108.677 254.959 110.601 253.469 112.494L255.268 113.91L253.388 112.597C253.278 112.734 253.163 112.87 253.047 113.005L252.589 113.512C251.033 115.144 249.458 115.973 247.846 115.973C247.835 115.973 247.823 115.973 247.812 115.973C247.645 115.969 247.476 115.955 247.306 115.933L246.837 115.853C246.69 115.819 246.541 115.776 246.392 115.728L246.18 115.656C245.998 115.59 245.815 115.517 245.632 115.432L244.657 117.504L245.493 115.363C245.001 115.121 244.507 114.816 243.994 114.436C243.712 114.224 243.424 113.991 243.13 113.73C242.178 112.887 241.201 111.805 240.223 110.515L239.929 110.125C238.402 108.05 236.848 105.427 235.301 102.32L235.318 102.311C235.254 102.166 235.184 102.02 235.112 101.875L234.96 101.553C223.694 78.35 207.646 67.065 199.682 62.62C199.76 62.35 199.805 62.168 199.816 62.121L199.933 61.628L199.832 61.132C199.785 60.899 194.826 37.808 173.327 37.566C169.241 37.518 165.156 38.287 161.174 39.843C155.979 36.064 152.968 31.603 152.214 26.569C150.814 17.201 157.616 8.65404 157.682 8.57104L160.722 4.83604C160.722 4.83604 152.101 3.79204 143.249 10.165C134.581 16.406 131.856 24.715 131.404 26.374C122.66 13.35 110.665 8.47104 103.708 6.66304C103.459 6.59904 103.219 6.53804 103.004 6.48804L102.305 6.32604C100.21 5.86004 98.8941 5.74104 98.8381 5.73604L92.9011 5.21604L96.9631 9.57704C116.68 30.847 114.042 45.791 113.255 49.112C108.533 46.311 103.312 44.732 97.7021 44.412C82.3621 43.562 76.8901 58.786 76.1381 66.961L76.0941 67.437L76.2451 67.891C76.4901 68.629 77.0081 69.961 77.8541 71.074C73.7801 74.622 69.6751 78.824 66.1421 83.97C57.4641 96.609 50.8601 106.46 43.8971 132.266C43.7981 132.634 43.6891 133.006 43.5661 133.399L43.2211 134.398C42.2951 137.08 41.0781 139.274 39.6061 140.915C39.4281 141.113 39.2461 141.297 39.0591 141.48L38.9441 141.599C33.3931 146.892 25.9441 143.89 25.6391 143.763L19.9551 141.408L19.9931 141.485L19.9651 141.473L22.6641 146.932C26.9311 155.559 32.0981 157.871 35.9841 158.151C29.7331 167.41 30.3951 178.613 30.4271 179.105L30.9861 187.524L34.0491 181.4L34.7751 180.022C36.2751 177.178 38.8001 174.823 41.2311 173.044C33.6521 191.126 40.1651 207.948 40.4831 208.744L45.4181 221.176L44.9261 207.813C44.8351 205.346 45.5991 202.605 46.6921 200C46.9071 217.073 59.7821 230.309 60.4601 230.994L70.5411 241.172L65.1951 230.48L64.1771 228.345C64.1021 228.188 63.9851 227.892 63.8611 227.392C63.7181 226.801 63.6011 226.1 63.5061 225.324C68.4501 235.366 75.4391 243.522 75.8661 244.015L79.7621 248.46L79.7641 248.373L79.8161 248.433L79.8721 245.75C85.6011 254.341 93.0711 259.134 94.5311 260.019C99.7941 265.898 104.642 269.803 108.937 271.627C110.827 272.437 112.608 272.842 114.267 272.842C115.9 272.842 117.415 272.45 118.802 271.665C121.193 270.313 123.012 267.868 124.241 264.364C125.366 265.832 126.768 267.148 128.501 268.019C131.536 269.556 135.054 269.453 138.666 267.728C140.924 266.661 143.33 264.911 145.816 262.528C146.36 262.007 146.896 261.49 147.427 260.976L148.102 260.858C177.493 255.975 192.313 246.653 199.771 238.783C199.256 240.149 198.877 241.005 198.864 241.032L196.78 245.702L196.811 245.692L196.775 245.775L200.861 244.413L201.681 244.154C212.608 240.7 219.817 235.029 224.575 229.066L223.803 231.15L229.133 227.955L229.334 227.844C247.549 217.842 250.44 204.093 249.973 195.012C251.758 199.055 252.755 202.49 252.774 202.555L254.119 207.378L256.911 203.197C264.748 191.453 262.331 180.063 260.013 174.027C267.027 176.428 269.082 181.561 269.175 181.804L272.913 191.94L272.947 191.402L272.955 191.419L272.995 190.816L273.629 192.32V181.304L273.638 181.169C273.92 176.939 273.417 172.839 272.144 168.989C271.66 167.514 271.077 166.121 270.418 164.804L270.188 163.656L270.147 164.273C266.668 157.63 261.294 153.03 257.177 150.24C257.595 150.218 258.011 150.204 258.425 150.2C267.986 150.105 273.96 155.113 274.011 155.157L281.769 161.872L281.544 161.365L282.061 161.796L282.003 161.662Z" fill="black"/>
<path d="M114.686 52.6191C114.686 52.6191 124.1 35.3251 98.6392 8.01713C98.6392 8.01713 120.991 9.90313 132.686 33.1741C132.686 33.1741 132.836 13.2501 155.869 7.13013C155.869 7.13013 138.858 27.9941 161.21 42.6861C161.21 42.6861 182.025 31.8851 194.317 62.5371C194.317 62.5371 217.957 71.8251 232.848 102.528C247.742 133.26 257.952 109.518 257.952 109.518C257.952 109.518 266.465 123.42 252.031 132.834C252.031 132.834 266.625 134.57 275.542 153.38C275.542 153.38 265.758 144.902 250.392 148.996C250.392 148.996 272.842 158.483 271.343 180.989C271.343 180.989 268.157 172.26 255.89 170.702C255.89 170.702 265.677 185.914 254.999 201.873C254.999 201.873 251.136 188.348 244.534 182.497C244.534 182.497 258.471 209.184 228.236 225.786C228.236 225.786 232.749 213.718 231.505 204.996C231.505 204.996 231.334 232.304 200.983 241.921C200.983 241.921 205.192 232.528 204.948 225.319C204.948 225.319 201.727 249.578 147.704 258.545C147.704 258.545 163.412 243.731 166.165 236.022L95.9632 258.126C95.9632 258.126 83.1542 250.766 77.7502 236.644L77.6382 242.464C77.6382 242.464 62.7192 225.219 61.0812 210.304C61.0812 210.304 60.1312 225.174 62.1112 229.334C62.1112 229.334 42.4592 209.532 51.3322 187.725C51.3322 187.725 42.2922 199.049 42.6242 207.852C42.6242 207.852 34.2582 186.859 46.9592 167.064C46.9592 167.064 36.7872 171.245 32.7492 178.93C32.7492 178.93 31.6562 162.45 43.2282 153.777C43.2282 153.777 32.7002 161.982 24.7432 145.876C24.7432 145.876 40.7902 152.684 46.1062 132.865C51.4472 113.042 63.2782 85.3361 81.9582 70.7171C81.9592 70.7121 93.0612 40.7811 114.686 52.6191Z" fill="#ADB5C0"/>
<path d="M251.989 132.888C266.422 123.467 257.913 109.569 257.913 109.569C257.913 109.569 248.175 132.218 233.815 104.56C239.463 117.498 231.052 131.47 212.036 122.207C192.038 112.489 173.351 124.708 158.82 141.684C144.307 158.657 104.637 114.571 65.9761 135.313C50.1461 143.819 45.7621 141.143 45.3851 135.146C39.5131 152.167 24.7161 145.918 24.7161 145.918C32.6731 162.007 43.2081 153.802 43.2081 153.802C31.6181 162.499 32.7111 178.955 32.7111 178.955C36.7631 171.271 46.9451 167.082 46.9451 167.082C34.2341 186.884 42.6101 207.898 42.6101 207.898C42.2641 199.075 51.2971 187.75 51.2971 187.75C42.4461 209.557 62.0871 229.383 62.0871 229.383C60.1061 225.216 61.0641 210.322 61.0641 210.322C62.6811 225.265 77.6001 242.517 77.6001 242.517L77.7261 236.691C83.1261 250.792 95.9141 258.176 95.9141 258.176L166.137 236.073C163.388 243.75 147.68 258.599 147.68 258.599C201.699 249.625 204.92 225.339 204.92 225.339C205.171 232.604 200.955 241.969 200.955 241.969C231.313 232.353 231.484 205.051 231.484 205.051C232.724 213.745 228.214 225.835 228.214 225.835C258.446 209.233 244.491 182.546 244.491 182.546C251.11 188.365 254.977 201.925 254.977 201.925C265.655 185.941 255.868 170.746 255.868 170.746C268.132 172.287 271.328 181.015 271.328 181.015C272.82 158.537 250.367 149.022 250.367 149.022C265.729 144.928 275.517 153.427 275.517 153.427C266.6 134.621 251.989 132.888 251.989 132.888Z" fill="#9EA7B6"/>
<path d="M232.9 102.555C217.978 71.8232 194.365 62.5361 194.365 62.5361C188.221 47.1911 179.932 42.2381 173.18 41.1271C166.561 40.0091 161.433 42.5912 161.234 42.6852C138.931 27.9692 155.907 7.12915 155.907 7.12915C155.893 7.12915 155.868 7.15015 155.868 7.15015V7.12915C133.604 13.0532 132.709 31.8562 132.685 33.0962C122.81 13.5212 105.394 9.13415 100.19 8.24015C99.2122 8.07215 98.6392 8.01715 98.6392 8.01715C123.914 35.1501 114.822 52.3781 114.686 52.6021C111.996 51.1381 109.467 50.3171 107.113 50.0001C90.4582 47.7431 81.9602 70.7141 81.9602 70.7141C81.9882 70.6861 81.9882 70.6691 82.0232 70.6131C82.0132 70.6691 81.9882 70.7141 81.9882 70.7141C76.9062 74.7071 72.3232 79.6882 68.2332 85.2102C68.3202 85.1822 68.3622 85.1822 68.3622 85.1822C68.3622 85.1822 72.7562 79.5861 83.2492 72.6731L76.9822 81.7411C76.9822 81.7411 84.9362 75.4712 94.3492 75.1252C101.227 80.8432 106.023 96.0862 106.023 96.0862L106.173 145.023C106.173 145.023 164.953 184.875 147.778 142.599C136.897 115.863 147.705 92.2962 157.104 78.5932L176.2 77.5522L182.421 77.1782C182.421 77.1782 183.322 70.9851 180.164 67.0481C180.164 67.0481 197.881 74.6491 208.115 86.1021L203.284 75.9172C203.284 75.9172 219.254 79.2392 231.881 101.091C232.374 101.961 232.824 102.649 233.215 103.225C233.12 103.002 232.997 102.778 232.9 102.555Z" fill="#D9DCE1"/>
<path d="M252.031 132.888C266.478 123.467 257.952 109.569 257.952 109.569C257.952 109.569 250.222 127.505 238.398 111.899C238.523 112.517 238.674 113.136 238.796 113.73C241.444 126.423 253.764 122.972 253.764 122.972C253.764 122.972 246.778 132.543 235.447 125.896C235.447 125.896 239.635 148.873 253.045 157.913C253.045 157.913 248.113 160.589 239.118 153.802C243.823 158.186 252.277 168.078 254.435 184.16C254.435 184.16 244.819 166.933 232.118 161.728C232.118 161.728 245.437 174.942 239.481 200.214C239.481 200.214 237.493 183.86 228.67 178.114C228.67 178.114 232.589 201.873 214.611 220.013C214.611 220.013 221.524 204.874 216.731 192.733C216.731 192.733 211.264 212.308 189.73 227.653C189.73 227.653 206.545 203.013 205.096 185.765C205.096 185.765 186.709 223.979 161.93 227.077C137.15 230.2 72.0019 175.936 72.0019 175.936C72.0019 175.936 66.958 194.962 68.631 214.017C68.631 214.017 62.413 195.511 64.691 178.088C64.691 178.088 59.0639 187.827 58.2249 197.516C58.2249 197.516 55.696 175.311 66.063 162.083C66.063 162.083 57.432 166.813 50.208 177.913C50.208 177.913 55.5729 156.805 64.0229 148.299C64.0229 148.299 51.8389 155.715 45.3849 161.014C45.3849 161.014 45.6989 152.219 53.2439 144.485C53.2439 144.485 35.1539 158.412 24.7729 145.921C32.7119 162.01 43.2299 153.805 43.2299 153.805C31.686 162.502 32.7509 178.958 32.7509 178.958C36.7889 171.301 46.9749 167.085 46.9749 167.085C34.2779 186.887 42.6399 207.901 42.6399 207.901C42.3149 199.078 51.334 187.753 51.334 187.753C42.476 209.588 62.1269 229.407 62.1269 229.407C60.1569 225.219 61.096 210.353 61.096 210.353C62.734 225.268 77.653 242.52 77.653 242.52L77.775 236.694C83.165 250.795 95.9629 258.179 95.9629 258.179L166.165 236.076C163.437 243.782 147.729 258.602 147.729 258.602C201.749 249.628 204.969 225.342 204.969 225.342C205.192 232.607 200.994 241.972 200.994 241.972C231.335 232.384 231.523 205.054 231.523 205.054C232.77 213.748 228.236 225.838 228.236 225.838C258.471 209.236 244.545 182.549 244.545 182.549C251.147 188.368 255.01 201.928 255.01 201.928C265.678 185.944 255.918 170.749 255.918 170.749C268.185 172.317 271.357 181.018 271.357 181.018C272.852 158.54 250.402 149.025 250.402 149.025C265.757 144.931 275.541 153.43 275.541 153.43C266.625 134.621 252.031 132.888 252.031 132.888Z" fill="#747A86"/>
<path d="M232.624 102.677C217.73 71.9532 194.107 62.6572 194.107 62.6572C187.945 47.3202 179.67 42.3592 172.915 41.2492C166.316 40.1312 161.157 42.7132 160.976 42.8072C138.673 28.1152 155.656 7.27319 155.656 7.27319H155.586C131.945 38.3502 159.774 37.6312 151.374 43.5272C142.956 49.4302 133.182 65.2852 139.005 65.3862C144.831 65.5362 131.795 70.4442 129.602 88.1362C127.782 103.002 121.687 127.432 122.382 99.8522C123.074 72.3202 99.6071 62.0122 90.7841 69.7252C81.9501 77.4312 82.1501 67.7412 88.2101 62.9352C94.2561 58.1252 100.422 53.6192 118.488 63.3092C135.055 72.1982 122.891 47.7192 113.128 29.2132C119.325 43.7822 114.524 52.5472 114.429 52.7212C111.725 51.2572 109.196 50.4192 106.842 50.1222C90.1911 47.8902 81.6921 70.8142 81.6921 70.8142C81.6921 70.8142 81.7371 70.7902 81.7651 70.7622C81.7511 70.8142 81.7371 70.8352 81.7371 70.8352C76.6381 74.8282 72.0621 79.8092 67.9851 85.3312C68.0651 85.3102 68.1111 85.3102 68.1111 85.3102C68.1111 85.3102 72.4951 79.7072 82.9911 72.7952L76.7111 81.8592C76.7111 81.8592 84.6641 75.5922 94.0781 75.2192C100.97 80.9722 105.766 96.2332 105.766 96.2332L105.909 145.152C105.909 145.152 164.689 184.997 147.504 142.7C136.651 115.985 147.434 92.4182 156.848 78.6912L175.955 77.6742L182.148 77.3072C182.148 77.3072 183.066 71.1072 179.916 67.1422C179.916 67.1422 197.612 74.7502 207.86 86.2522L203.015 76.0382C203.015 76.0382 218.996 79.3602 231.609 101.24C232.109 102.086 232.552 102.777 232.975 103.346C232.847 103.124 232.75 102.901 232.624 102.677Z" fill="#CDD0D7"/>
<path d="M188.514 105.381C187.106 128.075 173.124 145.722 157.283 144.761C141.432 143.762 129.716 124.558 131.099 101.839C132.514 79.1383 146.486 61.5193 162.323 62.4873C178.182 63.4543 189.89 82.6523 188.514 105.381Z" fill="url(#paint0_radial_151_187)"/>
<path d="M187.871 105.552C186.684 122.032 176.969 146.068 156.734 144.286C137.32 142.599 130.952 117.397 131.721 101.689C132.541 85.1603 142.923 61.1743 162.865 62.9063C182.296 64.6143 188.664 89.8163 187.871 105.552C187.871 105.971 189.111 105.552 189.125 105.178C189.928 88.9013 183.016 62.9063 162.697 62.1413C146.193 61.4983 135.783 77.3293 132.07 91.5773C127.435 109.367 131.525 136.032 150.74 143.762C165.718 149.809 179.111 136.507 184.727 123.988C187.375 118.067 188.664 111.623 189.125 105.178C189.16 104.759 187.899 105.178 187.871 105.552Z" fill="#1A0000"/>
<path d="M162.323 62.4864C158.819 62.2634 155.424 62.9544 152.211 64.4174C154.443 63.6734 156.745 63.3274 159.099 63.4744C173.151 64.3444 183.511 81.3444 182.296 101.464C181.06 121.563 168.666 137.17 154.642 136.3C140.604 135.434 130.233 118.465 131.459 98.3414C131.484 97.9954 131.536 97.6494 131.56 97.3044C131.361 98.7884 131.2 100.325 131.099 101.838C129.716 124.557 141.432 143.761 157.269 144.76C173.124 145.721 187.106 128.074 188.49 105.38C189.89 82.6524 178.182 63.4544 162.323 62.4864Z" fill="#DADADA"/>
<path d="M170.078 96.6062C167.43 111.602 157.318 122.329 147.517 120.596C137.729 118.832 131.945 105.279 134.617 90.3122C137.272 75.3202 147.381 64.5932 157.171 66.3292C166.959 68.0652 172.747 81.6182 170.078 96.6062Z" fill="#1A1A1A"/>
<path d="M164.552 99.9283C163.092 110.707 156.176 118.664 149.13 117.721C142.081 116.753 137.568 107.238 139.032 96.4563C140.492 85.6553 147.394 77.6743 154.443 78.6693C161.506 79.6093 166.015 89.1523 164.552 99.9283Z" fill="url(#paint1_radial_151_187)"/>
<path d="M169.142 84.5661C169.952 91.1581 167.392 96.8831 163.427 97.3721C159.448 97.8751 155.575 92.9401 154.768 86.3481C153.947 79.7601 156.511 74.0071 160.489 73.5111C164.45 73.0181 168.345 77.9711 169.142 84.5661Z" fill="white"/>
<path d="M120.495 108.573C119.321 127.655 107.56 142.476 94.255 141.655C80.922 140.841 71.086 124.707 72.246 105.604C73.423 86.5224 85.184 71.7294 98.489 72.5504C111.808 73.3644 121.644 89.4984 120.495 108.573Z" fill="url(#paint2_radial_151_187)"/>
<path d="M119.963 108.723C118.908 122.674 110.755 142.846 93.629 141.288C77.387 139.796 72.161 118.587 72.765 105.474C73.423 91.5033 82.26 71.4043 99.1 72.9413C115.343 74.4053 120.568 95.5903 119.963 108.723C119.925 109.094 120.99 108.748 121.004 108.43C121.709 93.4623 114.72 70.8833 95.963 72.2993C80.202 73.5113 72.717 92.4193 71.729 105.776C70.611 120.744 78.296 143.315 96.767 141.908C112.545 140.689 119.999 121.788 121.005 108.431C121.039 108.077 119.999 108.402 119.963 108.723Z" fill="#1A0000"/>
<path d="M98.489 72.5504C95.541 72.3474 92.68 72.9414 89.991 74.1574C91.863 73.5394 93.795 73.2424 95.789 73.3884C107.585 74.0804 116.293 88.3804 115.269 105.28C114.225 122.179 103.816 135.313 92.023 134.569C80.227 133.85 71.505 119.56 72.55 102.65C72.571 102.381 72.606 102.088 72.62 101.812C72.463 103.052 72.323 104.313 72.246 105.606C71.086 124.709 80.923 140.843 94.242 141.657C107.561 142.478 119.322 127.657 120.496 108.575C121.644 89.4984 111.808 73.3644 98.489 72.5504Z" fill="#DADADA"/>
<path d="M105.007 101.221C102.779 113.806 94.28 122.853 86.05 121.369C77.82 119.923 72.955 108.501 75.197 95.9433C77.429 83.3263 85.914 74.2863 94.154 75.7673C102.383 77.2063 107.239 88.6033 105.007 101.221Z" fill="#1A1A1A"/>
<path d="M100.354 103.994C99.128 113.059 93.312 119.754 87.402 118.961C81.468 118.141 77.674 110.138 78.911 101.063C80.141 92.0233 85.925 85.3313 91.863 86.1243C97.797 86.9173 101.587 94.9473 100.354 103.994Z" fill="url(#paint3_radial_151_187)"/>
<path d="M104.214 91.0844C104.906 96.6354 102.75 101.465 99.408 101.856C96.075 102.286 92.803 98.1184 92.125 92.5934C91.444 87.0464 93.61 82.2124 96.932 81.8144C100.274 81.3944 103.547 85.5544 104.214 91.0844Z" fill="white"/>
<path d="M141.114 59.8113C141.114 59.8113 153.427 39.6353 173.302 39.8593C193.201 40.0833 197.589 61.5933 197.589 61.5933C197.589 61.5933 195.57 70.1163 191.937 62.3653C188.294 54.5793 176.62 41.7253 161.782 48.2643C146.923 54.8303 137.89 67.2723 141.114 59.8113Z" fill="#010000"/>
<path d="M122.367 60.7263C122.367 60.7263 114.536 47.6653 97.574 46.6983C80.388 45.7343 78.418 67.1713 78.418 67.1713C78.418 67.1713 80.923 74.7263 83.399 67.6183C85.879 60.4813 95.069 51.9273 103.99 53.3663C115.702 55.2493 125.811 67.2723 122.367 60.7263Z" fill="#010000"/>
<path d="M62.063 138.11C62.063 138.11 62.412 137.596 63.206 136.824C63.576 136.429 64.093 135.982 64.69 135.489C65.322 135.067 66.003 134.49 66.87 134.071C67.289 133.826 67.712 133.578 68.197 133.355C68.679 133.156 69.175 132.932 69.695 132.737C70.205 132.486 70.785 132.412 71.34 132.217C71.923 132.067 72.507 131.889 73.142 131.889C73.76 131.795 74.389 131.749 75.035 131.693C75.664 131.672 76.321 131.721 76.991 131.77L77.969 131.843L78.947 132.094L80.92 132.587C82.108 133.156 83.397 133.579 84.462 134.323C84.997 134.697 85.542 135.067 86.048 135.434L86.792 135.982L87.463 136.628C88.315 137.494 89.161 138.315 89.842 139.154C90.499 140.048 91.068 140.89 91.599 141.683C92.158 142.448 92.518 143.241 92.839 143.939C93.174 144.61 93.433 145.225 93.646 145.721C94.076 146.738 94.285 147.307 94.285 147.307C94.285 147.307 93.831 146.86 93.059 146.095C92.692 145.721 92.245 145.253 91.746 144.684C91.253 144.135 90.708 143.521 90.038 142.923C89.371 142.326 88.676 141.655 87.97 140.935C87.216 140.271 86.325 139.695 85.504 138.979C84.725 138.239 83.659 137.893 82.751 137.222C82.318 136.897 81.787 136.729 81.27 136.506L79.778 135.86L78.182 135.413L77.399 135.189L76.592 135.116C76.065 135.042 75.527 134.966 74.996 134.892C74.465 134.892 73.93 134.92 73.41 134.92C72.893 134.864 72.383 134.993 71.877 135.014C71.367 135.087 70.86 135.087 70.389 135.217C69.421 135.413 68.492 135.612 67.647 135.881C66.795 136.105 66.051 136.429 65.345 136.629C64.688 136.954 64.056 137.149 63.598 137.373C62.608 137.82 62.063 138.11 62.063 138.11Z" fill="#010000"/>
<path d="M166.931 144.555C166.931 144.555 168.297 141.607 171.269 137.842C172.013 136.853 172.855 135.862 173.78 134.845C174.713 133.85 175.716 132.76 176.858 131.771C179.066 129.689 181.679 127.73 184.504 126.071C185.901 125.229 187.403 124.541 188.888 123.916C190.397 123.273 191.937 122.854 193.446 122.48C194.958 122.107 196.471 121.939 197.907 121.883C199.322 121.809 200.684 121.911 201.9 122.085C202.504 122.207 203.088 122.256 203.632 122.403C204.181 122.553 204.673 122.703 205.173 122.853C206.113 123.122 206.906 123.496 207.552 123.765C208.813 124.436 209.47 124.831 209.47 124.831C209.47 124.831 208.687 124.709 207.339 124.436C206.654 124.335 205.84 124.234 204.897 124.16C203.968 124.093 202.917 124.038 201.778 124.093C200.65 124.111 199.43 124.261 198.159 124.456C196.891 124.686 195.578 125.025 194.24 125.427C193.572 125.623 192.913 125.895 192.235 126.143C191.564 126.422 190.897 126.695 190.227 126.985C188.864 127.607 187.527 128.277 186.238 129.07C184.911 129.79 183.636 130.631 182.395 131.47C181.183 132.364 179.943 133.185 178.818 134.1C176.527 135.861 174.466 137.617 172.733 139.182C169.236 142.298 166.931 144.555 166.931 144.555Z" fill="#010000"/>
<path d="M157.863 140.688C153.304 136.105 127.411 116.855 94.723 137.149C62.063 157.443 71.33 208.092 77.876 227.744C84.391 247.396 120.323 293.958 123.072 254.532C123.072 254.532 127.337 276.168 143.789 260.407C162.497 242.488 180.214 221.104 188.255 193.523C199.108 156.28 180.329 134.714 170.252 139.846C162.757 143.64 165.446 148.351 157.863 140.688Z" fill="#212129"/>
<path d="M137.691 265.657C134.684 267.093 131.945 267.194 129.538 265.975C126.293 264.344 124.386 260.648 123.38 257.951C121.91 268.633 117.079 272.622 109.841 269.52C97.7581 264.389 81.4671 240.678 77.2511 227.939C68.9901 203.083 63.3071 155.906 94.3771 136.6C96.6341 135.189 98.9351 133.949 101.213 132.859C128.996 119.68 151.869 133.725 158.331 140.271C161.939 143.89 162.952 144.385 163.665 144.061C164.035 143.862 164.451 143.464 165 142.922C166.016 141.933 167.417 140.543 169.953 139.275L170.131 139.181C173.401 137.616 177.442 138.584 181.207 141.783C190.303 149.534 196.199 168.592 188.888 193.696C180.044 224.047 159.18 246.573 144.237 260.87C141.931 263.083 139.738 264.69 137.691 265.657ZM122.762 249.624L123.719 254.409C123.729 254.503 125.34 262.411 130.136 264.818C133.629 266.599 138.138 264.912 143.343 259.959C158.164 245.732 178.878 223.384 187.638 193.326C194.795 168.795 189.14 150.254 180.348 142.772C177.009 139.918 173.474 139.031 170.686 140.348C168.171 141.634 166.858 142.923 165.908 143.862C165.286 144.48 164.804 144.955 164.235 145.252C162.607 145.993 161.036 144.854 157.392 141.158C151.122 134.843 128.868 121.188 101.762 134.025C99.5331 135.115 97.2771 136.327 95.0691 137.689C81.0691 146.39 73.3881 161.557 72.2451 182.717C71.3541 199.267 74.8861 216.715 78.4911 227.546C82.6341 240.055 98.5621 263.304 110.333 268.331C117.556 271.401 121.559 266.672 122.426 254.502L122.762 249.624Z" fill="black"/>
<path d="M166.808 151.82C166.476 151.963 166.092 151.841 165.942 151.523C162.798 145.375 158.509 142.204 158.481 142.176C158.177 141.952 158.111 141.554 158.31 141.289C158.533 140.964 158.952 140.919 159.239 141.142C159.424 141.264 163.797 144.509 167.109 150.926C167.256 151.244 167.144 151.645 166.808 151.792C166.808 151.82 166.808 151.82 166.808 151.82Z" fill="black"/>
<path d="M167.601 160.067C167.304 160.217 166.958 160.14 166.784 159.843C166.585 159.553 166.662 159.124 166.959 158.928C173.226 154.841 174.588 147.307 174.588 147.205C174.665 146.859 175.004 146.615 175.36 146.688C175.706 146.758 175.954 147.083 175.877 147.456C175.828 147.753 174.417 155.633 167.679 160.045C167.654 160.046 167.64 160.067 167.601 160.067Z" fill="black"/>
<path d="M123.397 256.237C123.296 256.293 123.195 256.321 123.097 256.293C122.737 256.293 122.444 255.996 122.465 255.622C122.479 255.472 123.17 238.6 136.971 230.319C147.876 223.825 170.549 210.272 175.53 192.112C182.369 167.155 171.618 155.215 171.52 155.065C171.269 154.817 171.269 154.416 171.538 154.171C171.789 153.92 172.209 153.92 172.46 154.199C172.928 154.695 183.833 166.735 176.784 192.458C171.667 211.114 148.697 224.842 137.641 231.457C124.459 239.337 123.763 255.499 123.763 255.671C123.753 255.94 123.607 256.118 123.397 256.237Z" fill="black"/>
<path opacity="0.2" d="M170.378 140.098C162.882 143.892 165.554 148.597 157.988 140.964C153.426 136.357 127.519 117.124 94.8481 137.422C91.5501 139.479 88.7001 141.83 86.1991 144.432C101.883 130.229 141.905 127.46 157.415 157.538C173.472 188.664 124.584 205.787 119.4 238.031C114.199 270.292 92.4031 259.363 77.9871 228.013C84.5121 247.665 120.444 294.206 123.194 254.829C123.194 254.829 127.445 276.44 143.911 260.676C162.619 242.732 180.336 221.373 188.391 193.774C199.248 156.55 180.463 134.994 170.378 140.098Z" fill="#333333"/>
<path opacity="0.2" d="M181.528 198.874C191.85 172.359 174.912 149.507 174.912 149.507C172.98 155.215 169.128 158.9 169.128 158.9C181.961 180.909 166.498 206.579 149.787 216.021C138.557 222.389 124.606 231.81 121.857 249.948C119.244 267.046 111.112 269.796 105.922 266.722C114.62 273.016 122.231 272.272 123.419 254.978C123.419 254.978 124.362 259.659 126.989 263.054C137.719 271.208 170.637 226.875 181.528 198.874Z" fill="#680000"/>
<path d="M151.076 222.166C146.14 225.635 141.606 228.387 139.056 229.85C131.721 233.965 128.699 239.068 128.699 239.068C132.671 247.095 136.876 244.821 136.876 244.821C139.104 243.878 141.28 242.61 143.394 241.125C147.59 236.222 149.86 228.684 151.076 222.166Z" fill="url(#paint4_linear_151_187)"/>
<path d="M173.124 199.074C173.124 199.074 172.607 200.387 171.619 202.542C172.286 201.376 172.806 200.213 173.124 199.074Z" fill="url(#paint5_linear_151_187)"/>
<path d="M151.076 222.166C149.86 228.684 147.59 236.222 143.395 241.126C157.493 231.213 167.874 210.723 171.619 202.542C167.776 209.305 158.904 216.644 151.076 222.166Z" fill="#900C12"/>
<path opacity="0.5" d="M134.369 244.867C134.369 244.867 135.598 234.881 148.519 231.363L150.58 223.109C150.58 223.109 133.681 231.391 128.846 239.394C128.846 239.394 131.225 244.374 134.369 244.867Z" fill="#FEA900"/>
<path opacity="0.1" d="M73.4862 168.74C76.2352 157.241 84.6392 145.648 94.1332 142.158C107.867 137.048 119.108 151.645 122.329 167.081C123.272 171.643 123.915 177.015 123.691 181.577C123.247 189.66 121.634 198.728 119.22 206.112C115.416 217.754 108.874 237.678 97.5252 241.102C93.3722 242.387 87.5602 239.412 84.9572 234.804C75.3062 217.856 68.4842 189.587 73.4862 168.74Z" fill="#F3F2E4"/>
<path opacity="0.1" d="M73.8241 172.806C75.5291 165.718 80.7121 158.554 86.5701 156.399C95.0471 153.231 101.985 162.222 103.965 171.789C104.559 174.587 104.971 177.909 104.81 180.735C104.559 185.716 103.546 191.318 102.061 195.874C99.7001 203.062 95.6621 215.375 88.6761 217.485C86.0981 218.278 82.5281 216.419 80.8971 213.594C74.9491 203.112 70.7371 185.668 73.8241 172.806Z" fill="#F3F2E4"/>
<path d="M105.22 12.4072C105.22 12.4072 124.1 28.9292 126.443 51.5852C128.797 74.2582 139.5 48.7592 129.146 33.5192C118.783 18.2302 105.22 12.4072 105.22 12.4072Z" fill="#ADB5C0"/>
<path d="M150.692 10.5452C150.692 10.5452 129.79 21.2232 135.672 37.1102C140.415 49.8942 143.566 17.2872 150.692 10.5452Z" fill="#ADB5C0"/>
<path d="M191.167 314.224L185.491 308.968C185.156 309.856 184.259 310.498 183.313 310.578L188.129 316.969C188.864 317.782 190.13 317.846 190.942 317.111L191.024 317.036C191.837 316.302 191.901 315.036 191.167 314.224ZM188.146 315.616C187.962 315.426 187.755 315.197 187.54 314.947C187.434 314.821 187.32 314.694 187.213 314.559C187.105 314.424 186.995 314.288 186.885 314.151C186.779 314.011 186.672 313.872 186.568 313.734C186.462 313.597 186.367 313.456 186.269 313.323C186.078 313.055 185.906 312.799 185.766 312.574C185.481 312.129 185.32 311.808 185.32 311.808C185.32 311.808 185.592 312.041 185.956 312.425C186.14 312.615 186.347 312.843 186.562 313.093C186.668 313.219 186.782 313.346 186.889 313.481C186.997 313.615 187.108 313.752 187.218 313.889C187.324 314.029 187.431 314.168 187.535 314.306C187.641 314.442 187.737 314.583 187.834 314.716C188.025 314.984 188.197 315.24 188.338 315.464C188.623 315.91 188.783 316.23 188.783 316.23C188.783 316.23 188.51 315.999 188.146 315.616Z" fill="white"/>
<path d="M186.355 296.327C186.355 297.68 185.258 298.777 183.905 298.777C182.552 298.777 181.455 297.68 181.455 296.327C181.455 294.974 182.552 293.877 183.905 293.877C185.258 293.877 186.355 294.974 186.355 296.327Z" fill="white"/>
<path d="M176.203 305.113H184.994C184.969 306.858 184.835 307.98 184.593 308.477C184.35 308.975 183.784 309.298 182.895 309.446C181.915 309.611 180.397 309.693 178.339 309.693C174.618 309.693 172.207 309.607 171.104 309.434C170.544 309.344 170.124 309.185 169.845 308.959C169.565 308.733 169.359 308.385 169.228 307.916C169.022 307.126 168.919 305.467 168.919 302.94C168.919 301.245 168.979 300.012 169.098 299.242C169.217 298.473 169.433 297.94 169.746 297.643C170.083 297.322 170.771 297.1 171.808 296.976C172.845 296.853 174.545 296.791 176.907 296.791C178.251 296.791 179.431 296.814 180.447 296.86C180.42 296.686 180.402 296.509 180.402 296.327C180.402 295.807 180.518 295.315 180.722 294.871C180.626 294.867 180.533 294.862 180.433 294.858C178.988 294.796 177.686 294.765 176.525 294.765C172.994 294.765 170.625 294.958 169.42 295.345C168.214 295.732 167.451 296.547 167.13 297.79C166.792 299.099 166.624 300.922 166.624 303.259C166.624 306.626 166.933 308.799 167.55 309.778C168.101 310.651 168.994 311.186 170.229 311.383C171.645 311.605 174.061 311.716 177.477 311.716C181.107 311.716 183.44 311.547 184.477 311.21C185.243 310.955 185.81 310.609 186.181 310.173C186.551 309.737 186.823 309.087 186.996 308.222C187.152 307.44 187.239 305.745 187.255 303.135H176.205V305.113H176.203Z" fill="white"/>
<path d="M87.5761 144.555C66.1991 144.555 48.8071 124.295 48.8071 99.391C48.8071 74.487 66.1991 54.2271 87.5761 54.2271C108.953 54.2271 126.345 74.488 126.345 99.391C126.345 124.294 108.954 144.555 87.5761 144.555ZM87.5761 57.9641C68.3631 57.9641 52.7321 76.548 52.7321 99.391C52.7321 122.233 68.3631 140.817 87.5761 140.817C106.789 140.817 122.42 122.233 122.42 99.391C122.42 76.548 106.789 57.9641 87.5761 57.9641Z" fill="#010000"/>
<path d="M165.191 143.066C143.814 143.066 126.422 122.806 126.422 97.902C126.422 72.998 143.814 52.738 165.191 52.738C186.568 52.738 203.959 72.998 203.959 97.902C203.959 122.806 186.567 143.066 165.191 143.066ZM165.191 56.476C145.978 56.476 130.347 75.06 130.347 97.902C130.347 120.744 145.978 139.328 165.191 139.328C184.404 139.328 200.034 120.744 200.034 97.902C200.034 75.06 184.404 56.476 165.191 56.476Z" fill="#010000"/>
<path d="M196.239 75.3821H215.248L212.235 73.0891L193.844 71.5911L196.239 75.3821Z" fill="#010000"/>
<path d="M59.0041 71.5911L76.1921 73.6201L72.9961 76.4561H57.4651L59.0041 71.5911Z" fill="#010000"/>
<path opacity="0.17" d="M121.756 91.9851L81.8831 140.03C83.6941 140.377 85.5501 140.564 87.4431 140.564C90.5391 140.564 93.5401 140.075 96.3991 139.17L121.146 109.652C121.888 106.293 122.286 102.77 122.286 99.1381C122.286 96.6981 122.098 94.3101 121.756 91.9851ZM101.207 61.0881L55.6301 116.006C57.0091 119.668 58.8211 123.048 60.9901 126.057L109.999 67.6001C107.373 64.9411 104.415 62.7351 101.207 61.0881ZM112.859 70.8441L64.7771 130.562C65.3551 131.152 65.9431 131.726 66.5521 132.271L114.479 73.0441C113.962 72.2861 113.42 71.5551 112.859 70.8441Z" fill="white"/>
<path opacity="0.17" d="M199.504 90.7491L159.632 138.794C161.443 139.141 163.299 139.328 165.192 139.328C168.288 139.328 171.289 138.839 174.148 137.934L198.895 108.416C199.637 105.057 200.035 101.534 200.035 97.9021C200.034 95.462 199.846 93.0751 199.504 90.7491ZM178.954 59.8521L133.378 114.77C134.757 118.432 136.569 121.812 138.738 124.821L187.746 66.364C185.12 63.706 182.163 61.4991 178.954 59.8521ZM190.607 69.6081L142.525 129.326C143.102 129.916 143.691 130.49 144.3 131.035L192.227 71.808C191.709 71.051 191.167 70.3191 190.607 69.6081Z" fill="white"/>
<path d="M146.552 300.698V384.736H148.226V296.327L146.552 300.698Z" fill="white"/>
<path d="M149.131 299.244C149.131 300.17 148.38 300.92 147.455 300.92C146.529 300.92 145.779 300.17 145.779 299.244C145.779 298.318 146.53 297.568 147.455 297.568C148.38 297.568 149.131 298.319 149.131 299.244Z" fill="white"/>
<path d="M149.131 320.332C149.131 321.258 148.38 322.008 147.455 322.008C146.529 322.008 145.779 321.258 145.779 320.332C145.779 319.406 146.53 318.656 147.455 318.656C148.38 318.655 149.131 319.406 149.131 320.332Z" fill="white"/>
<path d="M149.131 341.419C149.131 342.345 148.38 343.095 147.455 343.095C146.529 343.095 145.779 342.345 145.779 341.419C145.779 340.493 146.53 339.743 147.455 339.743C148.38 339.743 149.131 340.493 149.131 341.419Z" fill="white"/>
<path d="M149.131 362.506C149.131 363.432 148.38 364.182 147.455 364.182C146.529 364.182 145.779 363.432 145.779 362.506C145.779 361.58 146.53 360.83 147.455 360.83C148.38 360.83 149.131 361.58 149.131 362.506Z" fill="white"/>
<path d="M83.8381 352.094C82.8821 350.905 81.7681 349.252 80.2611 346.967C75.1661 339.242 65.3041 324.613 64.9751 323.134C64.6461 321.655 72.6011 316.56 72.6011 316.56C72.6011 316.56 83.8381 287.359 48.0451 278.92C48.0451 278.92 32.1021 293.384 26.1851 300.287C20.2681 307.19 21.9111 313.929 27.5001 323.956C33.0881 333.982 52.4831 360.281 64.1531 364.719C67.3221 366.137 69.5571 368.018 71.1221 369.465C77.2411 360.695 82.2021 354.206 83.8381 352.094Z" fill="#0F4C81"/>
<path d="M83.838 352.094L88.427 354.083L72.602 373.939L68.864 370.488L83.838 352.094Z" fill="#0F4C81"/>
<path d="M73.563 367.783C73.563 368.712 72.81 369.465 71.881 369.465C70.952 369.465 70.199 368.712 70.199 367.783C70.199 366.854 70.952 366.101 71.881 366.101C72.81 366.101 73.563 366.854 73.563 367.783Z" fill="white"/>
<path d="M205.22 352.094L200.631 354.083L216.456 373.939L220.195 370.488L205.22 352.094Z" fill="#0F4C81"/>
<path d="M215.496 367.783C215.496 368.712 216.249 369.465 217.178 369.465C218.107 369.465 218.86 368.712 218.86 367.783C218.86 366.854 218.107 366.101 217.178 366.101C216.249 366.101 215.496 366.854 215.496 367.783Z" fill="white"/>
<path d="M66.2632 366.782L81.8472 347.042L80.4312 345.094L63.6082 366.101L66.2632 366.782Z" fill="black"/>
<path d="M207.48 349.321L224.34 368.244L222.339 369.464L205.715 350.774L207.48 349.321Z" fill="black"/>
<defs>
<radialGradient id="paint0_radial_151_187" cx="0" cy="0" r="1" gradientUnits="userSpaceOnUse" gradientTransform="translate(173.334 104.442) rotate(-2.70393) scale(50.4128 47.2854)">
<stop stop-color="white"/>
<stop offset="0.4996" stop-color="#FDFDFD"/>
<stop offset="0.6917" stop-color="#F6F6F6"/>
<stop offset="0.8307" stop-color="#EAEBEA"/>
<stop offset="0.9435" stop-color="#D9DAD9"/>
<stop offset="0.992" stop-color="#CFD0CF"/>
</radialGradient>
<radialGradient id="paint1_radial_151_187" cx="0" cy="0" r="1" gradientUnits="userSpaceOnUse" gradientTransform="translate(164.359 96.2114) rotate(-10.5222) scale(24.8311 24.8311)">
<stop stop-color="white"/>
<stop offset="0.0019" stop-color="#FEFEFE"/>
<stop offset="0.1688" stop-color="#BCBCBC"/>
<stop offset="0.3328" stop-color="#838383"/>
<stop offset="0.4898" stop-color="#555454"/>
<stop offset="0.6383" stop-color="#302F2F"/>
<stop offset="0.7764" stop-color="#161515"/>
<stop offset="0.9001" stop-color="#070606"/>
<stop offset="0.9973" stop-color="#010000"/>
</radialGradient>
<radialGradient id="paint2_radial_151_187" cx="0" cy="0" r="1" gradientUnits="userSpaceOnUse" gradientTransform="translate(107.736 107.791) rotate(-2.70393) scale(42.3478 39.7207)">
<stop stop-color="white"/>
<stop offset="0.4996" stop-color="#FDFDFD"/>
<stop offset="0.6917" stop-color="#F6F6F6"/>
<stop offset="0.8307" stop-color="#EAEBEA"/>
<stop offset="0.9435" stop-color="#D9DAD9"/>
<stop offset="0.992" stop-color="#CFD0CF"/>
</radialGradient>
<radialGradient id="paint3_radial_151_187" cx="0" cy="0" r="1" gradientUnits="userSpaceOnUse" gradientTransform="translate(100.195 100.882) rotate(-10.5222) scale(20.871 20.871)">
<stop stop-color="white"/>
<stop offset="0.0019" stop-color="#FEFEFE"/>
<stop offset="0.1688" stop-color="#BCBCBC"/>
<stop offset="0.3328" stop-color="#838383"/>
<stop offset="0.4898" stop-color="#555454"/>
<stop offset="0.6383" stop-color="#302F2F"/>
<stop offset="0.7764" stop-color="#161515"/>
<stop offset="0.9001" stop-color="#070606"/>
<stop offset="0.9973" stop-color="#010000"/>
</radialGradient>
<linearGradient id="paint4_linear_151_187" x1="136.52" y1="248.32" x2="140.002" y2="230.018" gradientUnits="userSpaceOnUse">
<stop stop-color="#FFDF8E"/>
<stop offset="0.1531" stop-color="#FFD97F"/>
<stop offset="0.4473" stop-color="#FFCA58"/>
<stop offset="0.8492" stop-color="#FEB319"/>
<stop offset="1" stop-color="#FEA900"/>
</linearGradient>
<linearGradient id="paint5_linear_151_187" x1="122.167" y1="224.63" x2="173.658" y2="200.198" gradientUnits="userSpaceOnUse">
<stop stop-color="#931300"/>
<stop offset="0.153" stop-color="#840E00"/>
<stop offset="0.4456" stop-color="#5D0200"/>
<stop offset="0.4951" stop-color="#560000"/>
</linearGradient>
</defs>
</svg>
