<svg width="301" height="500" viewBox="0 0 301 500" fill="none" xmlns="http://www.w3.org/2000/svg">
<path d="M168.863 397.939C170.395 408.474 177.154 442.217 177.154 466.83V469.666C177.045 471.745 177.288 471.322 177.444 471.275C181.027 470.189 210.376 468.887 210.376 468.887L210.211 462.154L207.866 386.922L209.018 384.866C209.018 384.866 215.122 388.902 216.238 388.772C217.473 388.628 218.481 384.335 218.481 384.335C219.174 382.212 233.429 330.203 232.74 284.277C232.306 255.305 229.201 240.387 218.843 232.347C213.573 228.261 194.557 227.773 187.86 228.72L187.47 228.802C182.507 230.22 180.674 231.016 180.203 231.238V229.334L175.577 232.84C165.716 240.314 155.164 241.286 143.329 235.825L137.765 233.258C135.906 230.641 131.103 229.1 127.31 228.574C121.171 227.712 107.67 229.425 102.025 235.138C94.069 243.189 85.368 258.138 86.332 298.4C87.253 336.899 95.152 370.326 98.544 383.101C99.355 386.156 102.477 387.977 105.54 387.196L109.808 386.107L109.807 466.431C109.807 466.431 109.553 469.851 111 470.076C109.697 472.327 108.973 474.932 108.973 477.538C108.973 480.144 108.973 480.144 108.973 480.144C108.973 480.144 107.94 487.243 109.248 492.086C109.709 493.791 111.262 494.97 113.028 494.97H140.674C143.156 494.97 144.636 493.213 145.393 492.354C146.615 490.971 146.746 489.349 146.725 488.555C146.863 487.175 157.161 480.053 157.755 478.77C158.513 477.13 159.871 472.402 156.814 472.473C156.829 471.992 147.893 471.224 144.431 471.036L151.559 403.448L168.863 397.939Z" fill="black"/>
<path d="M112.691 378.39C112.691 378.39 120.045 373.85 122.488 365.639C123.425 362.489 136.797 363.153 145.541 364.002C161.535 365.555 178.123 365.162 189.42 364.538C197.921 364.068 203.975 377.923 203.975 377.923L207.385 467.751C207.385 467.751 194.365 467.611 180.939 467.611C180.939 437.586 171.213 394.165 171.213 394.165L148.822 401.289L140.819 466.428C140.819 466.428 124.218 467.143 113.46 466.428C113.461 411.977 112.691 378.39 112.691 378.39Z" fill="#2E3235"/>
<path d="M229.7 282.731C228.683 247.535 229.764 228.309 188.261 231.574C182.918 233.1 181.391 233.864 181.391 233.864C181.391 233.864 160.217 253.042 135.591 235.136C134.065 232.083 112.691 229.811 103.762 239.045C98.516 244.471 88.197 255.834 89.214 298.327C90.232 340.82 100.386 376.17 102.676 384.312C102.167 377.188 114.726 365.096 114.726 365.096C114.726 365.096 111.418 319.867 112.69 305.363C113.962 290.86 117.016 270.504 117.016 270.504C117.016 270.504 115.998 304.854 115.998 316.559C115.998 328.264 117.464 357.616 117.464 357.616C117.464 357.616 155.993 367.396 203.783 360.324C203.783 336.406 198.439 272.794 198.439 272.794C198.439 272.794 204.546 281.7 205.054 295.186C205.563 308.671 211.416 355.489 205.054 364.396L215.738 383.439C215.738 383.439 231.023 328.542 229.7 282.731Z" fill="#0F4C81"/>
<path d="M181.392 233.864C181.392 233.864 162.412 251.032 139.494 237.671L132.533 240.462L151.498 259.661L156.722 275.855L166.164 255.804L182.575 233.384C181.717 233.703 181.392 233.864 181.392 233.864Z" fill="#9EA7B6"/>
<path d="M159.405 278.25V362.551H154.964L154.353 278.25H159.405Z" fill="black"/>
<path d="M154.353 278.25L148.165 261.264L130.794 270.492L122.488 227.44L127.613 227.171L152.905 257.899L156.886 272.591L163.328 256.306L189.847 221.876L192.751 222.672L184.003 270.384L166.187 261.775L159.147 278.846L154.353 278.25Z" fill="black"/>
<path d="M156.879 283.905L155.282 276.79L149.254 259.014L131.477 267.902L124.676 227.171L126.053 229.418L151.263 259.014L156.722 274.063L165.33 256.849L190.99 224.697L182.642 267.824L165.639 259.632L156.879 283.905Z" fill="white"/>
<path d="M156.722 283.205V362.239H158.296V279.094L156.722 283.205Z" fill="white"/>
<path d="M159.147 281.838C159.147 282.709 158.441 283.414 157.571 283.414C156.7 283.414 155.994 282.708 155.994 281.838C155.994 280.967 156.7 280.262 157.571 280.262C158.441 280.261 159.147 280.967 159.147 281.838Z" fill="white"/>
<path d="M159.147 301.669C159.147 302.54 158.441 303.245 157.571 303.245C156.7 303.245 155.994 302.539 155.994 301.669C155.994 300.798 156.7 300.092 157.571 300.092C158.441 300.093 159.147 300.799 159.147 301.669Z" fill="white"/>
<path d="M159.147 321.501C159.147 322.372 158.441 323.077 157.571 323.077C156.7 323.077 155.994 322.371 155.994 321.501C155.994 320.63 156.7 319.925 157.571 319.925C158.441 319.924 159.147 320.63 159.147 321.501Z" fill="white"/>
<path d="M159.147 341.332C159.147 342.203 158.441 342.908 157.571 342.908C156.7 342.908 155.994 342.202 155.994 341.332C155.994 340.461 156.7 339.755 157.571 339.755C158.441 339.756 159.147 340.462 159.147 341.332Z" fill="white"/>
<path d="M116.768 370.45C116.768 370.45 109.806 375.207 107.105 382.377L115.448 389.926C115.448 389.926 119.646 376.695 126.431 374.659C121.11 368.891 116.768 370.45 116.768 370.45Z" fill="#9EA7B6"/>
<path d="M201.831 367.674C201.831 367.674 209.335 375.206 211.027 381.49L204.588 386.872C204.588 386.872 200.391 373.641 193.605 371.605C198.927 365.838 201.831 367.674 201.831 367.674Z" fill="#9EA7B6"/>
<path d="M114.727 389.925C114.727 389.925 119.477 376.524 129.824 372.623L131.69 375.167C131.69 375.167 122.869 376.524 116.084 392.13L114.727 389.925Z" fill="black"/>
<path d="M204.72 386.384C204.72 386.384 199.97 372.983 189.623 369.082L187.757 371.626C187.757 371.626 196.578 372.983 203.363 388.589L204.72 386.384Z" fill="black"/>
<path d="M162.49 479.613C162.488 477.433 161.415 475.049 159.689 473.394C158.209 471.975 156.377 471.223 154.565 471.308L152.078 471.417C150.253 471.5 147.865 471.609 145.478 471.702C145.446 471.175 145.244 470.661 144.884 470.247C144.624 469.947 142.225 467.322 137.606 467.64C136.299 467.729 132.581 467.867 128.646 468.014C114.144 468.555 113.942 468.638 113.269 468.914C111.197 469.77 110.694 472.396 110.576 476.075C110.528 477.576 110.532 478.443 110.55 478.956C110.334 479.684 109.989 481.052 109.989 482.361C109.989 483.752 110.328 488.594 110.404 489.663C110.379 490.379 110.452 492.197 111.702 493.561C112.29 494.203 113.347 494.967 115.047 494.967H159.107C159.89 494.967 160.632 494.657 161.193 494.095C162.5 492.785 162.496 490.517 162.49 487.085L162.489 486.419L162.49 479.613Z" fill="black"/>
<path d="M143.023 471.856C143.023 471.856 141.291 469.854 137.772 470.093C134.254 470.332 114.962 470.876 114.208 471.187C113.454 471.498 113.119 473.527 113.035 476.153C112.951 478.779 113.035 479.256 113.035 479.256C113.035 479.256 112.449 480.927 112.449 482.359C112.449 483.791 112.868 489.64 112.868 489.64C112.868 489.64 112.617 492.505 115.046 492.505C117.475 492.505 158.1 492.505 159.105 492.505C160.11 492.505 160.026 489.521 160.026 486.418C160.026 483.315 160.029 482.24 160.028 479.615C160.027 476.99 157.597 473.647 154.665 473.766C151.733 473.885 142.352 474.363 137.913 474.363C133.474 474.363 128.197 476.273 126.019 483.076C126.019 483.076 125.6 476.392 131.128 474.243C136.657 472.095 143.023 471.856 143.023 471.856Z" fill="#1A1A1A"/>
<path d="M212.852 482.108C212.852 480.787 212.532 479.416 212.317 478.641C212.333 478.103 212.333 477.236 212.289 475.808C212.169 471.908 211.617 469.107 209.309 468.111C208.523 467.772 208.337 467.692 194.283 467.145C190.529 466.998 186.985 466.86 185.746 466.773C180.954 466.446 178.407 469.314 178.135 469.644C177.847 469.991 177.645 470.39 177.533 470.81C175.504 470.725 173.517 470.631 171.96 470.556L169.485 470.442C167.602 470.369 165.684 471.128 164.146 472.604C162.296 474.376 161.146 476.967 161.144 479.363L161.145 486.168L161.144 486.823C161.138 490.43 161.133 492.813 162.608 494.29C163.278 494.963 164.166 495.333 165.105 495.333H207.289C208.745 495.333 210.061 494.775 210.991 493.763C212.376 492.257 212.477 490.245 212.455 489.425C212.531 488.305 212.852 483.506 212.852 482.108Z" fill="black"/>
<path d="M180.504 471.605C180.504 471.605 182.163 469.603 185.531 469.842C188.899 470.081 207.371 470.625 208.092 470.936C208.814 471.247 209.135 473.276 209.215 475.902C209.295 478.528 209.215 479.005 209.215 479.005C209.215 479.005 209.776 480.676 209.776 482.108C209.776 483.54 209.375 489.389 209.375 489.389C209.375 489.389 209.616 492.254 207.29 492.254C204.964 492.254 166.068 492.254 165.105 492.254C164.142 492.254 164.223 489.27 164.223 486.167C164.223 483.064 164.22 481.989 164.221 479.364C164.223 476.738 166.548 473.396 169.355 473.515C172.162 473.634 181.144 474.112 185.395 474.112C189.646 474.112 194.698 476.022 196.783 482.825C196.783 482.825 197.184 476.141 191.891 473.992C186.599 471.844 180.504 471.605 180.504 471.605Z" fill="#1A1A1A"/>
<path d="M166.481 395.672C166.481 395.672 174.151 392.819 178.9 392.131L170.418 397.21L166.481 395.672Z" fill="black"/>
<path d="M152.894 399.995L138.189 405.521L149.769 404.334L152.894 399.995Z" fill="black"/>
<path d="M196.72 291.777L191.118 286.59C190.787 287.466 189.902 288.1 188.968 288.179L193.721 294.486C194.446 295.288 195.695 295.352 196.498 294.627L196.579 294.554C197.382 293.829 197.445 292.579 196.72 291.777ZM193.739 293.151C193.558 292.963 193.353 292.738 193.141 292.491C193.037 292.366 192.924 292.242 192.818 292.108C192.711 291.975 192.602 291.84 192.494 291.705C192.389 291.567 192.284 291.429 192.181 291.293C192.077 291.158 191.982 291.019 191.887 290.888C191.698 290.623 191.529 290.371 191.39 290.149C191.108 289.71 190.95 289.393 190.95 289.393C190.95 289.393 191.219 289.623 191.578 290.002C191.759 290.19 191.964 290.415 192.176 290.662C192.281 290.787 192.393 290.911 192.499 291.045C192.606 291.178 192.715 291.313 192.824 291.448C192.929 291.586 193.034 291.724 193.137 291.859C193.242 291.993 193.336 292.133 193.432 292.264C193.621 292.529 193.79 292.781 193.929 293.002C194.21 293.442 194.369 293.758 194.369 293.758C194.369 293.758 194.098 293.529 193.739 293.151Z" fill="white"/>
<path d="M191.971 274.114C191.971 275.449 190.888 276.532 189.553 276.532C188.218 276.532 187.135 275.449 187.135 274.114C187.135 272.778 188.218 271.696 189.553 271.696C190.889 271.696 191.971 272.779 191.971 274.114Z" fill="white"/>
<path d="M181.952 282.785H190.628C190.604 284.507 190.472 285.614 190.232 286.105C189.992 286.597 189.434 286.916 188.556 287.062C187.589 287.225 186.091 287.306 184.06 287.306C180.388 287.306 178.008 287.221 176.919 287.05C176.366 286.961 175.952 286.805 175.676 286.581C175.4 286.358 175.197 286.015 175.067 285.551C174.864 284.771 174.762 283.134 174.762 280.64C174.762 278.967 174.821 277.75 174.939 276.99C175.057 276.231 175.27 275.704 175.579 275.412C175.912 275.095 176.59 274.876 177.614 274.754C178.638 274.632 180.315 274.571 182.647 274.571C183.973 274.571 185.138 274.594 186.14 274.639C186.114 274.467 186.096 274.292 186.096 274.113C186.096 273.6 186.211 273.114 186.411 272.676C186.316 272.672 186.224 272.667 186.125 272.663C184.699 272.602 183.414 272.572 182.268 272.572C178.783 272.572 176.445 272.763 175.255 273.145C174.065 273.527 173.311 274.331 172.994 275.558C172.661 276.85 172.494 278.649 172.494 280.956C172.494 284.279 172.799 286.424 173.408 287.39C173.952 288.251 174.834 288.779 176.052 288.974C177.449 289.193 179.834 289.303 183.205 289.303C186.787 289.303 189.09 289.137 190.114 288.804C190.87 288.552 191.43 288.211 191.796 287.78C192.162 287.349 192.43 286.708 192.6 285.855C192.754 285.083 192.839 283.41 192.856 280.835H181.95V282.785H181.952Z" fill="white"/>
<path d="M206.033 353.48C206.033 353.48 218.804 372.137 218.952 377.134C218.409 378.884 218.409 378.884 218.409 378.884C218.409 378.884 209.507 362.49 205.49 357.171C205.598 354.674 206.033 353.48 206.033 353.48Z" fill="black"/>
<path d="M115.27 357.678C115.27 357.678 103.436 366.255 98.334 375.7C96.814 373.746 97.248 371.647 97.248 371.647C97.248 371.647 103.545 361.152 115.27 354.095V357.678Z" fill="black"/>
<path d="M101.881 377.545C102.381 377.545 102.786 376.443 102.786 375.084C102.786 373.725 102.381 372.623 101.881 372.623C101.381 372.623 100.976 373.725 100.976 375.084C100.976 376.443 101.381 377.545 101.881 377.545Z" fill="white"/>
<path d="M215.08 380.092C215.639 380.092 216.093 378.971 216.093 377.588C216.093 376.205 215.639 375.084 215.08 375.084C214.521 375.084 214.067 376.205 214.067 377.588C214.067 378.971 214.521 380.092 215.08 380.092Z" fill="white"/>
<path d="M273.829 153.07L274.16 153.346L270.214 145.21L269.799 144.31C264.066 131.849 255.742 126.784 250.668 124.771C255.792 119.978 256.509 114.499 256.073 110.458C255.612 106.044 253.706 102.805 253.625 102.669L251.56 98.9669L251.47 99.1649L251.464 99.1539L249.774 102.942C249.765 102.96 248.949 104.76 247.528 106.524L249.204 107.875L247.45 106.62C247.345 106.747 247.236 106.874 247.125 107L246.689 107.472C245.208 108.99 243.718 109.752 242.202 109.735C242.191 109.735 242.181 109.735 242.17 109.735C242.012 109.73 241.854 109.714 241.695 109.692L241.255 109.612C241.117 109.578 240.977 109.536 240.838 109.489L240.639 109.419C240.469 109.355 240.297 109.285 240.126 109.202L239.187 111.14L239.996 109.136C239.536 108.903 239.074 108.611 238.597 108.248C238.334 108.046 238.066 107.824 237.793 107.575C236.907 106.772 235.999 105.744 235.094 104.52L234.822 104.15C233.409 102.182 231.976 99.6989 230.555 96.7599L230.571 96.7519C230.512 96.6149 230.448 96.4769 230.382 96.3399L230.243 96.0359C219.9 74.0939 205.665 63.8579 198.157 59.7119C196.752 58.9359 195.469 58.3829 194.054 57.7649C194.054 57.7649 188.509 39.6369 172.193 36.7929C168.407 36.1329 165.527 36.4109 161.765 37.8309C156.921 34.2209 153.896 29.3679 153.242 24.6259C152.027 15.8009 158.516 7.8369 158.58 7.7599L161.479 4.2809C160.941 4.2529 160.217 4.2279 159.348 4.2559L159.068 4.2529C159.068 4.2529 159.039 4.2589 158.986 4.2699C157.14 4.3599 154.67 4.7169 151.765 5.7829C151.673 5.8049 151.603 5.8229 151.583 5.8309L151.1 6.0229C150.93 6.0899 150.758 6.1559 150.592 6.2269C150.431 6.2959 150.279 6.3679 150.124 6.4389C150.021 6.4839 149.916 6.5329 149.811 6.5809C149.789 6.5909 149.766 6.6009 149.744 6.6109L149.377 6.7799C149.213 6.8539 149.049 6.9289 148.89 7.0079C148.806 7.0489 148.727 7.0929 148.644 7.1359C148.634 7.1409 148.623 7.1469 148.612 7.1519C148.429 7.2459 148.245 7.3399 148.066 7.4359L147.75 7.6019C147.595 7.6839 147.439 7.7649 147.291 7.8489C147.013 8.0049 146.747 8.1659 146.411 8.3709L146.249 8.4679C146.097 8.5589 145.945 8.6499 145.792 8.7469C145.55 8.9019 145.318 9.0589 144.988 9.2839L144.842 9.3839C144.692 9.4849 144.543 9.5869 144.397 9.6909C144.354 9.7219 144.314 9.7539 144.271 9.7849C144.259 9.7929 144.248 9.7999 144.236 9.8079C144.182 9.8459 144.135 9.8879 144.081 9.9259C143.971 10.0079 143.859 10.0899 143.751 10.1729L143.754 10.1759C143.698 10.2179 143.645 10.2599 143.589 10.3019L143.586 10.2989C143.426 10.4209 143.267 10.5429 143.115 10.6649C142.302 11.3119 141.558 11.9849 140.871 12.6739C140.839 12.7049 140.807 12.7349 140.776 12.7659C140.74 12.8019 140.707 12.8379 140.671 12.8739C140.432 13.1189 140.198 13.3629 139.974 13.6099C139.902 13.6879 139.826 13.7659 139.758 13.8429C139.614 14.0029 139.476 14.1639 139.342 14.3219C139.307 14.3629 139.274 14.4039 139.239 14.4449C139.196 14.4959 139.153 14.5469 139.111 14.5979C139.013 14.7149 138.911 14.8329 138.818 14.9489L138.472 15.3889C138.296 15.6169 138.124 15.8449 137.963 16.0669L137.681 16.4619C137.509 16.7079 137.342 16.9529 137.179 17.2029L136.968 17.5319C136.798 17.7999 136.635 18.0669 136.476 18.3369L136.328 18.5919C136.159 18.8859 135.999 19.1779 135.852 19.4559L135.75 19.6489C135.585 19.9669 135.43 20.2819 135.241 20.6799C135.212 20.7419 135.192 20.7989 135.164 20.8599C134.184 22.9519 133.801 24.3989 133.801 24.3989C125.71 11.9129 114.398 7.1629 107.842 5.3769C107.609 5.3139 107.384 5.2549 107.182 5.2049L106.527 5.0449C104.562 4.5839 103.325 4.4579 103.273 4.4529L97.696 3.8999L101.468 8.0449C107.514 14.6869 112.293 21.9149 114.214 27.6369C117.151 36.3859 117.278 43.0259 116.502 46.1399C111.25 43.3289 106.927 43.1729 102.545 45.0379C93.436 48.9139 87.464 58.8409 85.132 64.3469C81.262 67.6389 75.22 72.9869 71.679 77.6699L68.016 82.5139L68.399 82.4199C57.91 98.1129 52.28 115.586 50.234 122.846C50.137 123.192 50.03 123.54 49.91 123.908L49.575 124.844C48.675 127.356 47.507 129.406 46.105 130.933C45.935 131.117 45.762 131.288 45.585 131.459L45.476 131.57C40.198 136.488 33.226 133.583 32.941 133.461L27.621 131.184L27.656 131.257L27.63 131.245L30.109 136.408C34.028 144.567 38.862 146.798 42.514 147.103C36.535 155.742 37.036 166.284 37.061 166.747L37.495 174.67L40.441 168.944L41.139 167.656C42.58 164.998 44.98 162.81 47.286 161.164C39.963 178.086 45.906 193.976 46.196 194.728L50.702 206.472L50.385 193.9C50.326 191.579 51.075 189.01 52.131 186.572C52.148 202.63 64.112 215.216 64.742 215.867L74.112 225.547L69.2 215.435L68.266 213.416C68.197 213.267 68.091 212.988 67.98 212.516C67.852 211.958 67.75 211.298 67.669 210.567C72.209 220.064 78.694 227.809 79.089 228.278L82.704 232.5L82.707 232.418L82.756 232.475L82.838 229.952C88.132 238.093 95.105 242.681 96.468 243.529C101.354 249.114 105.87 252.84 109.89 254.601C111.658 255.383 113.329 255.783 114.889 255.801C116.424 255.819 117.854 255.466 119.167 254.744C121.43 253.499 123.168 251.219 124.361 247.938C125.403 249.331 126.707 250.583 128.328 251.422C131.166 252.9 134.474 252.841 137.89 251.258C140.025 250.279 142.307 248.659 144.671 246.445C145.188 245.961 145.698 245.481 146.202 245.003L146.838 244.9C174.53 240.626 188.568 232.021 195.666 224.7C195.167 225.979 194.801 226.78 194.788 226.805L192.778 231.174L192.807 231.165L192.772 231.243L196.629 230.006L197.403 229.771C207.716 226.642 214.557 221.386 219.096 215.83L218.348 217.781L223.395 214.834L223.585 214.732C240.822 205.524 243.69 192.626 243.35 184.081C244.985 187.902 245.885 191.144 245.902 191.205L247.115 195.755L249.786 191.854C257.283 180.895 255.133 170.158 253.019 164.457C259.589 166.791 261.466 171.641 261.551 171.87L264.957 181.442L264.995 180.936L265.002 180.952L265.046 180.385L265.626 181.806L265.745 171.447L265.755 171.32C266.066 167.345 265.638 163.484 264.482 159.85C264.043 158.458 263.51 157.141 262.904 155.896L262.7 154.814L262.655 155.394C259.455 149.109 254.451 144.725 250.611 142.057C251.004 142.04 251.396 142.032 251.785 142.033C260.777 142.048 266.341 146.822 266.388 146.864L273.611 153.263L273.405 152.784L273.887 153.195L273.829 153.07Z" fill="black"/>
<path d="M117.667 48.7128C117.667 48.7128 126.707 32.5518 103.06 6.59584C103.06 6.59584 124.059 8.61184 134.804 30.6218C134.804 30.6218 135.161 11.8868 156.887 6.38184C156.887 6.38184 140.664 25.8178 161.524 39.8758C161.524 39.8758 181.215 29.9448 192.442 58.9018C192.442 58.9018 214.573 67.8918 228.243 96.9268C241.916 125.988 251.775 103.772 251.775 103.772C251.775 103.772 259.629 116.938 245.954 125.634C245.954 125.634 259.659 127.425 267.841 145.21C267.841 145.21 258.732 137.132 244.238 140.815C244.238 140.815 265.247 149.98 263.593 171.128C263.593 171.128 260.692 162.884 249.173 161.287C249.173 161.287 258.212 175.698 247.998 190.591C247.998 190.591 244.512 177.831 238.367 172.257C238.367 172.257 251.184 197.504 222.571 212.789C222.571 212.789 226.946 201.489 225.871 193.273C225.871 193.273 225.414 218.952 196.768 227.666C196.768 227.666 200.828 218.879 200.676 212.096C200.676 212.096 197.384 234.874 146.484 242.721C146.484 242.721 161.416 228.96 164.088 221.741L97.831 241.766C97.831 241.766 85.865 234.706 80.937 221.367L80.769 226.838C80.769 226.838 66.927 210.459 65.548 196.415C65.548 196.415 64.493 210.388 66.311 214.322C66.311 214.322 48.045 195.488 56.625 175.077C56.625 175.077 48.001 185.628 48.218 193.909C48.218 193.909 40.578 174.077 52.736 155.6C52.736 155.6 43.125 159.422 39.245 166.604C39.245 166.604 38.396 151.094 49.372 143.064C49.372 143.064 39.383 150.666 32.075 135.433C32.075 135.433 47.0919 142.009 52.306 123.429C57.543 104.846 68.969 78.9188 86.695 65.3738C86.695 65.3738 97.459 37.3458 117.667 48.7128Z" fill="#ADB5C0"/>
<path d="M245.916 125.686C259.591 116.983 251.74 103.821 251.74 103.821C251.74 103.821 242.337 125.014 229.132 98.8489C234.303 111.077 226.242 124.125 208.46 115.208C189.76 105.853 172.053 117.141 158.205 132.947C144.373 148.75 107.545 106.863 70.964 125.949C55.985 133.776 51.8909 131.212 51.6019 125.568C45.8959 141.511 32.049 135.474 32.049 135.474C39.358 150.69 49.354 143.088 49.354 143.088C38.36 151.141 39.2099 166.628 39.2099 166.628C43.1039 159.445 52.724 155.617 52.724 155.617C40.556 174.101 48.205 193.953 48.205 193.953C47.975 185.652 56.5929 175.1 56.5929 175.1C48.0329 195.511 66.289 214.368 66.289 214.368C64.472 210.428 65.533 196.432 65.533 196.432C66.892 210.502 80.734 226.887 80.734 226.887L80.916 221.409C85.841 234.728 97.787 241.811 97.787 241.811L164.064 221.786C161.396 228.976 146.463 242.769 146.463 242.769C197.36 234.916 200.651 212.112 200.651 212.112C200.809 218.947 196.743 227.708 196.743 227.708C225.395 218.994 225.852 193.322 225.852 193.322C226.924 201.511 222.552 212.831 222.552 212.831C251.162 197.546 238.328 172.299 238.328 172.299C244.49 177.843 247.979 190.637 247.979 190.637C258.194 175.721 249.154 161.327 249.154 161.327C260.671 162.909 263.581 171.152 263.581 171.152C265.227 150.03 244.216 140.839 244.216 140.839C258.707 137.156 267.819 145.254 267.819 145.254C259.637 127.474 245.916 125.686 245.916 125.686Z" fill="#9EA7B6"/>
<path d="M228.293 96.9538C214.593 67.8928 192.489 58.9028 192.489 58.9028C186.878 44.4058 179.136 39.6588 172.799 38.5408C166.586 37.4178 161.736 39.7898 161.548 39.8768C140.734 25.7958 156.924 6.38284 156.924 6.38284C156.911 6.38284 156.887 6.40184 156.887 6.40184V6.38184C135.886 11.7118 134.841 29.3838 134.805 30.5498C125.731 12.0338 109.401 7.71984 104.516 6.82184C103.598 6.65384 103.06 6.59484 103.06 6.59484C126.535 32.3848 117.798 48.4868 117.667 48.6958C115.153 47.2898 112.784 46.4908 110.574 46.1668C94.9359 43.8638 86.6949 65.3728 86.6949 65.3728C86.7219 65.3468 86.7219 65.3308 86.7549 65.2788C86.7449 65.3308 86.7209 65.3738 86.7209 65.3738C81.8979 69.0728 77.5349 73.7078 73.6279 78.8568C73.7099 78.8318 73.7499 78.8318 73.7499 78.8318C73.7499 78.8318 77.9429 73.6178 87.8849 67.2298L81.8939 75.6888C81.8939 75.6888 89.4419 69.8788 98.2979 69.6558C104.704 75.1078 109.049 89.4938 109.049 89.4938L108.66 135.516C108.66 135.516 163.505 173.629 147.811 133.687C137.869 108.427 148.287 86.3818 157.275 73.5978L175.244 72.8258L181.098 72.5418C181.098 72.5418 182.012 66.7278 179.086 62.9918C179.086 62.9918 195.664 70.3318 205.165 81.2128L200.732 71.5818C200.732 71.5818 215.714 74.8788 227.352 95.5658C227.806 96.3888 228.222 97.0408 228.584 97.5868C228.495 97.3758 228.383 97.1648 228.293 96.9538Z" fill="#D9DCE1"/>
<path d="M245.955 125.686C259.643 116.983 251.776 103.821 251.776 103.821C251.776 103.821 244.312 120.604 233.363 105.8C233.474 106.383 233.609 106.966 233.717 107.526C236.069 119.492 247.692 116.38 247.692 116.38C247.692 116.38 241.018 125.305 230.435 118.931C230.435 118.931 234.124 140.584 246.637 149.23C246.637 149.23 241.97 151.693 233.585 145.213C237.962 149.387 245.804 158.781 247.66 173.927C247.66 173.927 238.804 157.622 226.916 152.59C226.916 152.59 239.298 165.161 233.423 188.862C233.423 188.862 231.731 173.461 223.496 167.962C223.496 167.962 226.924 190.347 209.821 207.211C209.821 207.211 216.486 193.05 212.111 181.58C212.111 181.58 206.758 199.929 186.341 214.125C186.341 214.125 202.421 191.136 201.245 174.9C201.245 174.9 183.54 210.636 160.204 213.281C136.868 215.949 76.1909 164.214 76.1909 164.214C76.1909 164.214 71.2409 182.051 72.6079 199.988C72.6079 199.988 66.9609 182.517 69.2919 166.158C69.2919 166.158 63.8949 175.255 63.0009 184.358C63.0009 184.358 60.8639 163.449 70.7559 151.122C70.7559 151.122 62.5879 155.476 55.6749 165.837C55.6749 165.837 60.9489 146.045 68.9869 138.138C68.9869 138.138 57.4489 144.98 51.3219 149.893C51.3219 149.893 51.7129 141.625 58.8919 134.435C58.8919 134.435 41.7289 147.336 32.1019 135.477C39.3939 150.693 49.3729 143.091 49.3729 143.091C38.4229 151.145 39.2459 166.631 39.2459 166.631C43.1259 159.475 52.7509 155.62 52.7509 155.62C40.5959 174.104 48.2319 193.956 48.2319 193.956C48.0219 185.655 56.6259 175.104 56.6259 175.104C48.0589 195.541 66.3249 214.392 66.3249 214.392C64.5179 210.432 65.5619 196.462 65.5619 196.462C66.9409 210.506 80.7829 226.891 80.7829 226.891L80.9609 221.413C85.8769 234.732 97.8319 241.815 97.8319 241.815L164.089 221.79C161.44 229.007 146.508 242.774 146.508 242.774C197.405 234.921 200.697 212.117 200.697 212.117C200.828 218.952 196.778 227.713 196.778 227.713C225.414 219.025 225.887 193.327 225.887 193.327C226.965 201.516 222.571 212.836 222.571 212.836C251.184 197.551 238.377 172.304 238.377 172.304C244.522 177.848 248.008 190.642 248.008 190.642C258.213 175.726 249.2 161.332 249.2 161.332C260.719 162.94 263.607 171.157 263.607 171.157C265.257 150.035 244.248 140.844 244.248 140.844C258.732 137.161 267.841 145.259 267.841 145.259C259.661 127.474 245.955 125.686 245.955 125.686Z" fill="#747A86"/>
<path d="M228.032 97.0659C214.359 68.0119 192.245 59.0149 192.245 59.0149C186.617 44.5249 178.889 39.7709 172.548 38.6529C166.355 37.5299 161.475 39.9019 161.304 39.9879C140.49 25.9299 156.686 6.51394 156.686 6.51394L156.62 6.51294C134.052 35.4809 160.229 35.1069 152.266 40.5599C144.286 46.0199 134.923 60.8239 140.398 60.9819C145.875 61.1869 133.563 65.6599 131.309 82.2739C129.436 96.2339 123.44 119.142 124.392 93.2129C125.341 67.3299 103.385 57.3819 95.004 64.5389C86.613 71.6889 86.906 62.5799 92.657 58.1259C98.395 53.6679 104.242 49.4979 121.126 58.8059C136.609 67.3449 125.186 44.3249 116.205 26.8169C121.874 40.5849 117.514 48.6429 117.423 48.8059C114.896 47.3999 112.527 46.5849 110.317 46.2799C94.682 43.9999 86.442 65.4659 86.442 65.4659C86.442 65.4659 86.485 65.4439 86.512 65.4179C86.498 65.4669 86.485 65.4869 86.485 65.4869C81.646 69.1859 77.289 73.8209 73.396 78.9699C73.472 78.9509 73.515 78.9519 73.515 78.9519C73.515 78.9519 77.698 73.7309 87.644 67.3439L81.64 75.7999C81.64 75.7999 89.187 69.9929 98.044 69.7439C104.46 75.2269 108.805 89.6299 108.805 89.6299L108.41 135.635C108.41 135.635 163.255 173.742 147.552 133.78C137.636 108.54 148.031 86.4949 157.033 73.6869L175.012 72.9379L180.84 72.6599C180.84 72.6599 181.771 66.8389 178.851 63.0769C178.851 63.0769 195.409 70.4229 204.922 81.3509L200.477 71.6939C200.477 71.6939 215.469 74.9909 227.093 95.7039C227.554 96.5049 227.963 97.1599 228.355 97.6999C228.238 97.4889 228.148 97.2769 228.032 97.0659Z" fill="#CDD0D7"/>
<path d="M78.6449 80.0138C78.6449 80.0138 87.3659 61.6678 103.983 55.0618C120.6 48.4558 109.864 36.7828 100.763 41.4278C91.6619 46.0728 81.1139 57.2488 78.6449 80.0138Z" fill="black"/>
<path d="M75.3169 110.248C75.3169 110.248 76.6429 138.787 96.5679 141.548C116.493 144.309 120.38 119.529 120.488 110.185C120.596 100.841 75.1869 96.1308 75.3169 110.248Z" fill="#747A86"/>
<path d="M120.803 104.8C121.01 86.7784 110.894 72.0504 98.2078 71.9045C85.5214 71.7586 75.069 86.2501 74.8618 104.272C74.6545 122.294 84.7708 137.022 97.4572 137.168C110.144 137.314 120.596 122.822 120.803 104.8Z" fill="#010000"/>
<path d="M119.901 104.791C119.701 122.101 109.662 136.02 97.477 135.879C85.292 135.739 75.576 121.592 75.775 104.282C75.974 86.9717 86.014 73.0527 98.199 73.1937C110.384 73.3347 120.1 87.4807 119.901 104.791Z" fill="url(#paint0_radial_151_78)"/>
<path d="M80.6509 83.0917C80.6509 83.0917 91.7589 68.8367 107.514 64.6047C98.2949 64.8877 84.7789 73.5887 80.6509 83.0917Z" fill="#010000"/>
<path d="M94.1279 133.634C91.1439 133.017 88.4549 132.15 86.0409 131.166C89.3539 134.11 93.2679 135.831 97.4769 135.88C109.662 136.02 119.702 122.102 119.901 104.792C120.101 87.4816 110.384 73.3356 98.1989 73.1946C95.8529 73.1676 93.5889 73.6666 91.4569 74.6046C97.8799 74.7866 105.795 77.5106 111.075 90.6056C120.067 112.905 109.084 136.727 94.1279 133.634Z" fill="#DADADA"/>
<path d="M75.8679 107.692C76.8829 123.412 86.1029 135.749 97.4769 135.88C108.873 136.011 118.39 123.845 119.739 108.11C114.273 100.79 80.5769 97.6788 75.8679 107.692Z" fill="#ADB5C0"/>
<path d="M98.9369 135.82C99.1799 135.8 99.4229 135.781 99.6639 135.75C99.8079 135.732 99.9499 135.705 100.093 135.683C100.308 135.649 100.524 135.617 100.737 135.574C100.889 135.544 101.039 135.507 101.19 135.472C101.392 135.426 101.594 135.38 101.793 135.326C101.949 135.284 102.103 135.236 102.257 135.19C102.45 135.132 102.643 135.073 102.834 135.008C102.99 134.955 103.145 134.897 103.299 134.839C103.485 134.769 103.671 134.698 103.856 134.622C104.011 134.558 104.165 134.49 104.319 134.421C104.5 134.34 104.679 134.257 104.858 134.169C105.012 134.094 105.165 134.016 105.317 133.936C105.492 133.844 105.666 133.749 105.839 133.651C105.991 133.565 106.143 133.478 106.293 133.387C106.462 133.285 106.63 133.179 106.797 133.071C106.947 132.974 107.096 132.878 107.244 132.777C107.409 132.664 107.572 132.547 107.734 132.429C107.88 132.323 108.026 132.218 108.17 132.107C108.33 131.984 108.487 131.856 108.645 131.728C108.788 131.612 108.932 131.497 109.073 131.377C109.227 131.246 109.378 131.108 109.529 130.971C109.669 130.845 109.81 130.721 109.948 130.591C110.097 130.45 110.243 130.301 110.39 130.155C110.525 130.02 110.662 129.889 110.795 129.75C110.939 129.6 111.078 129.442 111.219 129.287C111.503 128.975 111.781 128.655 112.054 128.325C112.16 128.197 112.268 128.073 112.372 127.943C112.516 127.762 112.655 127.573 112.796 127.386C112.905 127.242 113.016 127.101 113.123 126.953C113.26 126.764 113.392 126.568 113.526 126.375C113.632 126.221 113.74 126.07 113.844 125.913C113.974 125.716 114.1 125.514 114.227 125.312C114.328 125.152 114.43 124.994 114.528 124.831C114.653 124.623 114.775 124.411 114.896 124.199C114.99 124.034 115.086 123.871 115.178 123.703C115.297 123.487 115.412 123.267 115.527 123.047C115.616 122.877 115.705 122.707 115.791 122.534C115.904 122.308 116.014 122.079 116.123 121.849C116.205 121.676 116.286 121.503 116.366 121.327C116.473 121.091 116.577 120.853 116.68 120.613C116.755 120.437 116.829 120.26 116.902 120.082C117.002 119.836 117.101 119.588 117.197 119.339C117.265 119.162 117.331 118.983 117.397 118.803C117.491 118.547 117.583 118.291 117.672 118.031C117.733 117.852 117.792 117.67 117.851 117.489C117.937 117.223 118.023 116.957 118.105 116.688C118.159 116.509 118.21 116.328 118.262 116.147C118.341 115.87 118.421 115.593 118.495 115.312C118.541 115.138 118.583 114.962 118.626 114.787C118.699 114.493 118.773 114.199 118.84 113.902C118.875 113.746 118.906 113.588 118.94 113.431C119.009 113.11 119.078 112.79 119.139 112.465C119.161 112.351 119.178 112.236 119.199 112.122C119.434 110.822 119.616 109.491 119.733 108.132C119.734 108.124 119.735 108.116 119.735 108.108C118.733 106.767 116.777 105.569 114.231 104.565C115.274 121.707 105.946 136.078 94.1239 133.633C91.1439 133.017 88.4579 132.151 86.0459 131.168C86.0819 131.2 86.1179 131.229 86.1539 131.261C86.4839 131.551 86.8209 131.827 87.1629 132.092C87.2449 132.156 87.3269 132.22 87.4099 132.283C87.7999 132.576 88.1959 132.856 88.6009 133.116C88.6429 133.143 88.6859 133.167 88.7279 133.193C89.0959 133.426 89.4699 133.642 89.8479 133.847C89.9399 133.897 90.0319 133.947 90.1249 133.995C90.5439 134.212 90.9679 134.416 91.3979 134.597C91.4329 134.612 91.4689 134.624 91.5039 134.638C91.9009 134.802 92.3039 134.947 92.7099 135.08C92.8149 135.114 92.9199 135.148 93.0259 135.18C93.4669 135.314 93.9119 135.435 94.3639 135.531C94.3889 135.536 94.4139 135.539 94.4389 135.544C94.8649 135.633 95.2969 135.699 95.7309 135.753C95.8479 135.767 95.9639 135.781 96.0809 135.792C96.5419 135.838 97.0059 135.872 97.4739 135.877C97.8429 135.881 98.2099 135.871 98.5749 135.85C98.6979 135.845 98.8169 135.83 98.9369 135.82Z" fill="#DADADA"/>
<path d="M112.607 115.632C111.741 123.834 106.679 130.042 101.314 129.459C95.951 128.9 92.302 121.766 93.179 113.581C94.046 105.358 99.099 99.1547 104.471 99.7357C109.833 100.291 113.474 107.409 112.607 115.632Z" fill="#1A1A1A"/>
<path d="M109.737 117.628C109.357 123.519 105.916 128.092 102.075 127.849C98.2179 127.589 95.4139 122.609 95.7999 116.711C96.1829 110.836 99.6039 106.266 103.463 106.508C107.319 106.749 110.122 111.748 109.737 117.628Z" fill="url(#paint1_radial_151_78)"/>
<path d="M111.638 109.142C112.334 112.684 111.165 115.891 109.031 116.294C106.905 116.721 104.61 114.186 103.924 110.66C103.235 107.12 104.411 103.91 106.531 103.503C108.664 103.082 110.959 105.613 111.638 109.142Z" fill="white"/>
<path d="M196.191 73.7437C196.191 73.7437 187.13 52.8747 168.78 44.8447C150.43 36.8147 162.895 24.1587 172.905 29.7057C182.916 35.2537 194.296 48.1667 196.191 73.7437Z" fill="black"/>
<path d="M156.695 107.55C156.769 101.111 153.473 95.853 149.333 95.8054C145.194 95.7578 141.778 100.939 141.704 107.378C141.63 113.817 144.926 119.075 149.065 119.123C153.205 119.171 156.621 113.989 156.695 107.55Z" fill="#010000"/>
<path d="M188.094 104.976C188.094 104.976 185.67 139.813 161.244 142.625C136.818 145.437 132.766 115.047 132.897 103.626C133.028 92.2047 188.65 87.7287 188.094 104.976Z" fill="#747A86"/>
<path d="M132.656 97.0389C132.402 119.069 144.767 137.072 160.275 137.251C175.782 137.43 192.628 119.763 192.882 97.7339C193.136 75.7039 178.7 56.9089 161.195 57.4749C145.694 57.9759 132.91 75.0099 132.656 97.0389Z" fill="#010000"/>
<path d="M133.766 97.0518C133.522 118.21 145.398 135.502 160.292 135.673C175.186 135.844 187.458 118.832 187.702 97.6728C187.946 76.5138 176.07 59.2228 161.176 59.0518C146.282 58.8808 134.01 75.8938 133.766 97.0518Z" fill="url(#paint2_radial_151_78)"/>
<path d="M185.981 73.6268C185.981 73.6268 171.613 53.7248 152.48 48.1108C165.647 48.5128 181.205 61.8988 185.981 73.6268Z" fill="#010000"/>
<path d="M187.493 101.837C185.81 121.018 174.196 135.834 160.293 135.673C146.364 135.512 135.076 120.378 133.872 101.111C140.756 92.3218 182.021 89.4688 187.493 101.837Z" fill="#ADB5C0"/>
<path d="M190.152 96.0708C190.375 76.7648 179.538 60.9878 165.948 60.8308C164.959 60.8198 163.985 60.9008 163.025 61.0508C168.672 63.0548 180.964 69.6558 182.086 89.3768C183.392 112.325 167.525 137.11 152.48 129.497C155.761 131.885 160.052 134.135 164.002 134.181C177.593 134.337 189.93 115.377 190.152 96.0708Z" fill="#DADADA"/>
<path d="M176.874 117.029C175.649 126.247 169.755 133.09 163.726 132.269C157.699 131.476 153.804 123.325 155.04 114.127C156.267 104.886 162.151 98.0489 168.187 98.8669C174.215 99.6549 178.101 107.788 176.874 117.029Z" fill="#1A1A1A"/>
<path d="M173.579 119.191C172.972 125.818 168.954 130.868 164.633 130.477C160.294 130.067 157.285 124.369 157.899 117.733C158.509 111.123 162.504 106.077 166.846 106.467C171.186 106.858 174.192 112.576 173.579 119.191Z" fill="url(#paint3_radial_151_78)"/>
<path d="M175.98 109.686C176.657 113.699 175.242 117.278 172.824 117.667C170.415 118.084 167.905 115.157 167.239 111.162C166.57 107.151 167.993 103.569 170.395 103.176C172.813 102.766 175.322 105.687 175.98 109.686Z" fill="white"/>
<path d="M157.316 132.001C153.079 127.642 128.937 109.259 97.978 127.989C67.045 146.72 75.211 194.45 81.153 213.001C87.066 231.552 120.352 275.728 123.365 238.682C123.365 238.682 127.141 259.074 142.783 244.432C160.57 227.784 177.463 207.866 185.323 182.017C195.932 147.112 178.507 126.628 168.975 131.344C161.886 134.829 164.364 139.289 157.316 132.001Z" fill="#212129"/>
<path d="M136.992 249.302C134.148 250.62 131.572 250.685 129.322 249.513C126.288 247.944 124.535 244.448 123.618 241.901C122.119 251.93 117.533 255.629 110.761 252.634C99.454 247.678 84.391 225.204 80.564 213.179C73.065 189.715 68.232 145.289 97.659 127.47C99.796 126.167 101.974 125.026 104.128 124.026C130.398 111.934 151.755 125.39 157.761 131.616C161.115 135.058 162.062 135.535 162.736 135.238C163.086 135.055 163.481 134.685 164.003 134.182C164.969 133.263 166.302 131.971 168.7 130.806L168.868 130.719C171.96 129.283 175.75 130.237 179.256 133.286C187.726 140.674 193.064 158.659 185.917 182.188C177.271 210.634 157.407 231.591 143.199 244.874C141.007 246.927 138.927 248.414 136.992 249.302ZM123.126 234.063L123.974 238.574C123.983 238.663 125.411 246.117 129.895 248.432C133.161 250.145 137.419 248.607 142.368 244.006C156.459 230.787 176.181 209.996 184.745 181.825C191.741 158.833 186.624 141.336 178.438 134.205C175.329 131.485 172.014 130.612 169.378 131.82C166.999 133.002 165.75 134.2 164.846 135.073C164.254 135.647 163.796 136.089 163.257 136.362C161.718 137.041 160.253 135.953 156.866 132.438C151.038 126.431 130.259 113.35 104.63 125.128C102.522 126.129 100.387 127.244 98.297 128.501C85.037 136.532 77.65 150.711 76.346 170.598C75.329 186.152 78.461 202.598 81.733 212.823C85.493 224.631 100.22 246.667 111.235 251.522C117.995 254.488 121.81 250.083 122.757 238.649L123.126 234.063Z" fill="black"/>
<path d="M165.607 142.566C165.294 142.697 164.933 142.578 164.796 142.277C161.906 136.462 157.907 133.433 157.881 133.406C157.598 133.192 157.54 132.817 157.73 132.57C157.944 132.267 158.338 132.229 158.605 132.442C158.778 132.559 162.855 135.658 165.9 141.728C166.034 142.028 165.925 142.405 165.608 142.539C165.607 142.566 165.607 142.566 165.607 142.566Z" fill="black"/>
<path opacity="0.2" d="M169.092 131.581C162.002 135.067 164.463 139.521 157.431 132.261C153.191 127.879 129.036 109.512 98.093 128.246C94.97 130.145 92.264 132.325 89.884 134.745C104.787 121.559 142.454 119.388 156.713 147.842C171.476 177.287 125.316 192.859 120.092 223.125C114.851 253.407 94.473 242.893 81.256 213.255C87.179 231.806 120.465 275.962 123.477 238.962C123.477 238.962 127.24 259.331 142.896 244.685C160.684 228.014 177.576 208.119 185.45 182.253C196.062 147.365 178.63 126.891 169.092 131.581Z" fill="#333333"/>
<path opacity="0.2" d="M178.94 186.975C188.934 162.152 173.254 140.479 173.254 140.479C171.375 145.825 167.713 149.249 167.713 149.249C179.543 170.086 164.723 194.058 148.906 202.756C138.276 208.623 125.055 217.33 122.273 234.358C119.631 250.409 111.954 252.906 107.106 249.959C115.217 255.973 122.382 255.355 123.687 239.105C123.687 239.105 124.523 243.517 126.956 246.738C136.958 254.522 168.394 213.188 178.94 186.975Z" fill="#680000"/>
<path opacity="0.1" d="M77.6641 157.466C80.3741 146.682 88.4031 135.871 97.3691 132.693C110.34 128.036 120.752 141.885 123.614 156.436C124.452 160.736 124.997 165.795 124.738 170.083C124.233 177.679 122.617 186.189 120.268 193.107C116.565 204.014 110.197 222.68 99.4871 225.776C95.5671 226.94 90.1341 224.078 87.7361 219.717C78.8431 203.674 72.7351 177.016 77.6641 157.466Z" fill="#F3F2E4"/>
<path opacity="0.1" d="M77.939 161.294C79.619 154.647 84.571 147.967 90.103 146.003C98.109 143.116 104.536 151.646 106.295 160.665C106.823 163.302 107.174 166.431 106.993 169.087C106.703 173.768 105.689 179.026 104.244 183.293C101.945 190.027 98.015 201.563 91.422 203.471C88.989 204.189 85.652 202.402 84.149 199.727C78.668 189.804 74.896 173.355 77.939 161.294Z" fill="#F3F2E4"/>
<path d="M126.459 245.005C126.459 245.005 131.692 236.942 135.946 219.504C140.2 202.066 144.817 192.881 152.317 194.329C144.661 194.267 141.86 192.153 136.654 195.8C131.448 199.447 126.051 208.899 124.36 218.84C122.669 228.781 123.964 240.863 123.964 240.863L126.459 245.005Z" fill="#900C12"/>
<path d="M130.184 203.243C127.515 207.618 125.328 213.147 124.359 218.841C122.668 228.782 123.963 240.864 123.963 240.864L126.459 245.005C126.459 245.005 127.117 243.981 128.144 241.923C128.811 239.798 129.453 237.335 130.06 234.474C132.408 223.408 131.159 210.229 130.184 203.243Z" fill="url(#paint4_linear_151_78)"/>
<path opacity="0.5" d="M130.31 204.182C130.268 203.863 130.226 203.54 130.184 203.243C127.515 207.618 125.328 213.147 124.359 218.841C122.668 228.782 123.963 240.864 123.963 240.864L126.305 244.751C126.087 240.41 125.994 233.181 126.511 221.67C126.841 214.338 128.378 208.601 130.31 204.182Z" fill="#FEA900"/>
<path d="M122.502 241.06C122.502 241.06 117.651 161.49 174.397 206.595C171.779 204.569 148.026 186.668 134.891 197.952C123.534 207.708 123.787 238.92 123.787 238.92" fill="#010000"/>
<path d="M109.201 10.7959C109.201 10.7959 126.776 26.5379 128.735 47.8679C130.703 69.2149 141.044 45.3519 131.473 30.9089C121.893 16.4179 109.201 10.7959 109.201 10.7959Z" fill="#ADB5C0"/>
<path d="M151.983 9.53784C151.983 9.53784 132.211 19.3528 137.57 34.3558C141.892 46.4298 145.209 15.7998 151.983 9.53784Z" fill="#ADB5C0"/>
<path d="M111.752 67.6928C111.752 67.6928 121.466 77.7428 123.484 96.3238C125.423 114.177 126.027 123.989 127.008 114.195C127.989 104.401 128.794 75.8688 139.344 65.6278C149.894 55.3868 134.288 64.9138 129.099 81.8248C126.353 90.7738 127.177 63.5688 127.063 56.3048C126.949 49.0408 124.683 77.4238 124.899 83.6018C125.073 88.5228 116.438 67.7808 111.752 67.6928Z" fill="#010000"/>
<path d="M95.1769 148.216C75.0729 148.216 58.7169 129.162 58.7169 105.741C58.7169 82.3199 75.0729 63.2659 95.1769 63.2659C115.281 63.2659 131.637 82.3199 131.637 105.741C131.637 129.162 115.281 148.216 95.1769 148.216ZM95.1769 66.7819C77.1079 66.7819 62.4079 84.2589 62.4079 105.742C62.4079 127.224 77.1079 144.701 95.1769 144.701C113.246 144.701 127.946 127.224 127.946 105.742C127.946 84.2589 113.246 66.7819 95.1769 66.7819Z" fill="#010000"/>
<path d="M168.17 146.816C148.066 146.816 131.71 127.762 131.71 104.341C131.71 80.92 148.066 61.866 168.17 61.866C188.274 61.866 204.63 80.92 204.63 104.341C204.63 127.762 188.274 146.816 168.17 146.816ZM168.17 65.382C150.101 65.382 135.401 82.859 135.401 104.341C135.401 125.823 150.101 143.3 168.17 143.3C186.239 143.3 200.939 125.823 200.939 104.341C200.939 82.859 186.239 65.382 168.17 65.382Z" fill="#010000"/>
<path d="M197.369 83.1619H215.246L212.413 81.0059L195.117 79.5969L197.369 83.1619Z" fill="#010000"/>
<path d="M68.3059 79.5969L84.4709 81.5059L81.4649 84.1719H66.8579L68.3059 79.5969Z" fill="#010000"/>
<path opacity="0.17" d="M127.321 98.777L89.8229 143.961C91.5269 144.287 93.2719 144.463 95.0519 144.463C97.9639 144.463 100.786 144.003 103.475 143.152L126.748 115.392C127.446 112.233 127.82 108.92 127.82 105.504C127.82 103.209 127.643 100.964 127.321 98.777ZM107.996 69.719L65.1339 121.367C66.4309 124.811 68.1349 127.99 70.1749 130.82L116.265 75.844C113.794 73.343 111.013 71.268 107.996 69.719ZM118.954 78.894L73.7349 135.056C74.2779 135.611 74.8319 136.151 75.4049 136.663L120.478 80.962C119.991 80.251 119.481 79.563 118.954 78.894Z" fill="white"/>
<path opacity="0.17" d="M200.439 97.6149L162.941 142.799C164.645 143.125 166.39 143.301 168.17 143.301C171.082 143.301 173.904 142.841 176.593 141.99L199.866 114.23C200.564 111.071 200.938 107.758 200.938 104.342C200.938 102.047 200.761 99.8019 200.439 97.6149ZM181.114 68.5569L138.252 120.205C139.549 123.649 141.253 126.828 143.293 129.658L189.383 74.6819C186.913 72.1809 184.132 70.1059 181.114 68.5569ZM192.073 77.7319L146.854 133.894C147.397 134.449 147.951 134.989 148.524 135.501L193.597 79.7999C193.109 79.0889 192.6 78.4009 192.073 77.7319Z" fill="white"/>
<defs>
<radialGradient id="paint0_radial_151_78" cx="0" cy="0" r="1" gradientUnits="userSpaceOnUse" gradientTransform="translate(97.8378 104.531) rotate(0.658938) scale(27.1037 27.1037)">
<stop stop-color="white"/>
<stop offset="0.4996" stop-color="#FDFDFD"/>
<stop offset="0.6917" stop-color="#F6F6F6"/>
<stop offset="0.8307" stop-color="#EAEBEA"/>
<stop offset="0.9435" stop-color="#D9DAD9"/>
<stop offset="0.992" stop-color="#CFD0CF"/>
</radialGradient>
<radialGradient id="paint1_radial_151_78" cx="0" cy="0" r="1" gradientUnits="userSpaceOnUse" gradientTransform="translate(109.492 115.631) rotate(-14.5379) scale(13.469)">
<stop stop-color="white"/>
<stop offset="0.0019" stop-color="#FEFEFE"/>
<stop offset="0.1688" stop-color="#BCBCBC"/>
<stop offset="0.3328" stop-color="#838383"/>
<stop offset="0.4898" stop-color="#555454"/>
<stop offset="0.6383" stop-color="#302F2F"/>
<stop offset="0.7764" stop-color="#161515"/>
<stop offset="0.9001" stop-color="#070606"/>
<stop offset="0.9973" stop-color="#010000"/>
</radialGradient>
<radialGradient id="paint2_radial_151_78" cx="0" cy="0" r="1" gradientUnits="userSpaceOnUse" gradientTransform="translate(160.779 97.3911) rotate(-179.341) scale(33.1294 33.1294)">
<stop stop-color="white"/>
<stop offset="0.4996" stop-color="#FDFDFD"/>
<stop offset="0.6917" stop-color="#F6F6F6"/>
<stop offset="0.8307" stop-color="#EAEBEA"/>
<stop offset="0.9435" stop-color="#D9DAD9"/>
<stop offset="0.992" stop-color="#CFD0CF"/>
</radialGradient>
<radialGradient id="paint3_radial_151_78" cx="0" cy="0" r="1" gradientUnits="userSpaceOnUse" gradientTransform="translate(173.364 116.935) rotate(-12.9925) scale(15.185 15.185)">
<stop stop-color="white"/>
<stop offset="0.0019" stop-color="#FEFEFE"/>
<stop offset="0.1688" stop-color="#BCBCBC"/>
<stop offset="0.3328" stop-color="#838383"/>
<stop offset="0.4898" stop-color="#555454"/>
<stop offset="0.6383" stop-color="#302F2F"/>
<stop offset="0.7764" stop-color="#161515"/>
<stop offset="0.9001" stop-color="#070606"/>
<stop offset="0.9973" stop-color="#010000"/>
</radialGradient>
<linearGradient id="paint4_linear_151_78" x1="126.349" y1="253.696" x2="127.584" y2="221.79" gradientUnits="userSpaceOnUse">
<stop stop-color="#FFDF8E"/>
<stop offset="0.1531" stop-color="#FFD97F"/>
<stop offset="0.4473" stop-color="#FFCA58"/>
<stop offset="0.8492" stop-color="#FEB319"/>
<stop offset="1" stop-color="#FEA900"/>
</linearGradient>
</defs>
</svg>
